<?xml version="1.0" encoding="UTF-8" standalone="no" ?>
<!DOCTYPE svg PUBLIC "-//W3C//DTD SVG 1.1//EN" "http://www.w3.org/Graphics/SVG/1.1/DTD/svg11.dtd">
<svg xmlns="http://www.w3.org/2000/svg" xmlns:xlink="http://www.w3.org/1999/xlink" version="1.1" width="200" height="75" viewBox="0 0 200 75" xml:space="preserve">
<desc>Created with Fabric.js 5.3.0</desc>
<defs>
</defs>
<g transform="matrix(0.0378544208 0 0 0.0378544208 100 37.5)" id="Buc-_j5dKLpZnTnEbtErv"  >
<g style="" vector-effect="non-scaling-stroke"   >
		<g transform="matrix(1 0 0 1 798.9379187836 120.7745515403)" id="t_W3jVNhGmnIWY6TsWF3X"  >
<path style="stroke: none; stroke-width: 1; stroke-dasharray: none; stroke-linecap: butt; stroke-dashoffset: 0; stroke-linejoin: miter; stroke-miterlimit: 4; fill: rgb(17,157,215); fill-rule: nonzero; opacity: 1;" vector-effect="non-scaling-stroke"  transform=" translate(-3239.3506262009, -634.0656879267)" d="M 4808.7 645.3 C 4908 595.1999999999999 4906 433.9 4794.9 402.19999999999993 C 4674.099999999999 366.0999999999999 4575.9 423.29999999999995 4503 511.29999999999995 C 4508.9 439.29999999999995 4473.5 393.69999999999993 4398.8 398.99999999999994 C 4381.6 398.69999999999993 4360.5 396.29999999999995 4348.8 409.49999999999994 C 4283.8 376.8999999999999 4197.3 387.19999999999993 4141.1 451.49999999999994 C 4122.1 462.3999999999999 4104.6 477.59999999999997 4090.0000000000005 497.99999999999994 C 4061.7000000000003 403.19999999999993 3947.2000000000003 379.0999999999999 3857.5000000000005 397.0999999999999 C 3786.3000000000006 408.4999999999999 3745.2000000000003 452.3999999999999 3697.2000000000003 495.4999999999999 C 3696.6000000000004 308.2999999999999 3561.7000000000003 272.1999999999999 3408.0000000000005 287.6999999999999 C 3377.3000000000006 289.39999999999986 3347.3000000000006 291.09999999999985 3319.8000000000006 291.1999999999999 C 3294.0000000000005 291.2999999999999 3278.2000000000007 304.1999999999999 3274.7000000000007 327.89999999999986 C 3215.9000000000005 327.79999999999984 3233.100000000001 397.6999999999999 3227.600000000001 437.29999999999984 C 3209.8000000000006 405.1999999999998 3161.100000000001 396.49999999999983 3127.7000000000007 398.89999999999986 C 3099.500000000001 397.1999999999999 3077.8000000000006 408.9999999999999 3073.3000000000006 435.6999999999999 C 3028.5000000000005 435.7999999999999 3027.4000000000005 481.59999999999985 3025.8000000000006 515.9999999999999 C 3020.8000000000006 561.5999999999999 3021.8000000000006 612.4999999999999 3008.5000000000005 655.4999999999999 C 2999.0000000000005 638.3999999999999 3006.1000000000004 616.6999999999999 3007.4000000000005 596.2999999999998 C 3011.4000000000005 559.2999999999998 3016.8000000000006 523.5999999999998 3016.7000000000007 485.49999999999983 C 3019.100000000001 420.29999999999984 2967.000000000001 395.5999999999998 2908.2000000000007 398.79999999999984 C 2878.600000000001 397.1999999999998 2855.8000000000006 409.29999999999984 2849.500000000001 435.99999999999983 C 2830.400000000001 438.09999999999985 2817.100000000001 446.8999999999998 2809.800000000001 462.09999999999985 C 2777.900000000001 397.4999999999999 2679.1000000000013 374.79999999999984 2616.900000000001 404.79999999999984 C 2629.700000000001 317.59999999999985 2597.900000000001 265.39999999999986 2504.600000000001 270.6999999999998 C 2476.2000000000007 268.3999999999998 2451.100000000001 277.1999999999998 2449.3000000000006 307.3999999999998 C 2419.100000000001 307.6999999999998 2406.2000000000007 321.3999999999998 2405.3000000000006 350.99999999999983 C 2404.100000000001 389.8999999999998 2401.4000000000005 429.29999999999984 2398.4000000000005 468.1999999999998 C 2351.9000000000005 374.8999999999998 2199.8000000000006 375.49999999999983 2117.7000000000007 420.99999999999983 C 2102.100000000001 430.3999999999998 2089.4000000000005 441.59999999999985 2079.7000000000007 454.49999999999983 C 2066.000000000001 461.8999999999998 2053.100000000001 471.79999999999984 2043.4000000000008 482.3999999999998 C 2086.9000000000005 289.0999999999998 1874.7000000000007 273.1999999999998 1734.8000000000006 289.4999999999998 C 1704.5000000000007 289.7999999999998 1671.0000000000007 294.0999999999998 1668.9000000000005 327.5999999999998 C 1637.9000000000005 330.1999999999998 1625.4000000000005 343.5999999999998 1624.5000000000005 375.0999999999998 C 1622.1000000000004 456.5999999999998 1613.3000000000004 537.0999999999998 1607.8000000000004 618.0999999999998 C 1606.7000000000005 702.0999999999998 1560.3000000000004 842.6999999999998 1678.2000000000005 863.7999999999997 C 1784.6000000000006 886.5999999999997 1907.3000000000004 870.5999999999997 1983.7000000000005 791.1999999999997 C 2010.1000000000006 885.3999999999997 2141.1000000000004 894.2999999999997 2207.7000000000007 837.3999999999997 C 2231.9000000000005 870.1999999999997 2279.7000000000007 878.2999999999997 2317.9000000000005 868.5999999999998 C 2343.9000000000005 862.0999999999998 2364.5000000000005 847.3999999999997 2378.3000000000006 826.2999999999998 C 2390.600000000001 820.9999999999999 2401.3000000000006 813.5999999999998 2410.2000000000007 804.2999999999998 C 2446.9000000000005 862.7999999999998 2531.100000000001 879.3999999999999 2598.7000000000007 870.3999999999999 C 2656.500000000001 863.8999999999999 2701.9000000000005 841.6999999999998 2734.100000000001 804.2999999999998 C 2758.900000000001 789.3999999999999 2779.3000000000006 769.0999999999998 2795.100000000001 743.6999999999998 C 2800.400000000001 767.1999999999998 2810.900000000001 792.8999999999999 2833.600000000001 812.4999999999998 C 2832.500000000001 814.1999999999998 2831.400000000001 815.9999999999998 2830.500000000001 817.7999999999997 C 2775.2000000000007 837.5999999999997 2760.800000000001 904.3999999999997 2803.2000000000007 945.2999999999997 C 2842.2000000000007 983.6999999999997 2905.7000000000007 996.3999999999997 2962.500000000001 996.9999999999998 C 3024.800000000001 998.7999999999997 3098.100000000001 978.4999999999998 3134.000000000001 931.4999999999998 C 3174.300000000001 907.8999999999997 3201.900000000001 869.9999999999998 3213.600000000001 821.3999999999997 C 3242.7000000000007 872.4999999999998 3312.400000000001 870.5999999999998 3365.3000000000006 872.5999999999998 C 3444.2000000000007 875.1999999999998 3530.9000000000005 851.4999999999998 3578.600000000001 795.3999999999997 C 3604.000000000001 779.1999999999997 3625.500000000001 757.9999999999998 3642.900000000001 732.2999999999997 C 3657.200000000001 838.9999999999998 3761.100000000001 884.4999999999998 3859.000000000001 870.4999999999998 C 3947.600000000001 861.0999999999998 4003.800000000001 808.1999999999998 4056.100000000001 746.3999999999997 C 4065.100000000001 774.0999999999998 4079.900000000001 796.4999999999998 4100.000000000001 812.8999999999997 C 4043.900000000001 838.5999999999998 4024.300000000001 904.9999999999998 4074.400000000001 951.5999999999997 C 4112.9000000000015 988.0999999999997 4172.100000000001 996.2999999999997 4221.4000000000015 997.7999999999997 C 4281.800000000001 996.6999999999997 4353.9000000000015 980.2999999999997 4394.000000000002 930.2999999999997 C 4442.500000000002 905.1999999999997 4470.600000000002 847.8999999999997 4477.200000000002 792.3999999999997 C 4533.700000000002 885.4999999999998 4703.500000000002 900.8999999999997 4784.700000000002 825.2999999999997 C 4795.9000000000015 808.8999999999997 4814.500000000002 805.0999999999997 4828.200000000002 788.5999999999997 C 4869.100000000001 747.0999999999997 4851.000000000002 676.1999999999997 4795.200000000002 659.6999999999997 C 4800.200000000002 655.0999999999997 4804.700000000002 650.2999999999997 4808.700000000002 645.2999999999997 L 4808.700000000002 645.2999999999997 z M 3462.2999999999997 646.5999999999999 C 3459.9999999999995 654.1999999999999 3457.2999999999997 660.9999999999999 3454.1 667.1999999999999 C 3446.7 669.1999999999999 3438.5 670.1999999999999 3429.6 670.3 L 3442.2999999999997 487.49999999999994 C 3454.1 490.69999999999993 3460.7999999999997 497.49999999999994 3465.1 510.09999999999997 C 3471.5 529.0999999999999 3471.7 550 3471.7999999999997 559 C 3471.8999999999996 599.2 3469.2999999999997 623.8 3462.2999999999997 646.6 L 3462.2999999999997 646.6 z M 3862.2 577.9999999999999 L 3863 577.9999999999999 C 3872.5 578.6999999999999 3876.9 581.8999999999999 3880.2 590.7999999999998 C 3883.2999999999997 599.0999999999998 3884.5 608.7999999999998 3884.3999999999996 624.9999999999999 C 3883.7 648.4999999999999 3880.2 668.5999999999999 3873.7999999999997 685.8999999999999 C 3869.2 684.6999999999998 3866.2 681.7999999999998 3863.3999999999996 676.0999999999999 C 3856.9999999999995 663.3999999999999 3855.8999999999996 648.3 3855.7 633.8999999999999 C 3855.3999999999996 611.1999999999998 3857.3999999999996 593.3999999999999 3862.2 577.9999999999999 L 3862.2 577.9999999999999 z M 4280 587.4999999999999 C 4283.3 596.2999999999998 4284.8 606.9999999999999 4284.6 619.3999999999999 L 4284.6 619.9999999999999 C 4284.6 636.3999999999999 4283.5 648.8999999999999 4281 659.4999999999999 C 4279.8 659.2999999999998 4278.7 658.9999999999999 4277.5 658.6999999999999 C 4273.1 657.4999999999999 4270.4 655.4999999999999 4269.1 648.9 C 4264 623.1 4264.8 600 4271.5 578.6 C 4275.8 579.5 4278 582 4280 587.5 L 4280 587.5 z M 2602.4 675.3999999999999 C 2597 661.0999999999999 2596.7000000000003 644.7999999999998 2596.3 625.7999999999998 C 2597 609.3999999999999 2598.1000000000004 593.4999999999999 2601.9 578.7999999999998 C 2607.9 580.2999999999998 2608.8 583.3999999999999 2610.1 588.7999999999998 C 2618.2999999999997 621.8999999999999 2617.5 653.8999999999999 2607.7999999999997 684.1999999999998 C 2605.7 682.4999999999998 2603.9999999999995 679.6999999999998 2602.3999999999996 675.3999999999999 z" stroke-linecap="round" />
</g>
		<g transform="matrix(1 0 0 1 822.0908161424 102.1918779739)" id="47yNb7OpzKYRUAvtV2Wf1"  >
<path style="stroke: none; stroke-width: 1; stroke-dasharray: none; stroke-linecap: butt; stroke-dashoffset: 0; stroke-linejoin: miter; stroke-miterlimit: 4; fill: rgb(255,255,255); fill-rule: nonzero; opacity: 1;" vector-effect="non-scaling-stroke"  transform=" translate(-3262.5035235596, -615.4830143603)" d="M 3627.2 365 C 3573 306.9 3480.5 312.8 3409.8999999999996 316.9 C 3377.5999999999995 318.59999999999997 3348.7999999999997 320.29999999999995 3319.9999999999995 320.4 C 3306.7999999999997 320.4 3303.8999999999996 323.7 3303.4999999999995 336.9 C 3299.9999999999995 472.29999999999995 3280.3999999999996 606.8 3276.3999999999996 742.0999999999999 C 3276.3999999999996 768.1999999999999 3288.5999999999995 785.6999999999999 3312.8999999999996 794.8999999999999 C 3439.2 827.8999999999999 3602.3999999999996 803.4999999999999 3645.7999999999997 661.8999999999999 C 3674.1 567.9999999999999 3688.7999999999997 448.1999999999999 3627.2 364.9999999999999 L 3627.2 364.9999999999999 z M 3533.8999999999996 618.4 C 3515.8999999999996 679.5 3469.3999999999996 706.6 3406.9999999999995 698.1999999999999 C 3399.9999999999995 698.4 3397.9999999999995 695.9 3398.5999999999995 688.4 L 3415.8999999999996 430.9 C 3416.2999999999997 423.5 3418.3999999999996 421 3425.7 420.7 C 3446.6 419.8 3467.3999999999996 416.9 3488.2999999999997 421.2 C 3512.7 426.2 3528.4999999999995 440.5 3536.3999999999996 464 C 3551.3999999999996 519.7 3545.3999999999996 573.5 3533.8999999999996 618.4 z M 1957.7999999999997 551.8 C 1955.5999999999997 551 1953.0999999999997 550.5 1951.6999999999998 548.3 C 2003.6999999999998 527.6999999999999 2018.4999999999998 486.19999999999993 2019.1 437.09999999999997 C 2023.3 353.5 1939.1 319.29999999999995 1867.6999999999998 316.59999999999997 C 1817.1999999999998 312.4 1766.7999999999997 316.99999999999994 1716.4999999999998 320.2 C 1698.9999999999998 321.3 1697.8999999999999 322.7 1697.3999999999999 339.4 C 1695.1999999999998 421 1686.1 502.09999999999997 1680.6999999999998 583.5 C 1677.6 631.3 1671.6999999999998 679.1 1671.3999999999999 727.1 C 1667.6 839.1 1857.6 809.3000000000001 1926.8999999999999 787.7 C 2027.1999999999998 763.3000000000001 2060.2 594.8000000000001 1957.8 551.8000000000001 L 1957.8 551.8000000000001 z M 1899.7 682 C 1890.9 718 1832.2 727 1799.7 711.4 C 1788.8 703.6999999999999 1797.3 690.1 1797.5 679.3 C 1798 656 1800.4 632.8 1801.6 609.5 C 1801.8999999999999 603.8 1803.1 601 1809.5 600.2 C 1871.5 587.6 1918.7 613.2 1899.7 682 L 1899.7 682 z M 1876.9 505.1 C 1865.5 509.5 1810.3000000000002 513.6 1809.6000000000001 498.1 C 1813.1000000000001 485.3 1808.2 407.8 1820.4 411 C 1839.1000000000001 408.7 1859.2 406.5 1878.4 412.9 C 1921 424.9 1921.8000000000002 494.79999999999995 1876.9 505.09999999999997 L 1876.9 505.09999999999997 z M 4424.5 429.3 C 4355.3 427.8 4369.9 417.8 4363.6 469.7 C 4320.1 388.5 4188.200000000001 411.4 4144.900000000001 499.4 C 4098.1 593.5 4096.400000000001 774.5999999999999 4235.1 779.0999999999999 C 4285.700000000001 782.6999999999999 4312.6 763.0999999999999 4343 726.0999999999999 C 4343.7 772.6999999999999 4334.5 838.0999999999999 4278 844.9999999999999 C 4247.7 848.8999999999999 4219.3 845.1999999999999 4200.9 816.2999999999998 C 4193.599999999999 804.7999999999998 4183.099999999999 800.7999999999998 4170 802.7999999999998 C 4092.9 813.5999999999998 4111.5 897.1999999999998 4174.3 915.8999999999999 C 4266.900000000001 948.1999999999998 4407.5 936.2999999999998 4439.8 827.1999999999998 C 4460 744.1999999999998 4463.7 657.9999999999998 4470.1 573.1999999999998 C 4470.1 524.1999999999998 4495.200000000001 436.49999999999983 4424.5 429.29999999999984 L 4424.5 429.29999999999984 z M 4357.5 583.3 C 4361.4 637.9 4332.6 704.0999999999999 4269.8 687 C 4253.2 682.5 4243.400000000001 670.6 4240.3 654.5 C 4208.900000000001 502.5 4359.900000000001 457.8 4357.5 583.3 z M 3172.1 431.8 C 3155.6 427.3 3138.7 428.1 3121.9 428.1 C 3106.9 428.20000000000005 3102.7000000000003 431.70000000000005 3101.4 446.3 L 3094.5 529.3 C 3089.2 580.6999999999999 3090.5 644.0999999999999 3045.9 679.1999999999999 C 3014.7000000000003 700.9 2977.9 683.9999999999999 2974.8 646.4999999999999 C 2973.1000000000004 592.5999999999999 2988 539.5999999999999 2987 485.6999999999999 C 2986.6 449.09999999999985 2972.1 433.4999999999999 2935.7 429.1999999999999 C 2912.3999999999996 428.89999999999986 2875.1 418.6999999999999 2876.1 453.59999999999985 C 2878.2 541.0999999999999 2823.5 711.9999999999998 2912 764.3999999999999 C 2967.9 795.0999999999999 3044.1 780.4999999999999 3079.6 725.7999999999998 C 3083.9 784.2999999999998 3059.6 856.1999999999998 2989.2 845.4999999999999 C 2968.1 843.8999999999999 2948.7 838.0999999999999 2936.3999999999996 818.4999999999999 C 2924.8999999999996 800.1999999999999 2923.7999999999997 799.8999999999999 2902.2999999999997 803.8999999999999 C 2819.3999999999996 818.7999999999998 2850.2999999999997 900.2999999999998 2915.2 916.0999999999999 C 3025.8999999999996 955.6999999999999 3186.7999999999997 923.5999999999999 3190 782.8 L 3201.5 627.9 C 3197.4 575.5 3240.9 445.5 3172.1 431.79999999999995 L 3172.1 431.79999999999995 z M 2697.7999999999997 422.5 C 2647.7999999999997 416 2608.2 433.3 2581.6 478 C 2582.9 389.6 2628.2999999999997 287.8 2493.7 300.2 C 2479.7 300 2478.3999999999996 301.4 2478 315.3 C 2475.3 400.4 2466 484.9 2460.5 569.8 C 2438.9 712.6999999999999 2469.7 824.4 2638.9 804.5999999999999 C 2820.8 808.3999999999999 2883 448.7999999999999 2697.8 422.4999999999999 z M 2667.7 685.2 C 2651.7999999999997 723.1 2588.1 729.5 2574.8999999999996 685.8000000000001 C 2561.8999999999996 641.9000000000001 2563.9999999999995 591.6 2581.5999999999995 548.9000000000001 C 2596.3999999999996 506.2000000000001 2670.8999999999996 494.6000000000001 2682.1999999999994 545.2 C 2694.0999999999995 593.3000000000001 2689.899999999999 640.5 2667.6999999999994 685.2 z M 2398.8999999999996 709.4000000000001 C 2358.7 702.4000000000001 2375.3999999999996 654.3000000000001 2375.8999999999996 625.6000000000001 C 2378.4999999999995 592.8000000000002 2384.4999999999995 560.3000000000002 2382.9999999999995 527.2000000000002 C 2386.9999999999995 386.3000000000002 2106.8999999999996 387.3000000000002 2086.6999999999994 511.20000000000016 C 2077.1999999999994 555.6000000000001 2111.5999999999995 577.4000000000002 2151.899999999999 576.3000000000002 C 2172.499999999999 577.0000000000002 2173.599999999999 576.0000000000002 2179.099999999999 555.8000000000002 C 2186.399999999999 523.3000000000002 2207.999999999999 505.20000000000016 2241.899999999999 513.8000000000002 C 2256.2999999999993 517.0000000000002 2264.499999999999 525.6000000000001 2267.6999999999994 539.8000000000002 C 2270.1999999999994 551.0000000000002 2269.4999999999995 562.3000000000002 2269.2999999999993 573.6000000000001 C 2269.1999999999994 581.7000000000002 2266.1999999999994 584.2000000000002 2257.6999999999994 584.5000000000001 C 2174.7999999999993 587.1000000000001 2057.7999999999993 609.7000000000002 2052.1999999999994 712.1000000000001 C 2049.9999999999995 751.2000000000002 2066.899999999999 784.6000000000001 2099.6999999999994 796.6000000000001 C 2159.7999999999993 820.4000000000001 2221.0999999999995 802.0000000000001 2260.1999999999994 749.7000000000002 C 2275.0999999999995 837.8000000000002 2412.399999999999 818.2000000000002 2411.7999999999993 728.3000000000002 C 2412.7999999999993 717.6000000000001 2410.2999999999993 712.0000000000002 2398.899999999999 709.4000000000002 L 2398.899999999999 709.4000000000002 z M 2260.7999999999997 651.9000000000001 C 2255.8999999999996 682.8000000000001 2233.9999999999995 716.4000000000001 2199.3999999999996 716.0000000000001 C 2188.2999999999997 715.8000000000001 2178.0999999999995 713.0000000000001 2172.3999999999996 702.3000000000001 C 2160.4999999999995 680.6 2179.2 657.2 2199.7999999999997 650.2 C 2215.7999999999997 643.5 2232.7999999999997 641.3000000000001 2248.4999999999995 640 C 2262.4999999999995 639.4 2262.9999999999995 639.9 2260.7999999999997 651.9 L 2260.7999999999997 651.9 z M 3965.2 426.30000000000007 C 3819.3999999999996 395.00000000000006 3702.6 487.70000000000005 3711.1 639.9000000000001 C 3707.4 713.1000000000001 3743 790.1000000000001 3822.4 801.9000000000001 C 3912.3 819.4000000000001 4011.9 789.4000000000001 4048.7000000000003 699.3000000000001 C 4090.3 606.4000000000001 4089.5000000000005 446.20000000000005 3965.2000000000003 426.30000000000007 L 3965.2000000000003 426.30000000000007 z M 3957.2 589 C 3955.2999999999997 636.2 3942 714.6 3880.1 715.9 C 3860.4 716 3846 707 3837.1 689.3 C 3819.6 647.0999999999999 3823.4 597 3839.5 554.8 C 3855.4 506.69999999999993 3932.1 492.59999999999997 3951.2 544 C 3956.2999999999997 557.7 3957.3999999999996 572 3957.2 589 z M 4647.8 653.3 C 4900.8 660.6999999999999 4917.3 412.49999999999994 4715.5 421.79999999999995 C 4463.2 425.99999999999994 4443.5 867.4 4738.6 801.5 C 4800.3 797.5 4864.8 721.8 4785.6 687.5 C 4752.700000000001 673.4 4750.6 716.3 4719.6 720.1 C 4677.400000000001 729 4644.400000000001 704 4640.6 660.9 C 4640 654.4 4642.3 653.3 4647.8 653.3 L 4647.8 653.3 z M 4643.3 592.0999999999999 C 4657.1 468.4999999999999 4769.400000000001 508.8999999999999 4725.5 572.3 C 4711.3 587.9 4692 592.9 4672.2 596.4 C 4665.4 595.9 4639.599999999999 604.6999999999999 4643.3 592.1 L 4643.3 592.1 z" stroke-linecap="round" />
</g>
		<g transform="matrix(1 0 0 1 -1700.3127074173 493.4088636136)" id="wXc4iRKWyj4XZGMKmhKG3"  >
<path style="stroke: none; stroke-width: 1; stroke-dasharray: none; stroke-linecap: butt; stroke-dashoffset: 0; stroke-linejoin: miter; stroke-miterlimit: 4; fill: rgb(50,32,27); fill-rule: nonzero; opacity: 1;" vector-effect="non-scaling-stroke"  transform=" translate(-623.8, -19.9)" d="M 0 19.9 C 0 8.909529999999998 279.28477 0 623.8 0 C 968.3152299999999 0 1247.6 8.90953 1247.6 19.9 C 1247.6 30.89047 968.3152299999999 39.8 623.8 39.8 C 279.28477 39.8 0 30.890469999999997 0 19.9 z" stroke-linecap="round" />
</g>
		<g transform="matrix(1 0 0 1 -1957.4127074173 17.4088636136)" id="vUy_ZgodwLEu2KvjXWRXX"  >
<radialGradient id="SVGID_7" gradientUnits="userSpaceOnUse" gradientTransform="matrix(1 0 0 -1 -0.1 1058.235)"  cx="482.986" cy="575.318" r="482.9" fx="482.986" fy="575.318">
<stop offset="42.4%" style="stop-color:rgb(130,183,220);stop-opacity: 1"/>
<stop offset="100%" style="stop-color:rgb(241,241,241);stop-opacity: 1"/>
</radialGradient>
<path style="stroke: none; stroke-width: 1; stroke-dasharray: none; stroke-linecap: butt; stroke-dashoffset: 0; stroke-linejoin: miter; stroke-miterlimit: 4; fill: url(#SVGID_7); fill-rule: nonzero; opacity: 1;" vector-effect="non-scaling-stroke"  transform=" translate(-482.9, -482.9)" d="M 0 482.9 C 0 216.20168999999999 216.20169 0 482.9 0 C 749.59831 0 965.8 216.20169 965.8 482.9 C 965.8 749.59831 749.59831 965.8 482.9 965.8 C 216.20168999999999 965.8 0 749.59831 0 482.9 z" stroke-linecap="round" />
</g>
		<g transform="matrix(1 0 0 1 -1957.3638680782 17.5088636136)" id="nq5p31wVv6uNMU0YdsluT"  >
<radialGradient id="SVGID_8" gradientUnits="userSpaceOnUse" gradientTransform="matrix(1 0 0 -1 0 1106.035)"  cx="515.91" cy="576.871" r="491.976" fx="486.886" fy="576.814">
<stop offset="26.900000000000002%" style="stop-color:rgb(17,64,132);stop-opacity: 1"/>
<stop offset="45%" style="stop-color:rgb(20,67,134);stop-opacity: 1"/>
<stop offset="57.9%" style="stop-color:rgb(29,76,141);stop-opacity: 1"/>
<stop offset="69.3%" style="stop-color:rgb(43,92,153);stop-opacity: 1"/>
<stop offset="79.7%" style="stop-color:rgb(65,114,169);stop-opacity: 1"/>
<stop offset="89.5%" style="stop-color:rgb(92,143,190);stop-opacity: 1"/>
<stop offset="98.7%" style="stop-color:rgb(125,177,216);stop-opacity: 1"/>
<stop offset="100%" style="stop-color:rgb(130,183,220);stop-opacity: 1"/>
</radialGradient>
<path style="stroke: none; stroke-width: 1; stroke-dasharray: none; stroke-linecap: butt; stroke-dashoffset: 0; stroke-linejoin: miter; stroke-miterlimit: 4; fill: url(#SVGID_8); fill-rule: nonzero; opacity: 1;" vector-effect="non-scaling-stroke"  transform=" translate(-483.0488393391, -530.8)" d="M 679.3 513.4 C 769.6999999999999 557.9 869.5999999999999 577.1 966 538 C 966.9 490.6 960.5 443.7 948.2 399.9 C 771.7 542.3 666.8 339.5 483.1 530 L 483.1 529.9 L 483.1 530 C 573.3000000000001 309.9 758.1 426.7 890.8 271.9 C 864.4 230.29999999999998 831.6999999999999 192.99999999999997 794.1999999999999 161.39999999999998 C 713.4999999999999 331.7 522.1999999999999 276.4 482.99999999999994 529.8 C 427 302.4 665.9 284.4 651.5 78 C 602.4 59.7 549.6 49.2 494.4 48 C 576.6999999999999 220.4 379.7 327.2 483 530 C 320.4 406.7 468.7 214.3 356.2 64.69999999999999 C 309.8 77.29999999999998 266.2 96.6 226.5 121.6 C 379.1 250.5 246.3 414.6 483 530 L 483.1 530 L 483.1 530.1 C 483.1 530.1 483.1 530.2 483 530.2 C 483 530.2 483 530.1 482.9 530.1 L 483 530.1 C 249 515.7 294.4 291.70000000000005 111.5 222.40000000000003 C 78.7 261.8 52.4 306.20000000000005 33.599999999999994 353.90000000000003 C 218.7 363.40000000000003 231 563.9000000000001 482.9 530.1 C 317.2 637.4 184.6 434 0.1 522 C -0.8 569.3 5.3999999999999995 616.3 17.5 660 C 174.8 526.4 328.1 709.6 482.9 530.1 C 387.79999999999995 754.1 209.79999999999995 630.4 75 788.6 C 101.4 830.2 134 867.6 171.5 899.3000000000001 C 250.7 729.5 444.4 782.9 483 530.6 C 537.6 760.5 299 775.3 314.5 983.5 C 365 1002.3 418.3 1012.4 472.2 1013.6 C 386.4 842.3 586.4 739.2 483.09999999999997 530.2 C 658.0999999999999 683.9000000000001 485.9 810 610.1999999999999 996.7 C 656.5999999999999 984 700.3 964.6 740.0999999999999 939.6 C 591.8999999999999 815.2 709.3 632.6 483.0999999999999 530.1 L 483.0999999999999 530 L 483.0999999999999 529.9 C 738.8999999999999 558.4 657.0999999999999 760.7 855.3999999999999 837.8 C 887.7999999999998 798.5999999999999 914.0999999999999 754.3 932.8999999999999 706.0999999999999 C 747.8999999999999 697.8999999999999 734.7999999999998 496.2999999999999 483.1999999999999 529.8999999999999 C 540.5999999999999 491.6999999999999 616.1999999999998 485.89999999999986 679.2999999999998 513.3999999999999 L 679.2999999999998 513.3999999999999 z M 483 529.9 C 483 530 483 530 483 529.9 C 483 530 483 530 483 529.9 C 483 530 483 530 483 529.9 z" stroke-linecap="round" />
</g>
		<g transform="matrix(1 0 0 1 -1357.912550567 -170.2354860547)" id="rhlHemyEZ_iDo91Rp4CBN"  >
<path style="stroke: none; stroke-width: 1; stroke-dasharray: none; stroke-linecap: butt; stroke-dashoffset: 0; stroke-linejoin: miter; stroke-miterlimit: 4; fill: rgb(255,255,255); fill-rule: nonzero; opacity: 1;" vector-effect="non-scaling-stroke"  transform=" translate(-1082.5001568503, -343.0556503317)" d="M 1393.5 501.4 C 1398.1 482.7 1400.1 418.79999999999995 1399 418.2 C 1398.8 409.5 1396.4 400.09999999999997 1397 391.8 C 1413 362 1425.5 327.70000000000005 1433.1 290.8 C 1440.1999999999998 235.20000000000002 1465.6999999999998 119.5 1386 114.10000000000002 C 1341 116.50000000000003 1305.6 133.8 1261 158.40000000000003 C 1246.3 147.30000000000004 1230.8 137.30000000000004 1214.4 129.00000000000003 C 1188 115.40000000000003 1159.7 105.20000000000003 1130.6000000000001 99.30000000000003 C 1101.5000000000002 93.20000000000003 1071.4 91.20000000000003 1041.6000000000001 93.20000000000003 C 1023.1000000000001 94.60000000000004 1004.7000000000002 97.60000000000004 986.7000000000002 101.60000000000004 C 955.5000000000001 61.500000000000036 929.9000000000002 31.400000000000034 889.5000000000001 11.400000000000034 C 813.8000000000001 -15.399999999999967 791.1000000000001 102.40000000000003 775.9000000000001 156.60000000000002 C 768.4000000000001 193.3 766.5000000000001 229.3 769.4000000000001 262.8 C 764.8000000000001 270 760.7 277.5 756.7 285.1 C 738.8000000000001 317.5 713.9000000000001 404.1 725.2 450.20000000000005 C 730.2 476.30000000000007 740.6 501.20000000000005 755.3000000000001 524 C 759.1 529.8 762.9000000000001 535.3 767.2 540.8 C 776.2 551.8 786.2 562 797.1 571.0999999999999 C 857.2 619.0999999999999 936.5 650.3 1013.3 664.8 C 1089.5 682.0999999999999 1174.7 684.5 1248.8 664.3 C 1262.3 660.3 1275.5 655 1288 648.5 C 1294 645.3 1299.8 641.5 1305.5 637.8 L 1314.1 631.5999999999999 C 1315.6 630.4999999999999 1317.1 629.3 1318.5 628.1999999999999 C 1325.4 622.8 1331.4 617.4 1336.7 612.1999999999999 L 1340.7 608.1999999999999 C 1341.7 607.1999999999999 1342.6000000000001 606.1999999999999 1343.5 605.3 L 1344.4 604.4 C 1345.3000000000002 603.5 1346.1000000000001 602.5 1346.9 601.6 C 1347.2 601.3000000000001 1347.4 601 1347.7 600.7 C 1349.3 598.9000000000001 1350.6000000000001 597.3000000000001 1352.1000000000001 595.5 C 1353.0000000000002 594.5 1353.8000000000002 593.5 1354.6000000000001 592.5 C 1354.8000000000002 592.3 1355.0000000000002 592.1 1355.1000000000001 591.8 C 1355.6000000000001 591.0999999999999 1356.2 590.4 1356.7 589.8 C 1356.9 589.5999999999999 1357 589.4 1357.1000000000001 589.1999999999999 C 1357.8000000000002 588.4 1358.2 587.6999999999999 1358.8000000000002 586.9999999999999 C 1359.2000000000003 586.4999999999999 1359.4 585.9999999999999 1359.8000000000002 585.5999999999999 C 1360.1000000000001 585.1999999999999 1360.4 584.6999999999999 1360.7000000000003 584.3999999999999 C 1360.8000000000002 584.2999999999998 1360.9000000000003 584.1999999999998 1360.9000000000003 584.0999999999999 L 1361.5000000000002 583.1999999999999 C 1361.8000000000002 582.8 1361.9000000000003 582.4 1362.2000000000003 582.1999999999999 L 1362.2000000000003 582.1999999999999 C 1376.7000000000003 557.0999999999999 1387.9000000000003 529.9999999999999 1393.5000000000002 501.3999999999999 L 1393.5000000000002 501.3999999999999 z" stroke-linecap="round" />
</g>
		<g transform="matrix(1 0 0 1 -1333.6465884468 -9.1231665491)" id="1tYY97pmrKS8-XYyGps8y"  >
<path style="stroke: none; stroke-width: 1; stroke-dasharray: none; stroke-linecap: butt; stroke-dashoffset: 0; stroke-linejoin: miter; stroke-miterlimit: 4; fill: rgb(255,167,38); fill-rule: nonzero; opacity: 1;" vector-effect="non-scaling-stroke"  transform=" translate(-1106.7661189705, -504.1679698373)" d="M 1268 687.1 C 1252.2 658.8000000000001 1155.5 677.6 1080.3 697.3000000000001 C 1036 676.4000000000001 843.3 704.4000000000001 839.5 704.2 L 859.8 766.2 L 828 772.7 L 840.1 778.3000000000001 C 834.3000000000001 780.1 773.7 806.5000000000001 773.1 872.1 C 760.1 1063.2 1053.9 980.8000000000001 1142.1 1000.1 C 1270.1999999999998 1023.6 1315 761.2 1268 687.1 z M 837.6 441.2 C 877.1 443.09999999999997 1019 317.9 1078.8 345.6 C 1195.7 368.6 1255.1 651.9000000000001 1390.3 515 C 1399.7 481.7 1400.3999999999999 422.7 1397.7 403.2 C 1401.2 367.09999999999997 1428.5 333.4 1432.9 291.5 C 1464.4 126.19999999999999 1421.5 64.9 1261.3000000000002 158.1 C 1246.5000000000002 148.7 1230.9 136.79999999999998 1214.3000000000002 129 C 1161.4 101.6 1101.1000000000001 89.1 1041.5000000000002 93.2 C 1024.1000000000001 94.5 1006.7000000000003 97.3 989.6000000000003 100.9 C 946.9000000000002 62.60000000000001 886.3000000000003 -37.599999999999994 827.8000000000002 28.60000000000001 C 781.5000000000002 92.7 763.3000000000002 185.5 769.3000000000002 262.8 C 767.5000000000002 265.7 765.5000000000002 268.7 763.9000000000002 271.8 C 722.7000000000002 339.1 694.4000000000002 454.9 837.6000000000003 441.20000000000005 L 837.6000000000003 441.20000000000005 z M 1183.1 255.2 C 1203 220.6 1239.3999999999999 231.2 1252.3999999999999 269.8 C 1255.4999999999998 315.90000000000003 1161.9999999999998 302.90000000000003 1183.1 255.20000000000002 L 1183.1 255.20000000000002 z M 929.7 203 C 956.8000000000001 172.8 994.6 177.5 999.1 217 C 999.7 269.2 908.5 244.1 929.7 203 z M 1481.5 815.1 C 1481.3 774.9 1447.2 701.2 1418 688.7 C 1427.7 778 1382 871.8000000000001 1277.6 872.1 C 1277.3999999999999 871 1262 920.5 1262 920.5 L 1241.6 954.4 C 1307.6999999999998 1005.6 1502.1 926 1481.5 815.0999999999999 z" stroke-linecap="round" />
</g>
		<g transform="matrix(1 0 0 1 -1414.9361152804 411.6980956007)" id="DL2vHNLngaDZmCz2Vhb9d"  >
<path style="stroke: none; stroke-width: 1; stroke-dasharray: none; stroke-linecap: butt; stroke-dashoffset: 0; stroke-linejoin: miter; stroke-miterlimit: 4; fill: rgb(242,130,0); fill-rule: nonzero; opacity: 1;" vector-effect="non-scaling-stroke"  transform=" translate(-1025.4765921368, -924.9892319871)" d="M 1276.5 859.2 C 1245.3 977.1 955.1 951.8000000000001 871.6 951.7 C 816.7 951.7 781.8000000000001 903.3000000000001 778.6 848.4000000000001 C 734.9 1068.3000000000002 1040.3 982.4000000000001 1151.3 996.3000000000001 C 1230.6 1011.7 1271.8 892.2 1276.6 855.4000000000001" stroke-linecap="round" />
</g>
		<g transform="matrix(1 0 0 1 -1329.3127074173 173.5937593926)" id="mMLCoEgpxany2lgtNPqHf"  >
<path style="stroke: none; stroke-width: 1; stroke-dasharray: none; stroke-linecap: butt; stroke-dashoffset: 0; stroke-linejoin: miter; stroke-miterlimit: 4; fill: rgb(192,55,54); fill-rule: nonzero; opacity: 1;" vector-effect="non-scaling-stroke"  transform=" translate(-1111.1, -686.884895779)" d="M 1289.3 656 L 1284.1 692.6 C 1251.1999999999998 709.1 1169.8999999999999 720.9 1134.6 721.6 C 1115.1999999999998 694 953.0999999999999 690.1 932.8999999999999 696 C 951.0999999999999 677.2 938.0999999999999 644.5 968.9999999999999 653.8 C 1080 681 1196.3999999999999 684.4 1289.3 656" stroke-linecap="round" />
</g>
		<g transform="matrix(1 0 0 1 -1449.1127074173 306.9090250325)" id="CGORfJMmQI6KLDdqUNRec"  >
<path style="stroke: none; stroke-width: 1; stroke-dasharray: none; stroke-linecap: butt; stroke-dashoffset: 0; stroke-linejoin: miter; stroke-miterlimit: 4; fill: rgb(242,130,0); fill-rule: nonzero; opacity: 1;" vector-effect="non-scaling-stroke"  transform=" translate(-991.3, -820.2001614189)" d="M 851.7 773.7 C 851.7 773.7 1009.3000000000001 831.2 1141.6 799 C 1125.8999999999999 924.3 866.3 841.5 840.9999999999999 819.4 L 851.6999999999999 773.6999999999999 L 851.6999999999999 773.6999999999999 z" stroke-linecap="round" />
</g>
		<g transform="matrix(1 0 0 1 -1383.9013389576 16.2696183197)" id="y0Ezd-vD-RcX9ytfCjtc7"  >
<path style="stroke: none; stroke-width: 1; stroke-dasharray: none; stroke-linecap: butt; stroke-dashoffset: 0; stroke-linejoin: miter; stroke-miterlimit: 4; fill: rgb(224,224,224); fill-rule: nonzero; opacity: 1;" vector-effect="non-scaling-stroke"  transform=" translate(-1056.5113684596, -529.560754706)" d="M 1022.7 619.5 C 789.5 564.3 735.1 452.4 725.8000000000001 380.1 C 721.9000000000001 403.40000000000003 722.7 427.3 725.4000000000001 450.6 C 730.4000000000001 476.70000000000005 740.8000000000001 501.6 755.5000000000001 524.4 C 759.3000000000001 530.1999999999999 763.1000000000001 535.6999999999999 767.4000000000001 541.1999999999999 C 776.4000000000001 552.1999999999999 786.4000000000001 562.4 797.3000000000001 571.4999999999999 C 857.4000000000001 619.4999999999999 936.7 650.6999999999999 1013.5 665.1999999999999 C 1089.7 682.4999999999999 1174.9 684.9 1249 664.6999999999999 C 1262.5 660.6999999999999 1275.7 655.4 1288.2 648.9 C 1294.2 645.6999999999999 1300 641.9 1305.7 638.1999999999999 L 1314.3 631.9999999999999 C 1315.8 630.8999999999999 1317.3 629.6999999999999 1318.7 628.5999999999999 C 1325.6000000000001 623.1999999999999 1331.6000000000001 617.8 1336.9 612.5999999999999 L 1340.9 608.5999999999999 C 1341.9 607.5999999999999 1342.8000000000002 606.5999999999999 1343.7 605.6999999999999 L 1344.6000000000001 604.8 C 1345.5000000000002 603.9 1346.3000000000002 602.9 1347.1000000000001 602 C 1347.4 601.7 1347.6000000000001 601.4 1347.9 601.1 C 1349.5 599.3000000000001 1350.8000000000002 597.7 1352.3000000000002 595.9 C 1353.2000000000003 594.9 1354.0000000000002 593.9 1354.8000000000002 592.9 C 1355.0000000000002 592.6999999999999 1355.2000000000003 592.5 1355.3000000000002 592.1999999999999 C 1355.8000000000002 591.4999999999999 1356.4 590.8 1356.9 590.1999999999999 C 1357.1000000000001 589.9999999999999 1357.2 589.8 1357.3000000000002 589.5999999999999 C 1358.0000000000002 588.8 1358.4 588.0999999999999 1359.0000000000002 587.3999999999999 C 1359.4000000000003 586.8999999999999 1359.6000000000001 586.3999999999999 1360.0000000000002 585.9999999999999 C 1360.3000000000002 585.5999999999999 1360.6000000000001 585.0999999999999 1360.9000000000003 584.7999999999998 C 1361.0000000000002 584.6999999999998 1361.1000000000004 584.5999999999998 1361.1000000000004 584.4999999999999 L 1361.7000000000003 583.5999999999999 C 1362.0000000000002 583.1999999999999 1362.1000000000004 582.8 1362.4000000000003 582.5999999999999 L 1362.4000000000003 582.5999999999999 C 1374.1000000000004 562.1999999999999 1384.2000000000003 540.5999999999999 1389.9000000000003 517.5999999999999 C 1352.9000000000003 580.0999999999999 1258.6000000000004 661.3 1022.7000000000003 619.4999999999999 L 1022.7000000000003 619.4999999999999 z" stroke-linecap="round" />
</g>
		<g transform="matrix(1 0 0 1 -1446.5121210063 -446.9358454613)" id="bfq-0cmQhCt5j_tJukfro"  >
<path style="stroke: none; stroke-width: 1; stroke-dasharray: none; stroke-linecap: butt; stroke-dashoffset: 0; stroke-linejoin: miter; stroke-miterlimit: 4; fill: rgb(255,204,97); fill-rule: nonzero; opacity: 1;" vector-effect="non-scaling-stroke"  transform=" translate(-993.900586411, -66.3552909251)" d="M 1130.1 99.7 L 1125.3999999999999 122.30000000000001 C 1035.1999999999998 103.10000000000001 977.7999999999998 126.10000000000001 977.7999999999998 126.10000000000001 C 948.1999999999998 68.20000000000002 900.8999999999999 34.10000000000001 874.6999999999998 22.60000000000001 C 838.7999999999998 2.800000000000008 867.5999999999998 4.1000000000000085 889.3999999999999 12.000000000000009 C 929.6999999999998 32.00000000000001 955.4999999999999 62.10000000000001 986.5999999999999 102.20000000000002 C 1033.3999999999999 91.20000000000002 1082.6 89.90000000000002 1129.8 99.70000000000002 C 1129.6 99.60000000000002 1129.8999999999999 99.60000000000002 1130.1 99.70000000000002 z" stroke-linecap="round" />
</g>
		<g transform="matrix(1 0 0 1 -1586.5713425415 -375.5947488733)" id="JbUEdojybVEHqTpWGFN5A"  >
<path style="stroke: none; stroke-width: 1; stroke-dasharray: none; stroke-linecap: butt; stroke-dashoffset: 0; stroke-linejoin: miter; stroke-miterlimit: 4; fill: rgb(225,110,0); fill-rule: nonzero; opacity: 1;" vector-effect="non-scaling-stroke"  transform=" translate(-853.8413648757, -137.6963875131)" d="M 938.9 117.6 C 869.1999999999999 145.7 808.5999999999999 198.39999999999998 769.4 263.4 C 765.3 180.2 780.6 70.69999999999999 846.3 12.399999999999977 C 877 5.399999999999977 925.0999999999999 90.59999999999998 938.9 117.59999999999998 L 938.9 117.59999999999998 z" stroke-linecap="round" />
</g>
		<g transform="matrix(1 0 0 1 -1569.8627074173 -390.0034859733)" id="ryA1oou3LUbmONe8Nf6yu"  >
<path style="stroke: none; stroke-width: 1; stroke-dasharray: none; stroke-linecap: butt; stroke-dashoffset: 0; stroke-linejoin: miter; stroke-miterlimit: 4; fill: rgb(201,79,0); fill-rule: nonzero; opacity: 1;" vector-effect="non-scaling-stroke"  transform=" translate(-870.55, -123.287650413)" d="M 938.9 117.6 C 886.6 138.79999999999998 839 173.7 802.2 217.7 C 807.3000000000001 154.5 823.9000000000001 86.89999999999998 861.3000000000001 36.099999999999994 C 880.1 1.7999999999999972 928.9000000000001 99.8 938.9000000000001 117.6 z" stroke-linecap="round" />
</g>
		<g transform="matrix(1 0 0 1 -1169.6061430296 -371.3411363864)" id="5MLCrvdM_Ws2yDKKxW0n_"  >
<path style="stroke: none; stroke-width: 1; stroke-dasharray: none; stroke-linecap: butt; stroke-dashoffset: 0; stroke-linejoin: miter; stroke-miterlimit: 4; fill: rgb(255,204,97); fill-rule: nonzero; opacity: 1;" vector-effect="non-scaling-stroke"  transform=" translate(-1270.8065643877, -141.95)" d="M 1130.1 99.7 L 1125.3999999999999 122.30000000000001 C 1215.8 140.5 1259.3999999999999 184.20000000000002 1259.3999999999999 184.20000000000002 C 1309.4999999999998 142.8 1366.4999999999998 130.20000000000002 1395.1 130 C 1436.1 126 1408.6999999999998 116 1385.8 114.5 C 1340.8 116.9 1305.3999999999999 134.2 1260.8 158.8 C 1246.1 147.70000000000002 1230.6 137.70000000000002 1214.2 129.4 C 1187.7 115.80000000000001 1159.3 105.4 1130.1000000000001 99.7 L 1130.1000000000001 99.7 z" stroke-linecap="round" />
</g>
		<g transform="matrix(1 0 0 1 -1069.9507820486 -252.6512698902)" id="ivDOaqDchrdoKGL-ILxmN"  >
<path style="stroke: none; stroke-width: 1; stroke-dasharray: none; stroke-linecap: butt; stroke-dashoffset: 0; stroke-linejoin: miter; stroke-miterlimit: 4; fill: rgb(225,110,0); fill-rule: nonzero; opacity: 1;" vector-effect="non-scaling-stroke"  transform=" translate(-1370.4619253687, -260.6398664962)" d="M 1298.5 191.9 C 1351.3 245.4 1386.1 317.8 1396.3 393 C 1433.1 318.3 1462.3999999999999 211.5 1425.2 131.89999999999998 C 1399.6000000000001 113.09999999999998 1321.9 172.7 1298.5 191.89999999999998 z" stroke-linecap="round" />
</g>
		<g transform="matrix(1 0 0 1 -1087.0192860192 -276.1493511096)" id="WjB-m5ptBQ14oM0X8-A_l"  >
<path style="stroke: none; stroke-width: 1; stroke-dasharray: none; stroke-linecap: butt; stroke-dashoffset: 0; stroke-linejoin: miter; stroke-miterlimit: 4; fill: rgb(201,79,0); fill-rule: nonzero; opacity: 1;" vector-effect="non-scaling-stroke"  transform=" translate(-1353.3934213981, -237.1417852768)" d="M 1298.5 191.9 C 1338.1 232.10000000000002 1367.9 283 1384.3 338 C 1404.7 277.9 1416.1 209.3 1402.1 147.8 C 1396.6999999999998 109.10000000000001 1315.8 179.3 1298.5 191.9 L 1298.5 191.9 z" stroke-linecap="round" />
</g>
		<g transform="matrix(1 0 0 1 -1604.2070235533 252.4994726553)" id="f0FjZ5FdwVy0UzlPfV8T4"  >
<path style="stroke: none; stroke-width: 1; stroke-dasharray: none; stroke-linecap: butt; stroke-dashoffset: 0; stroke-linejoin: miter; stroke-miterlimit: 4; fill: rgb(255,255,255); fill-rule: nonzero; opacity: 1;" vector-effect="non-scaling-stroke"  transform=" translate(-836.2056838639, -765.7906090416)" d="M 857.1 826.7 C 857.1 826.7 897.4 771.8000000000001 858.7 704.9000000000001 C 768.7 703.3000000000001 784.8000000000001 804.4000000000001 857.1 826.7 z" stroke-linecap="round" />
</g>
		<g transform="matrix(1 0 0 1 -1603.6872414979 273.3090720339)" id="NW5q9f0W4-4ULdfwalGn7"  >
<path style="stroke: none; stroke-width: 1; stroke-dasharray: none; stroke-linecap: butt; stroke-dashoffset: 0; stroke-linejoin: miter; stroke-miterlimit: 4; fill: rgb(224,224,224); fill-rule: nonzero; opacity: 1;" vector-effect="non-scaling-stroke"  transform=" translate(-836.7254659194, -786.6002084202)" d="M 874.3 781 C 870.9 780.1 816.6999999999999 766.1 799.6999999999999 746.6 C 794.9 780.6 822.1999999999999 815.8000000000001 856.9999999999999 826.6 C 857.0999999999999 826.7 870.1999999999999 808.8000000000001 874.2999999999998 781 L 874.2999999999998 781 z" stroke-linecap="round" />
</g>
		<g transform="matrix(1 0 0 1 -1074.8019884226 317.7332766185)" id="dVt_dSF6X0avfnH4bQg5n"  >
<path style="stroke: none; stroke-width: 1; stroke-dasharray: none; stroke-linecap: butt; stroke-dashoffset: 0; stroke-linejoin: miter; stroke-miterlimit: 4; fill: rgb(255,255,255); fill-rule: nonzero; opacity: 1;" vector-effect="non-scaling-stroke"  transform=" translate(-1365.6107189946, -831.0244130049)" d="M 1422.5 693.6 C 1483.9 789.1 1422.3 971.1 1262 920.5 C 1180.6 1023.5 1633.6 966.2 1422.5 693.6 z" stroke-linecap="round" />
</g>
		<g transform="matrix(1 0 0 1 -1338.1566175796 -9.5941604383)" id="8CZCOYn2xglgq2_x_kpnH"  >
<path style="stroke: none; stroke-width: 1; stroke-dasharray: none; stroke-linecap: butt; stroke-dashoffset: 0; stroke-linejoin: miter; stroke-miterlimit: 4; fill: rgb(50,32,27); fill-rule: nonzero; opacity: 1;" vector-effect="non-scaling-stroke"  transform=" translate(-1102.2560898377, -503.696975948)" d="M 938.5 327.7 C 940.2 301.59999999999997 918.1 277.9 891.9 276.5 C 849.6 272.2 816.3 336.6 862.9 355.9 C 882.1 364.59999999999997 937.6 368.7 938.5 327.7 z M 1189.7 417.1 C 1219.2 437.6 1257.7 441.6 1270.5 411.3 C 1279.4 386.90000000000003 1265.4 357.3 1241.1 348.7 C 1201.3 331.7 1150 385.5 1189.6999999999998 417.1 L 1189.6999999999998 417.1 z M 965.2 480.20000000000005 C 965.1 480.20000000000005 965.1 480.20000000000005 965.2 480.20000000000005 C 965.1 480.20000000000005 954.7 554.3000000000001 1011.1 570.9000000000001 L 1011.1 571.0000000000001 C 1069.5 578.2000000000002 1089.3 506.0000000000001 1089.3 506.0000000000001 L 1089.2 505.9000000000001 C 1105 504.7000000000001 1128.9 482.7000000000001 1134.3 472.30000000000007 C 1141.3 461.70000000000005 1125 451.30000000000007 1118.2 461.9000000000001 C 1100.6000000000001 487.6000000000001 1071.6000000000001 503.2000000000001 1045.7 460.2000000000001 C 1054.3 459.9000000000001 1062 458.0000000000001 1068.5 454.7000000000001 C 1164.7 396.7000000000001 1013.7 341.7000000000001 990.9 393.6000000000001 C 985.1999999999999 428.30000000000007 1008.1 447.80000000000007 1023.4 455.50000000000006 C 982.3 484.80000000000007 962 459.00000000000006 956 428.30000000000007 C 955.1 423.1000000000001 950.2 419.50000000000006 945 420.4000000000001 C 931.9 424.5000000000001 937.4 435.7000000000001 943.8 452.9000000000001 C 949.0999999999999 465.0000000000001 956.5 474.30000000000007 965.1999999999999 480.2000000000001 L 965.1999999999999 480.2000000000001 z M 1479 771.1 C 1469.2 736.5 1416.8 649.3000000000001 1411.1 686.5 C 1422.8999999999999 774.1 1380.6 854 1285.1 863.5 C 1297.1 821.1 1288.8999999999999 715.2 1283.3 701.4 C 1288.1 699.5 1287.8999999999999 699.5 1291.3 697.9 L 1294.1 653.4 L 1297.8999999999999 651.1999999999999 C 1298.6 650.9 1299.3999999999999 650.3 1299.9999999999998 649.9999999999999 C 1300.5999999999997 649.4999999999999 1301.3999999999999 648.9999999999999 1302.0999999999997 648.6999999999999 C 1302.7999999999997 648.3 1303.4999999999998 647.9 1304.0999999999997 647.4 L 1304.1999999999996 647.4 C 1305.3999999999996 646.6999999999999 1306.7999999999995 645.9 1307.8999999999996 645.1 C 1308.5999999999997 644.8000000000001 1309.2999999999997 644.1 1309.9999999999995 643.8000000000001 C 1310.6999999999996 643.4000000000001 1311.1999999999996 642.9000000000001 1311.8999999999996 642.5000000000001 L 1315.2999999999997 640.1000000000001 C 1315.2999999999997 640.0000000000001 1315.4999999999998 640.0000000000001 1315.4999999999998 640.0000000000001 C 1324.9999999999998 633.1000000000001 1333.7999999999997 625.7000000000002 1342.2999999999997 617.4000000000001 C 1343.7999999999997 616.0000000000001 1345.0999999999997 614.6000000000001 1346.3999999999996 613.3000000000001 C 1346.4999999999995 613.3000000000001 1346.4999999999995 613.2 1346.4999999999995 613.2 L 1350.2999999999995 609.2 C 1351.4999999999995 608 1352.5999999999995 606.7 1353.6999999999996 605.5 C 1353.7999999999995 605.5 1353.7999999999995 605.4 1353.7999999999995 605.4 C 1354.5999999999995 604.6 1355.2999999999995 603.6999999999999 1356.0999999999995 602.8 C 1356.1999999999994 602.8 1356.1999999999994 602.6999999999999 1356.1999999999994 602.6999999999999 C 1356.7999999999993 601.9999999999999 1357.5999999999995 601.0999999999999 1358.2999999999993 600.1999999999999 L 1358.2999999999993 600.0999999999999 C 1358.4999999999993 599.8999999999999 1358.7999999999993 599.4999999999999 1358.9999999999993 599.3 C 1361.4999999999993 596.4 1363.7999999999993 593.0999999999999 1366.1999999999994 590.0999999999999 C 1366.2999999999993 590.0999999999999 1366.4999999999993 589.6999999999999 1366.5999999999995 589.5999999999999 C 1366.9999999999995 589.1999999999999 1367.1999999999994 588.8 1367.4999999999995 588.3999999999999 C 1389.7999999999995 553.3999999999999 1402.2999999999995 513.0999999999999 1404.8999999999996 471.59999999999985 C 1408.1999999999996 420.59999999999985 1407.1999999999996 424.09999999999985 1404.2999999999997 394.1999999999998 C 1440.2999999999997 327.1999999999998 1470.3999999999996 196.09999999999982 1431.9999999999998 128.49999999999983 C 1397.4999999999998 80.99999999999983 1306.3999999999999 126.89999999999984 1262.0999999999997 150.69999999999982 C 1256.6999999999996 146.69999999999982 1251.1999999999996 142.99999999999983 1245.5999999999997 139.2999999999998 C 1245.5999999999997 139.19999999999982 1245.4999999999998 139.19999999999982 1245.4999999999998 139.19999999999982 C 1229.7999999999997 128.8999999999998 1212.9999999999998 120.19999999999982 1195.7999999999997 112.69999999999982 C 1131.4999999999998 85.19999999999982 1058.3999999999996 78.79999999999981 990.1999999999997 94.39999999999982 C 958.4999999999997 54.79999999999982 893.5999999999997 -23.700000000000173 842.4999999999998 6.899999999999821 C 779.4999999999998 53.69999999999982 756.6999999999998 187.69999999999982 761.9999999999998 263.49999999999983 C 748.0999999999998 288.09999999999985 748.4999999999998 285.29999999999984 731.6999999999998 332.39999999999986 C 718.0999999999998 370.6999999999999 714.0999999999998 411.09999999999985 719.3999999999999 451.29999999999984 C 719.9999999999999 454.29999999999984 720.4999999999999 457.59999999999985 721.1999999999998 460.6999999999998 C 725.6999999999998 478.8999999999998 732.6999999999998 496.8999999999998 741.6999999999998 513.3999999999999 C 742.6999999999998 514.9999999999999 743.5999999999998 516.8999999999999 744.5999999999998 518.4999999999999 C 745.2999999999998 519.5999999999999 746.0999999999998 520.8999999999999 746.7999999999998 522.2999999999998 C 747.7999999999998 524.2999999999998 749.1999999999998 526.0999999999998 750.1999999999998 528.0999999999998 C 751.8999999999999 530.6999999999998 753.3999999999999 533.1999999999998 755.1999999999998 535.6999999999998 C 755.6999999999998 536.2999999999998 756.0999999999998 536.8999999999999 756.4999999999998 537.4999999999998 C 756.9999999999998 538.0999999999998 757.4999999999998 538.9999999999998 758.0999999999998 539.5999999999998 C 759.3999999999997 541.5999999999998 760.9999999999998 543.3999999999997 762.3999999999997 545.2999999999998 C 762.7999999999997 545.8999999999999 763.2999999999997 546.5999999999998 763.7999999999997 547.0999999999998 C 764.3999999999997 547.6999999999998 764.8999999999997 548.3999999999997 765.3999999999997 548.9999999999998 C 765.3999999999997 549.0999999999998 765.4999999999998 549.0999999999998 765.4999999999998 549.1999999999998 L 770.5999999999998 555.0999999999998 C 773.8776684762906 558.8773356866161 777.3140906533818 562.5139377963533 780.8999999999997 565.9999999999998 C 824.6999999999997 606.6999999999998 884.0999999999998 635.4999999999998 942.9999999999998 654.5999999999998 C 941.3999999999997 661.5999999999998 937.9999999999998 674.4999999999998 931.4999999999998 689.9999999999998 L 838.9999999999998 697.7999999999997 C 825.6999999999998 698.8999999999997 813.4999999999998 704.9999999999998 804.6999999999998 714.9999999999998 C 784.5999999999998 736.8999999999997 791.4999999999998 771.5999999999998 801.7999999999998 795.7999999999997 C 754.9999999999999 836.4999999999998 759.1999999999998 896.4999999999998 785.3999999999999 951.9999999999998 C 800.5999999999999 985.3999999999997 835.7999999999998 1007.6999999999998 872.4999999999999 1007.3999999999997 L 1156.6 1007.3999999999997 C 1192.6999999999998 1007.9999999999998 1222.3999999999999 985.3999999999997 1244 958.4999999999998 C 1269.3 971.6999999999998 1336.5 982.0999999999998 1373.4 966.9999999999998 C 1453.5 942.1999999999998 1509.3000000000002 852.7999999999997 1479 771.0999999999998 z M 1349 610 C 1349 610 1349 609.9 1349.1 609.9 L 1349 610 z M 1417.3 132.39999999999998 C 1454.2 188.2 1427.8 311.4 1399.5 371.59999999999997 C 1386.6 304.9 1354.8 241.59999999999997 1308.2 192.29999999999995 C 1339.9 165.39999999999995 1377.4 144.39999999999995 1417.3 132.39999999999995 z M 782.6999999999999 157.39999999999998 C 794.1999999999999 107.79999999999998 812.9 40.79999999999998 853.4 16.19999999999999 C 885.1999999999999 42.999999999999986 911.6 76.89999999999999 929.9 114.1 C 867.6 141 813.1999999999999 186.39999999999998 774.9 242.6 C 774.1999999999999 214.6 776.8 186.1 782.6999999999999 157.39999999999998 L 782.6999999999999 157.39999999999998 z M 910.3 628.4 C 869.5 612.1 831 590.3 799.5 564.8 L 799.4 564.8 C 798.1 563.8 796.8 562.5999999999999 795.6 561.5 C 794.9 561.1 794.4 560.4 793.7 559.9 C 785.8000000000001 553.1 778.6 545.3 772.1 537.1999999999999 C 771.6 536.6999999999999 771.2 536.0999999999999 770.8000000000001 535.5999999999999 C 770.5000000000001 534.9999999999999 770.0000000000001 534.3999999999999 769.5000000000001 533.8 C 769.5000000000001 533.6999999999999 769.4000000000001 533.6999999999999 769.4000000000001 533.5999999999999 C 768.5000000000001 532.5999999999999 767.7 531.3999999999999 766.9000000000001 530.3 C 766.8000000000001 530.3 766.8000000000001 530.1999999999999 766.8000000000001 530.1999999999999 C 766.2771366230054 529.5744896658904 765.8087611714673 528.9053818779788 765.4000000000001 528.1999999999999 C 765.0000000000001 527.6999999999999 764.7 527.0999999999999 764.3000000000001 526.5999999999999 C 763.8000000000001 526.0999999999999 763.5000000000001 525.3 763.0000000000001 524.6999999999999 C 762.9000000000001 524.6999999999999 762.9000000000001 524.5999999999999 762.9000000000001 524.5999999999999 C 762.5000000000001 524.0999999999999 762.2 523.4999999999999 761.8000000000001 522.9999999999999 C 761.5000000000001 522.2999999999998 760.9000000000001 521.6999999999999 760.6 520.9999999999999 C 760.3000000000001 520.4999999999999 759.8000000000001 519.8999999999999 759.6 519.2999999999998 C 757.3000000000001 515.3999999999999 754.9 511.59999999999985 752.8000000000001 507.59999999999985 C 746.0000000000001 495.29999999999984 740.6 481.99999999999983 736.2 468.6999999999999 C 735.5 466.6999999999999 735 464.2999999999999 734.4000000000001 461.9999999999999 C 734.2 460.5999999999999 733.6000000000001 459.39999999999986 733.5000000000001 457.9999999999999 L 733.5000000000001 457.89999999999986 C 733.3113649810327 457.06397998505946 733.1113464119674 456.23056928062033 732.9000000000001 455.39999999999986 C 732.5000000000001 454.1999999999999 732.4000000000001 452.89999999999986 732.1000000000001 451.6999999999999 C 726.3000000000002 413.09999999999985 730.5000000000001 374.1999999999999 743.6000000000001 337.4999999999999 C 777.3 234.9 847 164.4 941.3 123.8 C 957.8 119.5 909.3 56 902.5 47.39999999999999 C 893 35.69999999999999 882.5 24.59999999999999 871.4 14.399999999999991 C 876.6999999999999 15.299999999999992 882 16.79999999999999 886.9 18.499999999999993 C 923.1 35.89999999999999 952.3 69 980.5 105.5 C 982 108.2 985.2 109.7 988.1 108.8 C 996.8000000000001 106.6 1005.6 104.89999999999999 1014.5 103.6 C 1015.7 103.39999999999999 1017 103.19999999999999 1018.2 103.1 C 1033.8 100.69999999999999 1049.6000000000001 99.8 1065.4 99.89999999999999 C 1083.9 99.8 1102.3000000000002 101.69999999999999 1120.5 104.89999999999999 L 1129.2 106.6 C 1139.6000000000001 109 1150 111.39999999999999 1160.2 114.6 C 1162.5 115.19999999999999 1164.8 116 1167 116.69999999999999 C 1174.4 119.29999999999998 1181.8 122.19999999999999 1189.1 125.1 C 1203.8 131.2 1217.6999999999998 138.79999999999998 1231.5 146.7 L 1231.6 146.79999999999998 C 1238.1999999999998 151.1 1245 155.29999999999998 1251.3 160.1 C 1253 161.5 1255 162.79999999999998 1256.7 164.29999999999998 C 1259 166.1 1262.5 166.2 1264.9 164.2 C 1306.4 141.7 1360 114.39999999999999 1401.5 123.69999999999999 C 1387.2 128.7 1373.2 134.7 1359.7 141.7 C 1335.9 154 1313.8 169.2 1294.1000000000001 186.89999999999998 C 1292.8000000000002 188.2 1292.0000000000002 189.89999999999998 1291.9 191.7 C 1348.2 257.4 1387.3000000000002 329 1392.2 418.79999999999995 C 1392.3 420.09999999999997 1392.9 443.59999999999997 1390.5 471.19999999999993 C 1388.1 509.5999999999999 1376.8 546.0999999999999 1357 579.0999999999999 C 1356.9 579.0999999999999 1356.9 579.1999999999999 1356.9 579.1999999999999 C 1356.8000000000002 579.3 1356.7 579.4999999999999 1356.5 579.8 C 1356.3 580 1356.2 580.3 1355.9 580.6999999999999 C 1355.8000000000002 580.6999999999999 1355.8000000000002 580.8 1355.8000000000002 580.8 L 1355.6000000000001 581 L 1355.6000000000001 581.1 C 1355.2 581.5 1354.8000000000002 582.2 1354.4 582.7 C 1352.8000000000002 584.7 1351.2 587 1349.4 589 C 1348.7 589.8 1348.2 590.5 1347.7 591.1 C 1347.6000000000001 591.1 1347.6000000000001 591.2 1347.6000000000001 591.2 C 1345.9 593.1 1344.3000000000002 595.1 1342.7 596.9000000000001 C 1342.6000000000001 596.9000000000001 1342.6000000000001 597.0000000000001 1342.6000000000001 597.0000000000001 C 1341.3000000000002 598.5000000000001 1339.9 600.0000000000001 1338.5000000000002 601.4000000000001 C 1338.5000000000002 601.4000000000001 1338.4000000000003 601.4000000000001 1338.4000000000003 601.5000000000001 L 1331.8000000000004 608.2000000000002 C 1323.8000000000004 615.8000000000002 1315.5000000000005 623.1000000000001 1306.5000000000005 629.4000000000002 C 1305.4000000000005 630.2000000000002 1304.3000000000004 630.9000000000002 1303.2000000000005 631.7000000000002 C 1303.2000000000005 631.8000000000002 1303.1000000000006 631.8000000000002 1303.1000000000006 631.8000000000002 C 1303.1000000000006 631.9000000000002 1303.0000000000007 631.9000000000002 1303.0000000000007 631.9000000000002 C 1302.5000000000007 632.3000000000002 1301.9000000000008 632.6000000000003 1301.4000000000008 633.0000000000002 C 1300.1000000000008 633.5000000000002 1299.0000000000007 634.7000000000003 1297.7000000000007 635.2000000000003 C 1297.1000000000008 635.7000000000003 1296.5000000000007 636.0000000000002 1295.9000000000008 636.4000000000003 C 1295.5000000000007 636.9000000000003 1294.7000000000007 637.1000000000004 1294.2000000000007 637.5000000000003 C 1293.6000000000008 637.9000000000003 1292.9000000000008 638.5000000000003 1292.1000000000008 638.8000000000003 C 1290.2000000000007 640.1000000000003 1288.2000000000007 640.9000000000003 1286.3000000000009 642.1000000000003 C 1285.6000000000008 642.4000000000002 1285.000000000001 642.8000000000003 1284.4000000000008 643.1000000000003 C 1281.9000000000008 644.7000000000003 1279.0000000000007 646.0000000000002 1276.3000000000009 647.3000000000003 C 1273.700000000001 648.8000000000003 1270.700000000001 649.9000000000003 1267.9000000000008 651.2000000000003 C 1192.1000000000008 680.1000000000003 1094.3000000000009 677.5000000000002 1014.4000000000008 658.6000000000003 C 978.7000000000007 651.7000000000003 943.8000000000008 641.8000000000003 910.3000000000008 628.4000000000002 L 910.3000000000008 628.4000000000002 z M 1280.8 660.1999999999999 L 1278.8999999999999 689.0999999999999 C 1239.1 704.3999999999999 1193.3999999999999 714.8999999999999 1134.1 712.3999999999999 C 1078.8999999999999 677.5999999999999 1008.1999999999999 681.0999999999999 945.8 688.6999999999998 C 950.9 675.6999999999998 953.8 664.8999999999999 955.4 658.2999999999998 C 1057 687.0999999999998 1182 701.3999999999999 1280.6 660.2999999999998 C 1280.6 660.2999999999998 1280.6999999999998 660.1999999999998 1280.8 660.1999999999998 L 1280.8 660.1999999999998 z M 1201.8 980.5 C 1188.5 989.6 1172.8 994.4 1156.5 994.4 L 872.4 994.4 C 856.6 994.4 841.1 989.9 827.6999999999999 981.4 C 814.3490686306786 972.9309696695256 803.6972912395672 960.8219458600861 796.9999999999999 946.5 C 773.7999999999998 896.5 768.0999999999999 843.9 809.0999999999999 806.6 C 813.0999999999999 811.1 817.8999999999999 815 823.3999999999999 817.9 C 837.7999999999998 825.5 865.5999999999999 839.3 901.3999999999999 851.9 C 904.0999999999999 856 912.9999999999999 871.6999999999999 919.9999999999999 911.6 C 920.5999999999999 914.8000000000001 923.2999999999998 917 926.3999999999999 917 C 930.3999999999999 917 933.3999999999999 913.3 932.6999999999998 909.4 C 928.2999999999998 884.1999999999999 923.0999999999998 867.9 918.7999999999998 857.6 C 937.7999999999998 865.9 1071.4999999999998 893 1069.3999999999999 872.6 C 1069.3 869 1066.3 866.2 1062.6999999999998 866.3000000000001 C 995.9999999999998 871.7 884.4999999999998 838.5000000000001 829.5999999999998 806.6 C 821.2999999999998 802.1 814.9999999999998 794.9 811.6999999999998 786.2 C 807.5999999999998 775.4000000000001 805.2999999999998 763.4000000000001 804.7999999999998 750.6 C 803.9999999999999 730 819.4999999999999 712.4 840.0999999999998 710.7 L 1005.6999999999998 696.7 C 1054.8999999999999 692.6 1104.2999999999997 706 1144.6 734.4000000000001 C 1149.8999999999999 738.4000000000001 1157.5 731.4000000000001 1153.8 725.8000000000001 C 1203.8 724.7 1234.7 717.8000000000001 1271 706.0000000000001 C 1287.3 777.7000000000002 1284.1 931.0000000000001 1201.8 980.5000000000001 L 1201.8 980.5000000000001 z M 1432.8 915.3 C 1387.3999999999999 966 1307.1 971.9 1251.8999999999999 947.6999999999999 C 1265.9999999999998 926.9 1275.9999999999998 902.3 1282.1 876.9999999999999 C 1380.3 868.8999999999999 1432.1999999999998 792.1999999999999 1425.1999999999998 700.3 C 1474.2999999999997 755.6999999999999 1499.1999999999998 855.5 1432.7999999999997 915.3 L 1432.7999999999997 915.3 z" stroke-linecap="round" />
</g>
		<g transform="matrix(1 0 0 1 -1379.5627074173 -173.4411363864)" id="7oZg1099JQjq-b-1J_r0o"  >
<path style="stroke: none; stroke-width: 1; stroke-dasharray: none; stroke-linecap: butt; stroke-dashoffset: 0; stroke-linejoin: miter; stroke-miterlimit: 4; fill: rgb(255,255,255); fill-rule: nonzero; opacity: 1;" vector-effect="non-scaling-stroke"  transform=" translate(-1060.85, -339.85)" d="M 902.5 291 C 923.4 290.7 923.4 323.5 902.5 323.2 C 881.6 323.5 881.6 290.7 902.5 291 z M 1219.2 356.5 C 1240.1000000000001 356.2 1240.1000000000001 389 1219.2 388.7 C 1198.3 389 1198.3 356.2 1219.2 356.5 z" stroke-linecap="round" />
</g>
		<g transform="matrix(1 0 0 1 -1392.4175714361 -112.2911363864)" id="Mj4IhOo9h4vGegTgJeoCJ"  >
<path style="stroke: none; stroke-width: 1; stroke-dasharray: none; stroke-linecap: butt; stroke-dashoffset: 0; stroke-linejoin: miter; stroke-miterlimit: 4; fill: rgb(92,62,55); fill-rule: nonzero; opacity: 1;" vector-effect="non-scaling-stroke"  transform=" translate(-1047.9951359811, -401)" d="M 1014.1 394 C 1016.9 375.2 1086.7 389.6 1081.9 408 C 1079 426.8 1009.2 412.4 1014.1000000000001 394 z" stroke-linecap="round" />
</g>
		<g transform="matrix(1 0 0 1 -1419.6127074173 20.1500044847)" id="bqItPgRTsxhLTJ6ZmrCe5"  >
<path style="stroke: none; stroke-width: 1; stroke-dasharray: none; stroke-linecap: butt; stroke-dashoffset: 0; stroke-linejoin: miter; stroke-miterlimit: 4; fill: rgb(255,181,171); fill-rule: nonzero; opacity: 1;" vector-effect="non-scaling-stroke"  transform=" translate(-1020.8, -533.441140871)" d="M 1022.3 517.2 C 1022.5 517.3000000000001 1002.1999999999999 513.7 988.5 517.8000000000001 C 992 529.0000000000001 1000.1 546.8000000000001 1015.4 550.7 C 1030.9 553.4000000000001 1046 539.8000000000001 1053.1 531.2 C 1041.6999999999998 522 1023.3 517.5 1022.3 517.2 L 1022.3 517.2 z" stroke-linecap="round" />
</g>
		<g transform="matrix(1 0 0 1 -1422.0549676941 24.4445778993)" id="b-bOY0fQbKEz6uhd2oVeS"  >
<path style="stroke: none; stroke-width: 1; stroke-dasharray: none; stroke-linecap: butt; stroke-dashoffset: 0; stroke-linejoin: miter; stroke-miterlimit: 4; fill: rgb(255,138,128); fill-rule: nonzero; opacity: 1;" vector-effect="non-scaling-stroke"  transform=" translate(-1018.3577397231, -537.7357142857)" d="M 1020.3 526.7 C 992.0999999999999 520.7 978.0999999999999 528.7 1015.3 550.7 C 1056.3 546.5 1049 531.9000000000001 1020.3 526.7 z" stroke-linecap="round" />
</g>
</g>
</g>
</svg>