<?xml version="1.0" encoding="UTF-8" standalone="no" ?>
<!DOCTYPE svg PUBLIC "-//W3C//DTD SVG 1.1//EN" "http://www.w3.org/Graphics/SVG/1.1/DTD/svg11.dtd">
<svg xmlns="http://www.w3.org/2000/svg" xmlns:xlink="http://www.w3.org/1999/xlink" version="1.1" width="200" height="75" viewBox="0 0 200 75" xml:space="preserve">
<desc>Created with Fabric.js 5.3.0</desc>
<defs>
</defs>
<g transform="matrix(0.9193966722 0 0 1.0778901769 100 37.5)" id="A4bSvacqQzhC2LNDHYmv6"  >
<g style="" vector-effect="non-scaling-stroke"   >
		<g transform="matrix(1 0 0 1 -45.55 7.3)" id="cd81rWeoXFqlni9XGLAF6"  >
<path style="stroke: none; stroke-width: 1; stroke-dasharray: none; stroke-linecap: butt; stroke-dashoffset: 0; stroke-linejoin: miter; stroke-miterlimit: 4; fill: rgb(255,255,255); fill-rule: nonzero; opacity: 1;" vector-effect="non-scaling-stroke"  transform=" translate(-54.45, -29.85)" d="M 55 33.1 L 53.9 33.1 L 53.9 27.5 L 52 27.5 L 52 26.6 L 56.9 26.6 L 56.9 27.5 L 55 27.5 L 55 33.1 z" stroke-linecap="round" />
</g>
		<g transform="matrix(1 0 0 1 -39.95 7.1)" id="ctCu-ahCPv8YE6sZBJWzP"  >
<path style="stroke: none; stroke-width: 1; stroke-dasharray: none; stroke-linecap: butt; stroke-dashoffset: 0; stroke-linejoin: miter; stroke-miterlimit: 4; fill: rgb(255,255,255); fill-rule: nonzero; opacity: 1;" vector-effect="non-scaling-stroke"  transform=" translate(-60.05, -29.65)" d="M 62.2 33.1 L 61.1 33.1 L 61.1 30.1 C 61.1 29.700000000000003 61 29.400000000000002 60.9 29.3 C 60.699999999999996 29.1 60.5 29 60.199999999999996 29 C 59.8 29 59.4 29.1 59.199999999999996 29.4 C 58.99999999999999 29.7 58.9 30.099999999999998 58.9 30.7 L 58.9 33.1 L 57.9 33.1 L 57.9 26.200000000000003 L 58.9 26.200000000000003 L 58.9 28.000000000000004 C 58.9 28.300000000000004 58.9 28.600000000000005 58.8 28.900000000000002 L 58.9 28.900000000000002 C 59 28.700000000000003 59.199999999999996 28.500000000000004 59.5 28.3 C 59.8 28.2 60 28.1 60.4 28.1 C 61.6 28.1 62.199999999999996 28.700000000000003 62.199999999999996 29.900000000000002 L 62.199999999999996 33.1 z" stroke-linecap="round" />
</g>
		<g transform="matrix(1 0 0 1 -34.5 8.1)" id="3KkU2jPUY-H2EnaGBeazG"  >
<path style="stroke: none; stroke-width: 1; stroke-dasharray: none; stroke-linecap: butt; stroke-dashoffset: 0; stroke-linejoin: miter; stroke-miterlimit: 4; fill: rgb(255,255,255); fill-rule: nonzero; opacity: 1;" vector-effect="non-scaling-stroke"  transform=" translate(-65.5, -30.65)" d="M 65.7 33.2 C 64.9 33.2 64.3 33 63.900000000000006 32.5 C 63.50000000000001 32.1 63.300000000000004 31.4 63.300000000000004 30.7 C 63.300000000000004 29.9 63.50000000000001 29.3 63.900000000000006 28.8 C 64.30000000000001 28.3 64.9 28.1 65.60000000000001 28.1 C 66.2 28.1 66.80000000000001 28.3 67.10000000000001 28.700000000000003 C 67.50000000000001 29.1 67.7 29.6 67.7 30.300000000000004 L 67.7 30.900000000000006 L 64.4 30.900000000000006 C 64.4 31.400000000000006 64.5 31.700000000000006 64.80000000000001 32.00000000000001 C 65.00000000000001 32.300000000000004 65.4 32.400000000000006 65.80000000000001 32.400000000000006 C 66.10000000000001 32.400000000000006 66.4 32.400000000000006 66.60000000000001 32.300000000000004 C 66.9 32.2 67.10000000000001 32.2 67.4 32.00000000000001 L 67.4 32.800000000000004 C 67.10000000000001 32.900000000000006 66.9 33.00000000000001 66.60000000000001 33.1 C 66.4 33.2 66.1 33.2 65.7 33.2 z M 65.6 28.9 C 65.3 28.9 65 29 64.8 29.2 C 64.6 29.4 64.5 29.7 64.39999999999999 30.099999999999998 L 66.6 30.099999999999998 C 66.6 29.7 66.5 29.4 66.3 29.2 C 66.1 29 65.9 28.9 65.6 28.9 z" stroke-linecap="round" />
</g>
		<g transform="matrix(1 0 0 1 -26.4 7.15)" id="rzBcLx2bw7UG1lB8ykITk"  >
<path style="stroke: none; stroke-width: 1; stroke-dasharray: none; stroke-linecap: butt; stroke-dashoffset: 0; stroke-linejoin: miter; stroke-miterlimit: 4; fill: rgb(255,255,255); fill-rule: nonzero; opacity: 1;" vector-effect="non-scaling-stroke"  transform=" translate(-73.6, -29.7)" d="M 74.1 27.4 C 73.5 27.4 73 27.599999999999998 72.69999999999999 28 C 72.39999999999999 28.4 72.19999999999999 29 72.19999999999999 29.8 C 72.19999999999999 30.6 72.39999999999999 31.2 72.69999999999999 31.6 C 72.99999999999999 32 73.49999999999999 32.2 74.19999999999999 32.2 C 74.49999999999999 32.2 74.69999999999999 32.2 74.99999999999999 32.1 C 75.29999999999998 32 75.49999999999999 32 75.79999999999998 31.900000000000002 L 75.79999999999998 32.800000000000004 C 75.29999999999998 33.00000000000001 74.69999999999999 33.1 74.09999999999998 33.1 C 73.09999999999998 33.1 72.39999999999998 32.800000000000004 71.89999999999998 32.2 C 71.39999999999998 31.6 71.09999999999998 30.800000000000004 71.09999999999998 29.700000000000003 C 71.09999999999998 29.000000000000004 71.19999999999997 28.400000000000002 71.49999999999999 27.900000000000002 C 71.8 27.400000000000002 72.09999999999998 27.000000000000004 72.59999999999998 26.700000000000003 C 73.09999999999998 26.400000000000002 73.59999999999998 26.300000000000004 74.29999999999998 26.300000000000004 C 74.99999999999999 26.300000000000004 75.59999999999998 26.400000000000006 76.09999999999998 26.700000000000003 L 75.69999999999997 27.6 C 75.49999999999997 27.5 75.19999999999997 27.400000000000002 74.99999999999997 27.3 C 74.6 27.4 74.4 27.4 74.1 27.4 z" stroke-linecap="round" />
</g>
		<g transform="matrix(1 0 0 1 -21.7 8.05)" id="J09KClJ200jY6bmM8Vg5p"  >
<path style="stroke: none; stroke-width: 1; stroke-dasharray: none; stroke-linecap: butt; stroke-dashoffset: 0; stroke-linejoin: miter; stroke-miterlimit: 4; fill: rgb(255,255,255); fill-rule: nonzero; opacity: 1;" vector-effect="non-scaling-stroke"  transform=" translate(-78.3, -30.6)" d="M 79.3 28.1 C 79.5 28.1 79.7 28.1 79.8 28.1 L 79.7 29.1 C 79.60000000000001 29.1 79.4 29 79.2 29 C 78.8 29 78.4 29.1 78.2 29.4 C 77.9 29.7 77.8 30 77.8 30.5 L 77.8 33.1 L 76.8 33.1 L 76.8 28.200000000000003 L 77.6 28.200000000000003 L 77.69999999999999 29.1 L 77.79999999999998 29.1 C 77.99999999999999 28.8 78.19999999999999 28.6 78.39999999999998 28.400000000000002 C 78.7 28.2 79 28.1 79.3 28.1 z" stroke-linecap="round" />
</g>
		<g transform="matrix(1 0 0 1 -17.25 9.2)" id="DD4Ov1f-ApO0H7ClHO1r9"  >
<path style="stroke: none; stroke-width: 1; stroke-dasharray: none; stroke-linecap: butt; stroke-dashoffset: 0; stroke-linejoin: miter; stroke-miterlimit: 4; fill: rgb(255,255,255); fill-rule: nonzero; opacity: 1;" vector-effect="non-scaling-stroke"  transform=" translate(-82.75, -31.75)" d="M 80.4 28.2 L 81.5 28.2 L 82.5 31 C 82.7 31.4 82.8 31.8 82.8 32.1 L 82.8 32.1 C 82.8 31.900000000000002 82.89999999999999 31.700000000000003 82.89999999999999 31.5 C 82.99999999999999 31.3 83.3 30.2 83.99999999999999 28.2 L 85.09999999999998 28.2 L 82.99999999999999 33.8 C 82.59999999999998 34.8 81.99999999999999 35.3 81.09999999999998 35.3 C 80.89999999999998 35.3 80.59999999999998 35.3 80.39999999999998 35.199999999999996 L 80.39999999999998 34.4 C 80.59999999999998 34.4 80.69999999999997 34.5 80.89999999999998 34.5 C 81.39999999999998 34.5 81.79999999999998 34.2 81.99999999999997 33.6 L 82.19999999999997 33.1 L 80.4 28.2 z" stroke-linecap="round" />
</g>
		<g transform="matrix(1 0 0 1 -11.7 9.2)" id="CYeLl8gQC1UbdLbHHa18o"  >
<path style="stroke: none; stroke-width: 1; stroke-dasharray: none; stroke-linecap: butt; stroke-dashoffset: 0; stroke-linejoin: miter; stroke-miterlimit: 4; fill: rgb(255,255,255); fill-rule: nonzero; opacity: 1;" vector-effect="non-scaling-stroke"  transform=" translate(-88.3, -31.75)" d="M 88.6 33.2 C 88 33.2 87.5 33 87.1 32.5 L 87 32.5 C 87 32.9 87.1 33.2 87.1 33.3 L 87.1 35.3 L 86.1 35.3 L 86.1 28.199999999999996 L 86.89999999999999 28.199999999999996 C 86.89999999999999 28.299999999999997 86.99999999999999 28.499999999999996 86.99999999999999 28.899999999999995 L 87.09999999999998 28.899999999999995 C 87.39999999999998 28.399999999999995 87.89999999999998 28.199999999999996 88.59999999999998 28.199999999999996 C 89.19999999999997 28.199999999999996 89.69999999999997 28.399999999999995 89.99999999999999 28.899999999999995 C 90.29999999999998 29.299999999999994 90.49999999999999 29.999999999999996 90.49999999999999 30.799999999999994 C 90.49999999999999 31.59999999999999 90.29999999999998 32.199999999999996 89.99999999999999 32.699999999999996 C 89.7 33 89.2 33.2 88.6 33.2 z M 88.3 28.9 C 87.89999999999999 28.9 87.6 29 87.39999999999999 29.299999999999997 C 87.19999999999999 29.499999999999996 87.1 29.9 87.1 30.499999999999996 L 87.1 30.699999999999996 C 87.1 31.299999999999997 87.19999999999999 31.699999999999996 87.39999999999999 31.999999999999996 C 87.6 32.3 87.89999999999999 32.4 88.3 32.4 C 88.7 32.4 88.89999999999999 32.3 89.1 32 C 89.3 31.700000000000003 89.39999999999999 31.3 89.39999999999999 30.7 C 89.39999999999999 30.099999999999998 89.3 29.7 89.1 29.4 C 89 29.1 88.7 28.9 88.3 28.9 z" stroke-linecap="round" />
</g>
		<g transform="matrix(1 0 0 1 -7.2 7.6)" id="ckgiocwtPyJmyeSGHNDSF"  >
<path style="stroke: none; stroke-width: 1; stroke-dasharray: none; stroke-linecap: butt; stroke-dashoffset: 0; stroke-linejoin: miter; stroke-miterlimit: 4; fill: rgb(255,255,255); fill-rule: nonzero; opacity: 1;" vector-effect="non-scaling-stroke"  transform=" translate(-92.8, -30.15)" d="M 93.6 32.3 C 93.89999999999999 32.3 94.1 32.3 94.39999999999999 32.199999999999996 L 94.39999999999999 33 C 94.3 33.1 94.1 33.1 93.99999999999999 33.1 C 93.79999999999998 33.1 93.59999999999998 33.2 93.39999999999999 33.2 C 92.39999999999999 33.2 91.89999999999999 32.7 91.89999999999999 31.6 L 91.89999999999999 29 L 91.19999999999999 29 L 91.19999999999999 28.5 L 91.89999999999999 28.1 L 92.3 27.1 L 92.89999999999999 27.1 L 92.89999999999999 28.200000000000003 L 94.3 28.200000000000003 L 94.3 29 L 92.89999999999999 29 L 92.89999999999999 31.6 C 92.89999999999999 31.900000000000002 92.99999999999999 32 93.1 32.2 C 93.2 32.3 93.3 32.3 93.6 32.3 z" stroke-linecap="round" />
</g>
		<g transform="matrix(1 0 0 1 -2.7 8.05)" id="6Th-1lLv3i3TVRcll3Evk"  >
<path style="stroke: none; stroke-width: 1; stroke-dasharray: none; stroke-linecap: butt; stroke-dashoffset: 0; stroke-linejoin: miter; stroke-miterlimit: 4; fill: rgb(255,255,255); fill-rule: nonzero; opacity: 1;" vector-effect="non-scaling-stroke"  transform=" translate(-97.3, -30.6)" d="M 99.6 30.6 C 99.6 31.400000000000002 99.39999999999999 32 99 32.5 C 98.6 33 98 33.2 97.3 33.2 C 96.8 33.2 96.39999999999999 33.1 96.1 32.900000000000006 C 95.8 32.70000000000001 95.5 32.400000000000006 95.3 32.00000000000001 C 95.1 31.60000000000001 95 31.200000000000006 95 30.60000000000001 C 95 29.800000000000008 95.2 29.20000000000001 95.6 28.70000000000001 C 96 28.30000000000001 96.6 28.00000000000001 97.3 28.00000000000001 C 98 28.00000000000001 98.6 28.20000000000001 99 28.70000000000001 C 99.4 29.2 99.6 29.8 99.6 30.6 z M 96 30.6 C 96 31.700000000000003 96.4 32.300000000000004 97.3 32.300000000000004 C 98.1 32.300000000000004 98.5 31.700000000000003 98.5 30.600000000000005 C 98.5 29.500000000000004 98.1 28.900000000000006 97.2 28.900000000000006 C 96.8 28.900000000000006 96.4 29.000000000000007 96.2 29.300000000000004 C 96.1 29.7 96 30.1 96 30.6 z" stroke-linecap="round" />
</g>
		<g transform="matrix(1 0 0 1 5.6 7.3)" id="bPaV19qb5dTL3VNFuPoPs"  >
<path style="stroke: none; stroke-width: 1; stroke-dasharray: none; stroke-linecap: butt; stroke-dashoffset: 0; stroke-linejoin: miter; stroke-miterlimit: 4; fill: rgb(255,255,255); fill-rule: nonzero; opacity: 1;" vector-effect="non-scaling-stroke"  transform=" translate(-105.6, -29.85)" d="M 104.3 30.5 L 104.3 33.1 L 103.2 33.1 L 103.2 26.6 L 105 26.6 C 105.8 26.6 106.5 26.8 106.9 27.1 C 107.30000000000001 27.400000000000002 107.5 27.900000000000002 107.5 28.5 C 107.5 29.3 107.1 29.9 106.2 30.2 L 108 33.1 L 106.8 33.1 L 105.2 30.5 L 104.3 30.5 z M 104.3 29.6 L 105 29.6 C 105.5 29.6 105.9 29.5 106.1 29.3 C 106.29999999999998 29.1 106.39999999999999 28.8 106.39999999999999 28.5 C 106.39999999999999 28.1 106.3 27.9 105.99999999999999 27.7 C 105.79999999999998 27.5 105.39999999999999 27.5 104.89999999999999 27.5 L 104.19999999999999 27.5 L 104.19999999999999 29.6 z" stroke-linecap="round" />
</g>
		<g transform="matrix(1 0 0 1 10.9 8.1)" id="z0HeBFrxqPcihiOqnZZ3p"  >
<path style="stroke: none; stroke-width: 1; stroke-dasharray: none; stroke-linecap: butt; stroke-dashoffset: 0; stroke-linejoin: miter; stroke-miterlimit: 4; fill: rgb(255,255,255); fill-rule: nonzero; opacity: 1;" vector-effect="non-scaling-stroke"  transform=" translate(-110.9, -30.65)" d="M 111.1 33.2 C 110.3 33.2 109.69999999999999 33 109.3 32.5 C 108.89999999999999 32.1 108.7 31.4 108.7 30.7 C 108.7 29.9 108.9 29.3 109.3 28.8 C 109.7 28.3 110.3 28.1 111 28.1 C 111.6 28.1 112.2 28.3 112.5 28.700000000000003 C 112.9 29.1 113.1 29.6 113.1 30.300000000000004 L 113.1 30.900000000000006 L 109.8 30.900000000000006 C 109.8 31.400000000000006 109.89999999999999 31.700000000000006 110.2 32.00000000000001 C 110.4 32.300000000000004 110.8 32.400000000000006 111.2 32.400000000000006 C 111.5 32.400000000000006 111.8 32.400000000000006 112 32.300000000000004 C 112.3 32.2 112.5 32.2 112.8 32.00000000000001 L 112.8 32.800000000000004 C 112.5 32.900000000000006 112.3 33.00000000000001 112 33.1 C 111.7 33.2 111.4 33.2 111.1 33.2 z M 110.9 28.9 C 110.60000000000001 28.9 110.30000000000001 29 110.10000000000001 29.2 C 109.9 29.4 109.80000000000001 29.7 109.7 30.099999999999998 L 111.9 30.099999999999998 C 111.9 29.7 111.80000000000001 29.4 111.60000000000001 29.2 C 111.5 29 111.2 28.9 110.9 28.9 z" stroke-linecap="round" />
</g>
		<g transform="matrix(1 0 0 1 15.7 8.05)" id="_vj3NYFXuvhVf0kD0K4TE"  >
<path style="stroke: none; stroke-width: 1; stroke-dasharray: none; stroke-linecap: butt; stroke-dashoffset: 0; stroke-linejoin: miter; stroke-miterlimit: 4; fill: rgb(255,255,255); fill-rule: nonzero; opacity: 1;" vector-effect="non-scaling-stroke"  transform=" translate(-115.7, -30.6)" d="M 117.5 31.7 C 117.5 32.2 117.3 32.5 117 32.8 C 116.6 33.099999999999994 116.1 33.199999999999996 115.5 33.199999999999996 C 114.8 33.199999999999996 114.3 33.099999999999994 113.9 32.9 L 113.9 32 C 114.5 32.3 115 32.4 115.5 32.4 C 116.1 32.4 116.5 32.199999999999996 116.5 31.799999999999997 C 116.5 31.699999999999996 116.5 31.599999999999998 116.4 31.499999999999996 C 116.30000000000001 31.399999999999995 116.2 31.299999999999997 116 31.199999999999996 C 115.8 31.099999999999994 115.6 30.999999999999996 115.3 30.899999999999995 C 114.7 30.699999999999996 114.39999999999999 30.499999999999996 114.2 30.199999999999996 C 114 29.999999999999996 113.9 29.699999999999996 113.9 29.299999999999997 C 113.9 28.9 114.10000000000001 28.599999999999998 114.4 28.299999999999997 C 114.7 28.099999999999998 115.2 27.999999999999996 115.80000000000001 27.999999999999996 C 116.4 27.999999999999996 116.9 28.099999999999998 117.4 28.399999999999995 L 117.10000000000001 29.199999999999996 C 116.60000000000001 28.999999999999996 116.10000000000001 28.899999999999995 115.80000000000001 28.899999999999995 C 115.20000000000002 28.899999999999995 115.00000000000001 29.099999999999994 115.00000000000001 29.399999999999995 C 115.00000000000001 29.599999999999994 115.10000000000001 29.699999999999996 115.20000000000002 29.799999999999994 C 115.30000000000001 29.899999999999995 115.70000000000002 30.099999999999994 116.10000000000002 30.199999999999992 C 116.50000000000003 30.39999999999999 116.80000000000003 30.499999999999993 117.00000000000003 30.59999999999999 C 117.20000000000003 30.699999999999992 117.30000000000003 30.89999999999999 117.40000000000003 31.09999999999999 C 117.4 31.3 117.5 31.5 117.5 31.7 z" stroke-linecap="round" />
</g>
		<g transform="matrix(1 0 0 1 20.6 8.1)" id="rH7CEUcK5EqCnpEYZDbyz"  >
<path style="stroke: none; stroke-width: 1; stroke-dasharray: none; stroke-linecap: butt; stroke-dashoffset: 0; stroke-linejoin: miter; stroke-miterlimit: 4; fill: rgb(255,255,255); fill-rule: nonzero; opacity: 1;" vector-effect="non-scaling-stroke"  transform=" translate(-120.6, -30.65)" d="M 120.8 33.2 C 120 33.2 119.39999999999999 33 119 32.5 C 118.6 32.1 118.4 31.4 118.4 30.7 C 118.4 29.9 118.60000000000001 29.3 119 28.8 C 119.4 28.3 120 28.1 120.7 28.1 C 121.3 28.1 121.9 28.3 122.2 28.700000000000003 C 122.60000000000001 29.1 122.8 29.6 122.8 30.300000000000004 L 122.8 30.900000000000006 L 119.5 30.900000000000006 C 119.5 31.400000000000006 119.6 31.700000000000006 119.9 32.00000000000001 C 120.10000000000001 32.300000000000004 120.5 32.400000000000006 120.9 32.400000000000006 C 121.2 32.400000000000006 121.5 32.400000000000006 121.7 32.300000000000004 C 122 32.2 122.2 32.2 122.5 32.00000000000001 L 122.5 32.800000000000004 C 122.2 32.900000000000006 122 33.00000000000001 121.7 33.1 C 121.4 33.2 121.1 33.2 120.8 33.2 z M 120.6 28.9 C 120.3 28.9 120 29 119.8 29.2 C 119.6 29.4 119.5 29.7 119.39999999999999 30.099999999999998 L 121.6 30.099999999999998 C 121.6 29.7 121.5 29.4 121.3 29.2 C 121.2 29 120.9 28.9 120.6 28.9 z" stroke-linecap="round" />
</g>
		<g transform="matrix(1 0 0 1 25.75 8.25)" id="HIEwQgcyE8xuyj8qdrq5s"  >
<path style="stroke: none; stroke-width: 1; stroke-dasharray: none; stroke-linecap: butt; stroke-dashoffset: 0; stroke-linejoin: miter; stroke-miterlimit: 4; fill: rgb(255,255,255); fill-rule: nonzero; opacity: 1;" vector-effect="non-scaling-stroke"  transform=" translate(-125.75, -30.8)" d="M 126.9 33.1 L 126.7 32.4 L 126.7 32.4 C 126.5 32.699999999999996 126.2 32.9 126 33 C 125.8 33.1 125.5 33.2 125.1 33.2 C 124.6 33.2 124.19999999999999 33.1 124 32.800000000000004 C 123.7 32.50000000000001 123.6 32.2 123.6 31.700000000000003 C 123.6 31.200000000000003 123.8 30.800000000000004 124.19999999999999 30.6 C 124.6 30.3 125.19999999999999 30.200000000000003 125.89999999999999 30.200000000000003 L 126.8 30.200000000000003 L 126.8 29.900000000000002 C 126.8 29.6 126.7 29.400000000000002 126.6 29.200000000000003 C 126.5 29.000000000000004 126.19999999999999 29.000000000000004 125.89999999999999 29.000000000000004 C 125.6 29.000000000000004 125.39999999999999 29.000000000000004 125.19999999999999 29.100000000000005 C 124.99999999999999 29.200000000000006 124.69999999999999 29.300000000000004 124.49999999999999 29.400000000000006 L 124.19999999999999 28.700000000000006 C 124.49999999999999 28.600000000000005 124.79999999999998 28.500000000000007 125.1 28.400000000000006 C 125.39999999999999 28.300000000000004 125.69999999999999 28.300000000000004 126 28.300000000000004 C 126.6 28.300000000000004 127.1 28.400000000000006 127.4 28.700000000000003 C 127.7 29.000000000000004 127.9 29.400000000000002 127.9 30.000000000000004 L 127.9 33.300000000000004 L 126.9 33.300000000000004 z M 125.3 32.4 C 125.7 32.4 126 32.3 126.2 32.1 C 126.4 31.900000000000002 126.5 31.6 126.5 31.200000000000003 L 126.5 30.800000000000004 L 125.9 30.800000000000004 C 125.4 30.800000000000004 125 30.900000000000006 124.80000000000001 31.000000000000004 C 124.60000000000001 31.100000000000005 124.50000000000001 31.400000000000002 124.50000000000001 31.700000000000003 C 124.50000000000001 31.900000000000002 124.60000000000001 32.1 124.70000000000002 32.2 C 124.9 32.3 125.1 32.4 125.3 32.4 z" stroke-linecap="round" />
</g>
		<g transform="matrix(1 0 0 1 30.5 8.05)" id="sSMrr65qy4FgYAfUU-PHL"  >
<path style="stroke: none; stroke-width: 1; stroke-dasharray: none; stroke-linecap: butt; stroke-dashoffset: 0; stroke-linejoin: miter; stroke-miterlimit: 4; fill: rgb(255,255,255); fill-rule: nonzero; opacity: 1;" vector-effect="non-scaling-stroke"  transform=" translate(-130.5, -30.6)" d="M 131.5 28.1 C 131.7 28.1 131.9 28.1 132 28.1 L 131.9 29.1 C 131.8 29.1 131.6 29 131.4 29 C 131 29 130.6 29.1 130.4 29.4 C 130.1 29.7 130 30 130 30.5 L 130 33.1 L 129 33.1 L 129 28.200000000000003 L 129.8 28.200000000000003 L 130 29 L 130.1 29 C 130.29999999999998 28.7 130.5 28.5 130.7 28.3 C 131 28.2 131.2 28.1 131.5 28.1 z" stroke-linecap="round" />
</g>
		<g transform="matrix(1 0 0 1 34.5 8.05)" id="69Ljv6YRxyhsJTAQqwFN_"  >
<path style="stroke: none; stroke-width: 1; stroke-dasharray: none; stroke-linecap: butt; stroke-dashoffset: 0; stroke-linejoin: miter; stroke-miterlimit: 4; fill: rgb(255,255,255); fill-rule: nonzero; opacity: 1;" vector-effect="non-scaling-stroke"  transform=" translate(-134.5, -30.6)" d="M 134.9 33.2 C 134.20000000000002 33.2 133.6 33 133.20000000000002 32.5 C 132.8 32.1 132.60000000000002 31.4 132.60000000000002 30.6 C 132.60000000000002 29.8 132.8 29.1 133.20000000000002 28.700000000000003 C 133.60000000000002 28.300000000000004 134.20000000000002 28.000000000000004 135.00000000000003 28.000000000000004 C 135.50000000000003 28.000000000000004 136.00000000000003 28.100000000000005 136.40000000000003 28.300000000000004 L 136.10000000000002 29.100000000000005 C 135.70000000000002 28.900000000000006 135.3 28.800000000000004 135.00000000000003 28.800000000000004 C 134.10000000000002 28.800000000000004 133.70000000000002 29.400000000000006 133.70000000000002 30.500000000000004 C 133.70000000000002 31.100000000000005 133.8 31.500000000000004 134.00000000000003 31.700000000000003 C 134.20000000000002 32 134.50000000000003 32.1 134.90000000000003 32.1 C 135.40000000000003 32.1 135.80000000000004 32 136.20000000000005 31.8 L 136.20000000000005 32.7 C 136.00000000000006 32.800000000000004 135.80000000000004 32.900000000000006 135.60000000000005 32.900000000000006 C 135.5 33.2 135.2 33.2 134.9 33.2 z" stroke-linecap="round" />
</g>
		<g transform="matrix(1 0 0 1 39.55 7.1)" id="3fpaLQQA1LiV50rejn621"  >
<path style="stroke: none; stroke-width: 1; stroke-dasharray: none; stroke-linecap: butt; stroke-dashoffset: 0; stroke-linejoin: miter; stroke-miterlimit: 4; fill: rgb(255,255,255); fill-rule: nonzero; opacity: 1;" vector-effect="non-scaling-stroke"  transform=" translate(-139.55, -29.65)" d="M 141.7 33.1 L 140.6 33.1 L 140.6 30.1 C 140.6 29.700000000000003 140.5 29.400000000000002 140.4 29.3 C 140.3 29.2 140 29 139.70000000000002 29 C 139.3 29 138.9 29.1 138.70000000000002 29.4 C 138.50000000000003 29.7 138.4 30.099999999999998 138.4 30.7 L 138.4 33.1 L 137.4 33.1 L 137.4 26.200000000000003 L 138.4 26.200000000000003 L 138.4 28.000000000000004 C 138.4 28.300000000000004 138.4 28.600000000000005 138.3 28.900000000000002 L 138.4 28.900000000000002 C 138.5 28.700000000000003 138.70000000000002 28.500000000000004 139 28.3 C 139.29999999999998 28.099999999999998 139.5 28.1 139.9 28.1 C 141.1 28.1 141.70000000000002 28.700000000000003 141.70000000000002 29.900000000000002 L 141.70000000000002 33.1 z" stroke-linecap="round" />
</g>
		<g transform="matrix(1 0 0 1 47.7 7.3)" id="1VufJDvZiumexaKGVmMDH"  >
<path style="stroke: none; stroke-width: 1; stroke-dasharray: none; stroke-linecap: butt; stroke-dashoffset: 0; stroke-linejoin: miter; stroke-miterlimit: 4; fill: rgb(255,255,255); fill-rule: nonzero; opacity: 1;" vector-effect="non-scaling-stroke"  transform=" translate(-147.7, -29.85)" d="M 149.9 28.6 C 149.9 29.3 149.70000000000002 29.8 149.20000000000002 30.200000000000003 C 148.8 30.6 148.10000000000002 30.700000000000003 147.3 30.700000000000003 L 146.60000000000002 30.700000000000003 L 146.60000000000002 33.1 L 145.50000000000003 33.1 L 145.50000000000003 26.6 L 147.40000000000003 26.6 C 148.20000000000005 26.6 148.80000000000004 26.8 149.20000000000005 27.1 C 149.7 27.4 149.9 27.9 149.9 28.6 z M 146.7 29.8 L 147.29999999999998 29.8 C 147.79999999999998 29.8 148.2 29.7 148.49999999999997 29.5 C 148.79999999999998 29.3 148.89999999999998 29 148.89999999999998 28.6 C 148.89999999999998 28.200000000000003 148.79999999999998 27.900000000000002 148.59999999999997 27.8 C 148.39999999999998 27.6 147.99999999999997 27.5 147.49999999999997 27.5 L 146.79999999999998 27.5 L 146.79999999999998 29.8 z" stroke-linecap="round" />
</g>
		<g transform="matrix(1 0 0 1 51.6 7.1)" id="GH8dUuP4olSaIs-MLw1br"  >
<path style="stroke: none; stroke-width: 1; stroke-dasharray: none; stroke-linecap: butt; stroke-dashoffset: 0; stroke-linejoin: miter; stroke-miterlimit: 4; fill: rgb(255,255,255); fill-rule: nonzero; opacity: 1;" vector-effect="non-scaling-stroke"  transform=" translate(-151.6, -29.65)" d="M 152.1 33.1 L 151.1 33.1 L 151.1 26.200000000000003 L 152.1 26.200000000000003 L 152.1 33.1 z" stroke-linecap="round" />
</g>
		<g transform="matrix(1 0 0 1 55.4 8.25)" id="gkgeohx6Cj75jvnpn4Pzy"  >
<path style="stroke: none; stroke-width: 1; stroke-dasharray: none; stroke-linecap: butt; stroke-dashoffset: 0; stroke-linejoin: miter; stroke-miterlimit: 4; fill: rgb(255,255,255); fill-rule: nonzero; opacity: 1;" vector-effect="non-scaling-stroke"  transform=" translate(-155.4, -30.8)" d="M 156.6 33.1 L 156.4 32.4 L 156.4 32.4 C 156.20000000000002 32.699999999999996 155.9 32.9 155.70000000000002 33 C 155.50000000000003 33.1 155.20000000000002 33.2 154.8 33.2 C 154.3 33.2 153.9 33.1 153.70000000000002 32.800000000000004 C 153.4 32.50000000000001 153.3 32.2 153.3 31.700000000000003 C 153.3 31.200000000000003 153.5 30.800000000000004 153.9 30.6 C 154.3 30.4 154.9 30.200000000000003 155.6 30.200000000000003 L 156.4 30.200000000000003 L 156.4 29.900000000000002 C 156.4 29.6 156.3 29.400000000000002 156.20000000000002 29.200000000000003 C 156.10000000000002 29.000000000000004 155.8 29.000000000000004 155.50000000000003 29.000000000000004 C 155.20000000000002 29.000000000000004 155.00000000000003 29.000000000000004 154.80000000000004 29.100000000000005 C 154.60000000000005 29.200000000000006 154.30000000000004 29.300000000000004 154.10000000000005 29.400000000000006 L 153.80000000000004 28.700000000000006 C 154.10000000000005 28.600000000000005 154.40000000000003 28.500000000000007 154.70000000000005 28.400000000000006 C 155.00000000000006 28.300000000000004 155.30000000000004 28.300000000000004 155.60000000000005 28.300000000000004 C 156.20000000000005 28.300000000000004 156.70000000000005 28.400000000000006 157.00000000000006 28.700000000000003 C 157.30000000000007 29.000000000000004 157.50000000000006 29.400000000000002 157.50000000000006 30.000000000000004 L 157.50000000000006 33.300000000000004 L 156.6 33.300000000000004 z M 155 32.4 C 155.4 32.4 155.7 32.3 155.9 32.1 C 156.1 31.900000000000002 156.20000000000002 31.6 156.20000000000002 31.200000000000003 L 156.20000000000002 30.800000000000004 L 155.60000000000002 30.800000000000004 C 155.10000000000002 30.800000000000004 154.70000000000002 30.900000000000006 154.50000000000003 31.000000000000004 C 154.30000000000004 31.100000000000005 154.20000000000002 31.400000000000002 154.20000000000002 31.700000000000003 C 154.20000000000002 31.900000000000002 154.3 32.1 154.4 32.2 C 154.6 32.3 154.8 32.4 155 32.4 z" stroke-linecap="round" />
</g>
		<g transform="matrix(1 0 0 1 59.8 7.6)" id="TMnA5N37VxSsrevF1GsmU"  >
<path style="stroke: none; stroke-width: 1; stroke-dasharray: none; stroke-linecap: butt; stroke-dashoffset: 0; stroke-linejoin: miter; stroke-miterlimit: 4; fill: rgb(255,255,255); fill-rule: nonzero; opacity: 1;" vector-effect="non-scaling-stroke"  transform=" translate(-159.8, -30.15)" d="M 160.6 32.3 C 160.9 32.3 161.1 32.3 161.4 32.199999999999996 L 161.4 33 C 161.3 33.1 161.1 33.1 161 33.1 C 160.8 33.1 160.6 33.2 160.4 33.2 C 159.4 33.2 158.9 32.7 158.9 31.6 L 158.9 29 L 158.20000000000002 29 L 158.20000000000002 28.5 L 158.9 28.1 L 159.3 27.1 L 159.9 27.1 L 159.9 28.200000000000003 L 161.3 28.200000000000003 L 161.3 29 L 159.9 29 L 159.9 31.6 C 159.9 31.900000000000002 160 32 160.1 32.2 C 160.2 32.3 160.4 32.3 160.6 32.3 z" stroke-linecap="round" />
</g>
		<g transform="matrix(1 0 0 1 63.65 7.1)" id="HZXBv9JOGaJXZPZ4ob4do"  >
<path style="stroke: none; stroke-width: 1; stroke-dasharray: none; stroke-linecap: butt; stroke-dashoffset: 0; stroke-linejoin: miter; stroke-miterlimit: 4; fill: rgb(255,255,255); fill-rule: nonzero; opacity: 1;" vector-effect="non-scaling-stroke"  transform=" translate(-163.65, -29.65)" d="M 165 29 L 163.8 29 L 163.8 33.1 L 162.70000000000002 33.1 L 162.70000000000002 29 L 161.9 29 L 161.9 28.5 L 162.70000000000002 28.2 L 162.70000000000002 27.9 C 162.70000000000002 27.299999999999997 162.8 26.9 163.10000000000002 26.599999999999998 C 163.40000000000003 26.299999999999997 163.8 26.2 164.3 26.2 C 164.70000000000002 26.2 165 26.3 165.4 26.4 L 165.1 27.2 C 164.79999999999998 27.099999999999998 164.6 27.099999999999998 164.4 27.099999999999998 C 164.20000000000002 27.099999999999998 164 27.2 163.9 27.299999999999997 C 163.8 27.4 163.70000000000002 27.699999999999996 163.70000000000002 27.999999999999996 L 163.70000000000002 28.299999999999997 L 164.9 28.299999999999997 L 164.9 29 z" stroke-linecap="round" />
</g>
		<g transform="matrix(1 0 0 1 67.9 8.05)" id="-L-Wa7S3iFw0FNisukFRh"  >
<path style="stroke: none; stroke-width: 1; stroke-dasharray: none; stroke-linecap: butt; stroke-dashoffset: 0; stroke-linejoin: miter; stroke-miterlimit: 4; fill: rgb(255,255,255); fill-rule: nonzero; opacity: 1;" vector-effect="non-scaling-stroke"  transform=" translate(-167.9, -30.6)" d="M 170.2 30.6 C 170.2 31.400000000000002 170 32 169.6 32.5 C 169.2 33 168.6 33.2 167.9 33.2 C 167.4 33.2 167 33.1 166.70000000000002 32.900000000000006 C 166.40000000000003 32.70000000000001 166.10000000000002 32.400000000000006 165.9 32.00000000000001 C 165.7 31.60000000000001 165.6 31.200000000000006 165.6 30.60000000000001 C 165.6 29.800000000000008 165.79999999999998 29.20000000000001 166.2 28.70000000000001 C 166.6 28.30000000000001 167.2 28.00000000000001 167.89999999999998 28.00000000000001 C 168.59999999999997 28.00000000000001 169.2 28.20000000000001 169.59999999999997 28.70000000000001 C 170 29.2 170.2 29.8 170.2 30.6 z M 166.6 30.6 C 166.6 31.700000000000003 167 32.300000000000004 167.9 32.300000000000004 C 168.70000000000002 32.300000000000004 169.1 31.700000000000003 169.1 30.600000000000005 C 169.1 29.500000000000004 168.7 28.900000000000006 167.79999999999998 28.900000000000006 C 167.39999999999998 28.900000000000006 166.99999999999997 29.000000000000007 166.79999999999998 29.300000000000004 C 166.7 29.7 166.6 30.1 166.6 30.6 z" stroke-linecap="round" />
</g>
		<g transform="matrix(1 0 0 1 72.9 8.05)" id="Xn8slXz9CR_fBIEAfk-Ms"  >
<path style="stroke: none; stroke-width: 1; stroke-dasharray: none; stroke-linecap: butt; stroke-dashoffset: 0; stroke-linejoin: miter; stroke-miterlimit: 4; fill: rgb(255,255,255); fill-rule: nonzero; opacity: 1;" vector-effect="non-scaling-stroke"  transform=" translate(-172.9, -30.6)" d="M 173.9 28.1 C 174.1 28.1 174.3 28.1 174.4 28.1 L 174.3 29.1 C 174.20000000000002 29.1 174 29 173.8 29 C 173.4 29 173 29.1 172.8 29.4 C 172.5 29.7 172.4 30 172.4 30.5 L 172.4 33.1 L 171.4 33.1 L 171.4 28.200000000000003 L 172.20000000000002 28.200000000000003 L 172.3 29.1 L 172.4 29.1 C 172.6 28.8 172.8 28.6 173 28.400000000000002 C 173.3 28.2 173.6 28.1 173.9 28.1 z" stroke-linecap="round" />
</g>
		<g transform="matrix(1 0 0 1 78.85 8.15)" id="kcLflZ_vUm88HoLiXTAbq"  >
<path style="stroke: none; stroke-width: 1; stroke-dasharray: none; stroke-linecap: butt; stroke-dashoffset: 0; stroke-linejoin: miter; stroke-miterlimit: 4; fill: rgb(255,255,255); fill-rule: nonzero; opacity: 1;" vector-effect="non-scaling-stroke"  transform=" translate(-178.85, -30.7)" d="M 179.4 33.1 L 178.3 33.1 L 178.3 30.1 C 178.3 29.700000000000003 178.20000000000002 29.400000000000002 178.10000000000002 29.3 C 178.00000000000003 29.1 177.70000000000002 29 177.40000000000003 29 C 177.00000000000003 29 176.70000000000005 29.1 176.50000000000003 29.4 C 176.30000000000004 29.7 176.20000000000002 30.099999999999998 176.20000000000002 30.7 L 176.20000000000002 33.2 L 175.20000000000002 33.2 L 175.20000000000002 28.300000000000004 L 176.00000000000003 28.300000000000004 L 176.10000000000002 28.900000000000006 L 176.20000000000002 28.900000000000006 C 176.3 28.700000000000006 176.50000000000003 28.500000000000007 176.8 28.400000000000006 C 177.10000000000002 28.300000000000004 177.3 28.200000000000006 177.70000000000002 28.200000000000006 C 178.50000000000003 28.200000000000006 179.00000000000003 28.500000000000007 179.20000000000002 29.000000000000007 L 179.3 29.000000000000007 C 179.4 28.800000000000008 179.60000000000002 28.60000000000001 179.9 28.400000000000006 C 180.20000000000002 28.300000000000004 180.5 28.200000000000006 180.8 28.200000000000006 C 181.4 28.200000000000006 181.8 28.300000000000008 182.10000000000002 28.600000000000005 C 182.40000000000003 28.900000000000006 182.50000000000003 29.300000000000004 182.50000000000003 30.000000000000004 L 182.50000000000003 33.2 L 181.50000000000003 33.2 L 181.50000000000003 30.200000000000003 C 181.50000000000003 29.800000000000004 181.40000000000003 29.500000000000004 181.30000000000004 29.400000000000002 C 181.20000000000005 29.200000000000003 180.90000000000003 29.1 180.60000000000005 29.1 C 180.20000000000005 29.1 179.90000000000006 29.200000000000003 179.70000000000005 29.5 C 179.50000000000006 29.8 179.40000000000003 30.1 179.40000000000003 30.7 L 179.40000000000003 33.1 z" stroke-linecap="round" />
</g>
		<g transform="matrix(1 0 0 1 -83.3 -5.85)" id="DD4cUkDnvBjbb1ib-NR3Y"  >
<path style="stroke: none; stroke-width: 1; stroke-dasharray: none; stroke-linecap: butt; stroke-dashoffset: 0; stroke-linejoin: miter; stroke-miterlimit: 4; fill: rgb(27,171,161); fill-rule: nonzero; opacity: 1;" vector-effect="non-scaling-stroke"  transform=" translate(-16.7, -16.7)" d="M 16.7 0 C 7.5 0 0 7.5 0 16.7 C 0 25.9 7.4 33.3 16.6 33.4 L 25.6 24.4 L 25.6 24.4 C 25.6 24.4 25.6 24.4 25.6 24.4 L 28.200000000000003 27 C 28.200000000000003 27 28.200000000000003 27 28.200000000000003 27 L 28.200000000000003 27 L 29.1 27.9 C 31.8 24.9 33.4 21 33.4 16.799999999999997 C 33.4 7.5 25.9 0 16.7 0 z" stroke-linecap="round" />
</g>
		<g transform="matrix(1 0 0 1 -83.3 -6.65)" id="URQokPKDPrVhGv4nKNKDH"  >
<path style="stroke: none; stroke-width: 1; stroke-dasharray: none; stroke-linecap: butt; stroke-dashoffset: 0; stroke-linejoin: miter; stroke-miterlimit: 4; fill: rgb(255,255,255); fill-rule: nonzero; opacity: 1;" vector-effect="non-scaling-stroke"  transform=" translate(-16.7, -15.9)" d="M 22.4 9 C 23.9 10.2 24.799999999999997 11.8 25.2 13.9 L 20.6 13.9 C 20.400000000000002 13 20 12.3 19.3 11.7 C 18.6 11.2 17.8 10.899999999999999 16.8 10.899999999999999 C 15.600000000000001 10.899999999999999 14.700000000000001 11.299999999999999 13.9 12.2 C 13.1 13.1 12.700000000000001 14.299999999999999 12.700000000000001 16 C 12.700000000000001 17.7 13.100000000000001 18.9 13.9 19.8 C 14.700000000000001 20.7 15.6 21.1 16.8 21.1 C 17.8 21.1 18.7 20.8 19.3 20.3 C 20 19.8 20.400000000000002 19.1 20.6 18.1 L 25.200000000000003 18.1 C 24.800000000000004 20.200000000000003 23.900000000000002 21.8 22.400000000000002 23 C 20.900000000000002 24.2 19.1 24.8 16.800000000000004 24.8 C 15.100000000000005 24.8 13.600000000000005 24.400000000000002 12.300000000000004 23.7 C 11.000000000000004 23 10.000000000000004 22 9.300000000000004 20.599999999999998 C 8.600000000000005 19.299999999999997 8.200000000000005 17.7 8.200000000000005 15.899999999999999 C 8.200000000000005 14.099999999999998 8.600000000000005 12.499999999999998 9.300000000000004 11.2 C 10.000000000000004 9.899999999999999 11.000000000000004 8.799999999999999 12.300000000000004 8.1 C 13.600000000000005 7.4 15.100000000000005 7 16.800000000000004 7 C 19.1 7.2 20.9 7.8 22.4 9 z" stroke-linecap="round" />
</g>
		<g transform="matrix(1 0 0 1 -71.15 12.25)" id="rDuV_xX5pvhyNj5GCcx23"  >
<path style="stroke: none; stroke-width: 1; stroke-dasharray: none; stroke-linecap: butt; stroke-dashoffset: 0; stroke-linejoin: miter; stroke-miterlimit: 4; fill: rgb(27,171,161); fill-rule: nonzero; opacity: 1;" vector-effect="non-scaling-stroke"  transform=" translate(-28.85, -34.8)" d="M 41.3 24.5 L 41.3 24.5 L 33.4 24.5 L 33.4 28.2 L 38.699999999999996 28.2 L 31.499999999999996 35.4 L 27 30.9 C 26.2 30.099999999999998 25 30.099999999999998 24.2 30.9 L 12.7 42.5 L 15.299999999999999 45.1 L 25.6 34.8 L 30.1 39.3 C 30.900000000000002 40.099999999999994 32.1 40.099999999999994 32.9 39.3 L 41.3 30.9 L 41.3 36.1 L 45 36.1 L 45 28.200000000000003 L 45 24.500000000000004 L 45 24.500000000000004 L 41.3 24.500000000000004 z" stroke-linecap="round" />
</g>
		<g transform="matrix(1 0 0 1 -41.25 -10.05)" id="3tW2gB9Jq9vYtz187YrLw"  >
<path style="stroke: none; stroke-width: 1; stroke-dasharray: none; stroke-linecap: butt; stroke-dashoffset: 0; stroke-linejoin: miter; stroke-miterlimit: 4; fill: rgb(255,255,255); fill-rule: nonzero; opacity: 1;" vector-effect="non-scaling-stroke"  transform=" translate(-58.75, -12.5)" d="M 60.4 6.4 C 59 6.4 57.9 6.9 57.1 8 C 56.300000000000004 9.1 55.9 10.6 55.9 12.5 C 55.9 16.5 57.4 18.5 60.4 18.5 C 61.699999999999996 18.5 63.199999999999996 18.2 64.9 17.6 L 64.9 20.8 C 63.400000000000006 21.400000000000002 61.800000000000004 21.7 60.00000000000001 21.7 C 57.400000000000006 21.7 55.400000000000006 20.9 54.10000000000001 19.3 C 52.70000000000001 17.7 52.00000000000001 15.5 52.00000000000001 12.5 C 52.00000000000001 10.6 52.300000000000004 9 53.00000000000001 7.6 C 53.70000000000001 6.199999999999999 54.60000000000001 5.1 55.900000000000006 4.3999999999999995 C 57.2 3.6999999999999993 58.60000000000001 3.2999999999999994 60.300000000000004 3.2999999999999994 C 62.00000000000001 3.2999999999999994 63.800000000000004 3.6999999999999993 65.5 4.6 L 64.3 7.699999999999999 C 63.599999999999994 7.3999999999999995 63 7.1 62.3 6.8999999999999995 C 61.7 6.5 61 6.4 60.4 6.4 z" stroke-linecap="round" />
</g>
		<g transform="matrix(1 0 0 1 -27.25 -8.1)" id="ZhSmjkHWTtJdztvOi-fMe"  >
<path style="stroke: none; stroke-width: 1; stroke-dasharray: none; stroke-linecap: butt; stroke-dashoffset: 0; stroke-linejoin: miter; stroke-miterlimit: 4; fill: rgb(255,255,255); fill-rule: nonzero; opacity: 1;" vector-effect="non-scaling-stroke"  transform=" translate(-72.75, -14.45)" d="M 79.4 14.5 C 79.4 16.7 78.80000000000001 18.5 77.60000000000001 19.7 C 76.4 20.9 74.80000000000001 21.599999999999998 72.7 21.599999999999998 C 71.4 21.599999999999998 70.2 21.299999999999997 69.2 20.7 C 68.2 20.099999999999998 67.4 19.3 66.9 18.2 C 66.4 17.099999999999998 66.10000000000001 15.899999999999999 66.10000000000001 14.399999999999999 C 66.10000000000001 12.2 66.7 10.399999999999999 67.80000000000001 9.2 C 68.90000000000002 8 70.60000000000001 7.299999999999999 72.70000000000002 7.299999999999999 C 74.00000000000001 7.299999999999999 75.20000000000002 7.599999999999999 76.20000000000002 8.2 C 77.20000000000002 8.8 78.00000000000001 9.6 78.50000000000001 10.7 C 79.2 11.8 79.4 13 79.4 14.5 z M 70 14.5 C 70 15.8 70.2 16.9 70.7 17.6 C 71.10000000000001 18.3 71.9 18.6 72.9 18.6 C 73.9 18.6 74.60000000000001 18.3 75 17.6 C 75.4 16.900000000000002 75.7 15.900000000000002 75.7 14.500000000000002 C 75.7 13.200000000000001 75.5 12.100000000000001 75 11.500000000000002 C 74.5 10.900000000000002 73.8 10.500000000000002 72.8 10.500000000000002 C 71.8 10.500000000000002 71.1 10.800000000000002 70.7 11.500000000000002 C 70.2 12.1 70 13.1 70 14.5 z" stroke-linecap="round" />
</g>
		<g transform="matrix(1 0 0 1 -16.9 -10.75)" id="ijWanKc2lqlECm6U2YZt2"  >
<path style="stroke: none; stroke-width: 1; stroke-dasharray: none; stroke-linecap: butt; stroke-dashoffset: 0; stroke-linejoin: miter; stroke-miterlimit: 4; fill: rgb(255,255,255); fill-rule: nonzero; opacity: 1;" vector-effect="non-scaling-stroke"  transform=" translate(-83.1, -11.8)" d="M 81.1 4.1 C 81.1 2.8999999999999995 81.8 2.3 83.1 2.3 C 84.39999999999999 2.3 85.1 2.9 85.1 4.1 C 85.1 4.699999999999999 84.89999999999999 5.1 84.6 5.3999999999999995 C 84.3 5.8 83.8 6 83.1 6 C 81.7 6 81.1 5.4 81.1 4.1 z M 84.9 21.3 L 81.2 21.3 L 81.2 7.7 L 84.9 7.7 L 84.9 21.3 z" stroke-linecap="round" />
</g>
		<g transform="matrix(1 0 0 1 -6.2 -8.2)" id="d2mnfiUO7XARbb1Xy5199"  >
<path style="stroke: none; stroke-width: 1; stroke-dasharray: none; stroke-linecap: butt; stroke-dashoffset: 0; stroke-linejoin: miter; stroke-miterlimit: 4; fill: rgb(255,255,255); fill-rule: nonzero; opacity: 1;" vector-effect="non-scaling-stroke"  transform=" translate(-93.8, -14.35)" d="M 100.1 21.3 L 96.39999999999999 21.3 L 96.39999999999999 13.3 C 96.39999999999999 12.3 96.19999999999999 11.600000000000001 95.89999999999999 11.100000000000001 C 95.6 10.600000000000001 94.99999999999999 10.400000000000002 94.19999999999999 10.400000000000002 C 93.19999999999999 10.400000000000002 92.39999999999999 10.700000000000003 91.89999999999999 11.400000000000002 C 91.39999999999999 12.100000000000001 91.19999999999999 13.200000000000003 91.19999999999999 14.900000000000002 L 91.19999999999999 21.300000000000004 L 87.49999999999999 21.300000000000004 L 87.49999999999999 7.7 L 90.29999999999998 7.7 L 90.79999999999998 9.4 L 90.99999999999999 9.4 C 91.39999999999999 8.700000000000001 91.99999999999999 8.200000000000001 92.69999999999999 7.9 C 93.39999999999999 7.6 94.29999999999998 7.4 95.19999999999999 7.4 C 96.79999999999998 7.4 97.99999999999999 7.800000000000001 98.79999999999998 8.700000000000001 C 99.59999999999998 9.600000000000001 99.99999999999999 10.8 99.99999999999999 12.400000000000002 L 99.99999999999999 21.3 z" stroke-linecap="round" />
</g>
		<g transform="matrix(1 0 0 1 8.95 -10.05)" id="onb43xCxxNUjXoNHcutEy"  >
<path style="stroke: none; stroke-width: 1; stroke-dasharray: none; stroke-linecap: butt; stroke-dashoffset: 0; stroke-linejoin: miter; stroke-miterlimit: 4; fill: rgb(255,255,255); fill-rule: nonzero; opacity: 1;" vector-effect="non-scaling-stroke"  transform=" translate(-108.95, -12.5)" d="M 110.6 6.4 C 109.19999999999999 6.4 108.1 6.9 107.3 8 C 106.5 9.1 106.1 10.6 106.1 12.5 C 106.1 16.5 107.6 18.5 110.6 18.5 C 111.89999999999999 18.5 113.39999999999999 18.2 115.1 17.6 L 115.1 20.8 C 113.6 21.400000000000002 112 21.7 110.19999999999999 21.7 C 107.6 21.7 105.6 20.9 104.29999999999998 19.3 C 102.89999999999998 17.7 102.19999999999999 15.5 102.19999999999999 12.5 C 102.19999999999999 10.6 102.49999999999999 9 103.19999999999999 7.6 C 103.89999999999999 6.199999999999999 104.79999999999998 5.1 106.1 4.3999999999999995 C 107.39999999999999 3.6999999999999993 108.8 3.2999999999999994 110.5 3.2999999999999994 C 112.2 3.2999999999999994 114 3.6999999999999993 115.7 4.6 L 114.5 7.699999999999999 C 113.8 7.3999999999999995 113.2 7.1 112.5 6.8999999999999995 C 111.9 6.5 111.3 6.4 110.6 6.4 z" stroke-linecap="round" />
</g>
		<g transform="matrix(1 0 0 1 23.7 -10.75)" id="80cYATTu-4vVUrqncU6fk"  >
<path style="stroke: none; stroke-width: 1; stroke-dasharray: none; stroke-linecap: butt; stroke-dashoffset: 0; stroke-linejoin: miter; stroke-miterlimit: 4; fill: rgb(255,255,255); fill-rule: nonzero; opacity: 1;" vector-effect="non-scaling-stroke"  transform=" translate(-123.7, -11.8)" d="M 130 21.3 L 126.3 21.3 L 126.3 13.3 C 126.3 11.3 125.6 10.4 124.1 10.4 C 123.1 10.4 122.3 10.8 121.8 11.5 C 121.3 12.2 121.1 13.4 121.1 14.9 L 121.1 21.3 L 117.39999999999999 21.3 L 117.39999999999999 2.3000000000000007 L 121.1 2.3000000000000007 L 121.1 6.200000000000001 C 121.1 6.500000000000001 121.1 7.200000000000001 121 8.3 L 120.9 9.4 L 121.10000000000001 9.4 C 121.9 8.1 123.2 7.4 125.00000000000001 7.4 C 126.60000000000001 7.4 127.80000000000001 7.800000000000001 128.60000000000002 8.700000000000001 C 129.40000000000003 9.600000000000001 129.8 10.8 129.8 12.400000000000002 L 129.8 21.3 z" stroke-linecap="round" />
</g>
		<g transform="matrix(1 0 0 1 37.95 -8.1)" id="38y5Fx5CfLX_Rcg17hC51"  >
<path style="stroke: none; stroke-width: 1; stroke-dasharray: none; stroke-linecap: butt; stroke-dashoffset: 0; stroke-linejoin: miter; stroke-miterlimit: 4; fill: rgb(255,255,255); fill-rule: nonzero; opacity: 1;" vector-effect="non-scaling-stroke"  transform=" translate(-137.95, -14.45)" d="M 138.7 21.5 C 136.5 21.5 134.79999999999998 20.9 133.6 19.7 C 132.4 18.5 131.7 16.8 131.7 14.6 C 131.7 12.3 132.29999999999998 10.6 133.39999999999998 9.3 C 134.49999999999997 8.100000000000001 136.09999999999997 7.4 138.09999999999997 7.4 C 139.99999999999997 7.4 141.49999999999997 7.9 142.59999999999997 9 C 143.69999999999996 10.1 144.19999999999996 11.6 144.19999999999996 13.5 L 144.19999999999996 15.3 L 135.39999999999995 15.3 C 135.39999999999995 16.400000000000002 135.79999999999995 17.2 136.29999999999995 17.8 C 136.89999999999995 18.400000000000002 137.69999999999996 18.7 138.79999999999995 18.7 C 139.59999999999997 18.7 140.39999999999995 18.599999999999998 141.09999999999997 18.4 C 141.79999999999995 18.2 142.59999999999997 18 143.39999999999998 17.599999999999998 L 143.39999999999998 20.499999999999996 C 142.7 20.799999999999997 142.09999999999997 21.099999999999998 141.29999999999998 21.199999999999996 C 140.7 21.5 139.8 21.5 138.7 21.5 z M 138.2 10.1 C 137.39999999999998 10.1 136.79999999999998 10.4 136.29999999999998 10.799999999999999 C 135.89999999999998 11.299999999999999 135.6 11.999999999999998 135.49999999999997 12.899999999999999 L 140.69999999999996 12.899999999999999 C 140.69999999999996 11.999999999999998 140.39999999999995 11.299999999999999 139.99999999999997 10.799999999999999 C 139.6 10.3 139 10.1 138.2 10.1 z" stroke-linecap="round" />
</g>
		<g transform="matrix(1 0 0 1 50.85 -8.1)" id="1gbHd41gZ0GG6FiCLwbT_"  >
<path style="stroke: none; stroke-width: 1; stroke-dasharray: none; stroke-linecap: butt; stroke-dashoffset: 0; stroke-linejoin: miter; stroke-miterlimit: 4; fill: rgb(255,255,255); fill-rule: nonzero; opacity: 1;" vector-effect="non-scaling-stroke"  transform=" translate(-150.85, -14.45)" d="M 151.8 21.5 C 147.60000000000002 21.5 145.4 19.2 145.4 14.5 C 145.4 12.2 146 10.4 147.1 9.2 C 148.29999999999998 7.999999999999999 149.9 7.3999999999999995 152.1 7.3999999999999995 C 153.7 7.3999999999999995 155.1 7.699999999999999 156.29999999999998 8.299999999999999 L 155.2 11.2 C 154.6 11 154.1 10.799999999999999 153.6 10.6 C 153.1 10.5 152.6 10.4 152.1 10.4 C 150.2 10.4 149.2 11.8 149.2 14.5 C 149.2 17.2 150.2 18.5 152.1 18.5 C 152.79999999999998 18.5 153.5 18.4 154.1 18.2 C 154.7 18 155.29999999999998 17.7 155.9 17.3 L 155.9 20.5 C 155.3 20.9 154.70000000000002 21.1 154.1 21.3 C 153.5 21.5 152.8 21.5 151.8 21.5 z" stroke-linecap="round" />
</g>
		<g transform="matrix(1 0 0 1 64.55 -10.75)" id="0QdGPIW0VlCNkCS7pl_zJ"  >
<path style="stroke: none; stroke-width: 1; stroke-dasharray: none; stroke-linecap: butt; stroke-dashoffset: 0; stroke-linejoin: miter; stroke-miterlimit: 4; fill: rgb(255,255,255); fill-rule: nonzero; opacity: 1;" vector-effect="non-scaling-stroke"  transform=" translate(-164.55, -11.8)" d="M 161.4 13.9 L 163 11.8 L 166.8 7.700000000000001 L 171 7.700000000000001 L 165.6 13.600000000000001 L 171.29999999999998 21.3 L 166.99999999999997 21.3 L 163.09999999999997 15.8 L 161.49999999999997 17.1 L 161.49999999999997 21.3 L 157.79999999999998 21.3 L 157.79999999999998 2.3000000000000007 L 161.49999999999997 2.3000000000000007 L 161.49999999999997 10.8 L 161.4 13.9 L 161.4 13.9 z" stroke-linecap="round" />
</g>
		<g transform="matrix(1 0 0 1 78.5 -7.9)" id="pmHzsGHZZDC4ZcactdQoL"  >
<path style="stroke: none; stroke-width: 1; stroke-dasharray: none; stroke-linecap: butt; stroke-dashoffset: 0; stroke-linejoin: miter; stroke-miterlimit: 4; fill: rgb(255,255,255); fill-rule: nonzero; opacity: 1;" vector-effect="non-scaling-stroke"  transform=" translate(-178.5, -14.65)" d="M 181.9 21.3 L 181.4 19.6 L 181.20000000000002 19.6 C 180.8 20.200000000000003 180.20000000000002 20.700000000000003 179.50000000000003 21.1 C 178.80000000000004 21.400000000000002 177.90000000000003 21.6 177.00000000000003 21.6 C 175.40000000000003 21.6 174.20000000000002 21.200000000000003 173.40000000000003 20.3 C 172.60000000000002 19.400000000000002 172.20000000000005 18.2 172.20000000000005 16.6 L 172.20000000000005 7.7 L 175.90000000000003 7.7 L 175.90000000000003 15.7 C 175.90000000000003 16.7 176.10000000000002 17.4 176.40000000000003 17.9 C 176.70000000000005 18.4 177.30000000000004 18.599999999999998 178.10000000000002 18.599999999999998 C 179.10000000000002 18.599999999999998 179.90000000000003 18.299999999999997 180.40000000000003 17.599999999999998 C 180.90000000000003 16.9 181.10000000000002 15.799999999999997 181.10000000000002 14.099999999999998 L 181.10000000000002 7.7 L 184.8 7.7 L 184.8 21.3 L 181.9 21.3 z" stroke-linecap="round" />
</g>
		<g transform="matrix(1 0 0 1 93.7 -5.15)" id="z2cRxg9WsmDnSnBakd-fx"  >
<path style="stroke: none; stroke-width: 1; stroke-dasharray: none; stroke-linecap: butt; stroke-dashoffset: 0; stroke-linejoin: miter; stroke-miterlimit: 4; fill: rgb(255,255,255); fill-rule: nonzero; opacity: 1;" vector-effect="non-scaling-stroke"  transform=" translate(-193.7, -17.4)" d="M 194.8 21.5 C 193.20000000000002 21.5 191.9 20.9 191 19.8 L 190.8 19.8 C 190.9 20.900000000000002 191 21.6 191 21.8 L 191 27.3 L 187.3 27.3 L 187.3 7.7 L 190.3 7.7 L 190.8 9.5 L 191 9.5 C 191.9 8.2 193.2 7.5 194.9 7.5 C 196.5 7.5 197.8 8.1 198.70000000000002 9.4 C 199.60000000000002 10.6 200.10000000000002 12.4 200.10000000000002 14.600000000000001 C 200.10000000000002 16.1 199.90000000000003 17.3 199.50000000000003 18.400000000000002 C 199.10000000000002 19.500000000000004 198.50000000000003 20.3 197.70000000000002 20.900000000000002 C 196.7 21.3 195.8 21.5 194.8 21.5 z M 193.7 10.4 C 192.79999999999998 10.4 192.1 10.700000000000001 191.7 11.200000000000001 C 191.29999999999998 11.8 191.1 12.700000000000001 191 14 L 191 14.4 C 191 15.9 191.2 16.9 191.7 17.5 C 192.1 18.1 192.79999999999998 18.5 193.79999999999998 18.5 C 195.49999999999997 18.5 196.29999999999998 17.1 196.29999999999998 14.4 C 196.29999999999998 13.1 196.1 12.100000000000001 195.7 11.4 C 195.2 10.7 194.5 10.4 193.7 10.4 z" stroke-linecap="round" />
</g>
</g>
</g>
</svg>