<?xml version="1.0" encoding="UTF-8" standalone="no" ?>
<!DOCTYPE svg PUBLIC "-//W3C//DTD SVG 1.1//EN" "http://www.w3.org/Graphics/SVG/1.1/DTD/svg11.dtd">
<svg xmlns="http://www.w3.org/2000/svg" xmlns:xlink="http://www.w3.org/1999/xlink" version="1.1" width="200" height="75" viewBox="0 0 200 75" xml:space="preserve">
<desc>Created with Fabric.js 5.3.0</desc>
<defs>
</defs>
<g transform="matrix(1.0996861564 0 0 1.6031483756 100 37.5)" id="8tBM8DXD_k_dlQbQ-lQDY"  >
<g style="" vector-effect="non-scaling-stroke"   >
		<g transform="matrix(1 0 0 1 -72.1497146798 2.6405552787)" id="tv9ZtoNJNEIFioUBm2aPq"  >
<path style="stroke: none; stroke-width: 1; stroke-dasharray: none; stroke-linecap: butt; stroke-dashoffset: 0; stroke-linejoin: miter; stroke-miterlimit: 4; fill: rgb(202,49,44); fill-rule: evenodd; opacity: 1;" vector-effect="non-scaling-stroke"  transform=" translate(-13.2802853202, -16.7605552787)" d="M 26.38 9.72 C 26.178859426324117 9.042484699827 25.81493640006704 8.424502202409318 25.32 7.92 C 23.11 5.460000000000001 21.08 4.530000000000001 17.72 6.090000000000001 L 17.549999999999997 6.090000000000001 C 16.272854576782592 6.143997974890704 15.182901675388036 7.030601454383291 14.869999999999997 8.27 C 13.629999999999997 11.840000000000002 12.299999999999997 15.370000000000001 10.999999999999996 18.910000000000004 C 10.809999999999997 19.170000000000005 10.619999999999996 19.430000000000003 10.419999999999996 19.680000000000003 C 8.039999999999996 21.430000000000003 5.739999999999997 23.060000000000002 2.4199999999999964 21.680000000000003 C 1.2099999999999964 21.190000000000005 -0.7600000000000038 21.340000000000003 0.26999999999999647 23.810000000000002 C 0.3254227138283855 24.14004709310896 0.5041420191914383 24.436721140011628 0.7699999999999967 24.64 C 1.0828965530908943 24.97729335815075 1.4516374205961904 25.258077688452946 1.859999999999995 25.47 C 6.489999999999997 28.47 11.559999999999995 29.13 16.449999999999996 26.77 C 21.999999999999996 24.1 26.039999999999996 19.88 26.449999999999996 13.26 C 26.642689667871988 12.085601213707315 26.61896603525854 10.88586322154152 26.379999999999995 9.720000000000002 z" stroke-linecap="round" />
</g>
		<g transform="matrix(1 0 0 1 -64.2839299624 -8.8516911959)" id="dIpfWn1m50BBzPuNigOip"  >
<path style="stroke: none; stroke-width: 1; stroke-dasharray: none; stroke-linecap: butt; stroke-dashoffset: 0; stroke-linejoin: miter; stroke-miterlimit: 4; fill: rgb(145,185,73); fill-rule: evenodd; opacity: 1;" vector-effect="non-scaling-stroke"  transform=" translate(-21.1460700376, -5.2683088041)" d="M 24.4 6.23 C 24.433047225321353 5.307261586922781 24.533312905538892 4.388159518261979 24.699999999999996 3.4800000000000053 C 24.98 1.1000000000000005 23.7 0.07000000000000028 22.7 0.010000000000000231 C 21.73308524494818 -0.04429530109827347 20.78954443424738 0.32000617021477706 20.11 1.0100000000000002 C 19.749418391537866 1.3365807610677587 19.701463938760952 1.8858772201488054 20 2.27 C 20.47 2.76 20.88 2.75 21.15 1.73 C 21.599999999999998 0.08000000000000007 23.52 1.73 23.459999999999997 2.57 C 23.359999999999996 4.25 22.15 4.88 21.089999999999996 5.57 C 20.029999999999994 6.260000000000001 19 6.41 17.27 7 C 17.080727010041898 7.088549038907229 16.955079537689013 7.273566787823872 16.942564313430097 7.482153858805806 C 16.930049089171185 7.690740929787741 17.032672655913327 7.889454941050085 17.21 8 C 17.650612053307892 8.069467521752596 18.099387946692108 8.069467521752594 18.54 7.999999999999998 C 19.95 7.77 20.38 8.19 20.82 9.58 C 21.670582290572295 9.16813297298108 22.62943551764165 9.035153328351024 23.560000000000002 9.2 C 24.490000000000002 9.54 24.500000000000004 10.11 24.820000000000004 10.51 C 24.945919015929423 10.55349670234722 25.08522916655492 10.531449807025929 25.191563905053947 10.451197174196475 C 25.297898643552976 10.37094454136702 25.357300958878106 10.243019764272743 25.350000000000005 10.11 C 24.675240932513386 8.931546790821434 24.346006693712475 7.586884847087187 24.400000000000006 6.230000000000002 z" stroke-linecap="round" />
</g>
		<g transform="matrix(1 0 0 1 17.1451830555 2.8551668876)" id="l_hJAWE23udCmfTweFF_X"  >
<path style="stroke: none; stroke-width: 1; stroke-dasharray: none; stroke-linecap: butt; stroke-dashoffset: 0; stroke-linejoin: miter; stroke-miterlimit: 4; fill: rgb(174,244,182); fill-rule: evenodd; opacity: 1;" vector-effect="non-scaling-stroke"  transform=" translate(-102.5751830555, -16.9751668876)" d="M 42.09 20.54 C 41.82644458366985 20.60536480574973 41.55933286485104 20.655448253028258 41.290000000000006 20.689999999999998 C 41.036867110696946 20.704251898727538 40.78313288930307 20.704251898727538 40.53000000000001 20.689999999999998 C 40.068879240716456 20.696001317982866 39.61079792245447 20.614564639180735 39.18000000000001 20.45 C 38.80317179353826 20.28595488106476 38.46311782000324 20.047917099590247 38.18000000000001 19.75 C 37.8881319464445 19.425958152267402 37.660736933237835 19.049229100536955 37.510000000000005 18.64 C 37.35210470910024 18.16275893648948 37.274385294762055 17.662651400748135 37.28000000000001 17.16 C 37.27281852600206 16.667838225884182 37.347156689002254 16.17788215156475 37.50000000000001 15.710000000000003 C 37.63054531649079 15.297228393769986 37.84503622490103 14.915911223262903 38.13000000000001 14.59 C 38.40618101598933 14.27921698908528 38.74766575802315 14.033347974820925 39.13000000000001 13.87 C 39.566552486103106 13.68710149046449 40.03682171555942 13.59850004143649 40.51000000000001 13.61 C 41.03227162513724 13.61324371072104 41.55240789004371 13.67700234964506 42.06000000000001 13.8 C 42.582111364989885 13.922396909573106 43.088675067304045 14.103552140864263 43.57000000000001 14.34 L 43.57000000000001 11.719999999999999 C 43.12055906423681 11.589463521904975 42.6628638940004 11.489238302145177 42.20000000000001 11.419999999999998 C 41.58066487896706 11.332118244079926 40.95548796487176 11.291999939432099 40.33000000000001 11.299999999999999 C 39.48370353877058 11.286812734445117 38.64245745891889 11.432673949903274 37.850000000000016 11.729999999999997 C 36.40594794539586 12.26707738671991 35.267077386719926 13.405947945395841 34.73000000000002 14.85 C 34.430085660267295 15.645503978011991 34.28087740041219 16.48988708491931 34.29000000000002 17.339999999999996 C 34.27717174739692 18.193503362809672 34.412511802242996 19.042762206968824 34.69000000000002 19.849999999999994 C 35.18137360723879 21.23698161089108 36.29024692103343 22.31628496965119 37.69000000000002 22.769999999999996 C 38.47688880316314 23.029042966650156 39.301689667196065 23.154115228819084 40.13000000000002 23.139999999999997 C 40.733045829150164 23.14933638723177 41.33565000336536 23.1024671736817 41.930000000000014 22.999999999999996 C 42.505703885260026 22.901195795345 43.06899636665963 22.740255086373683 43.610000000000014 22.519999999999996 L 43.610000000000014 20.049999999999997 C 43.37191690396109 20.153604514269066 43.1281992797999 20.243746649232794 42.88000000000002 20.319999999999997 C 42.62000000000002 20.399999999999995 42.360000000000014 20.479999999999997 42.09000000000002 20.539999999999996 z M 55.92 12.73 C 55.44796152362694 12.229759156461077 54.86592782167551 11.84630165870485 54.22 11.61 C 53.48559656522096 11.347163768468787 52.709934559469154 11.21845129589862 51.92999999999999 11.229999999999997 C 51.1186875455106 11.218629912514489 50.3131670906071 11.368178013846784 49.56 11.669999999999998 C 48.88728343696422 11.94122324997442 48.28285728256159 12.35783336769827 47.79 12.89 C 47.287084380692086 13.441248679472345 46.90551927227274 14.091953462580326 46.67 14.799999999999999 C 46.40083759672589 15.59869993467594 46.268970775101636 16.437237672184033 46.28 17.279999999999998 C 46.26768932590307 18.154055063208176 46.392539654298794 19.024633028778368 46.65 19.859999999999992 C 46.866673916946574 20.549870749947875 47.23578886165125 21.18215097930312 47.73 21.71 C 48.19935356291615 22.213428621002002 48.782202761248605 22.59742338696221 49.43 22.830000000000002 C 50.16299778782593 23.08380742680176 50.93435623234291 23.208984016482145 51.71 23.200000000000003 C 52.527869681569534 23.212165999512614 53.34008562785672 23.062636703961832 54.1 22.76 C 54.773340247348195 22.480640477543457 55.37744968282415 22.057422567944485 55.870000000000005 21.520000000000003 C 56.37556739031496 20.961356383183315 56.76027375018193 20.304291538454766 57 19.59 C 57.268421935146584 18.794566299869693 57.400283998261465 17.9594399001421 57.39 17.119999999999997 C 57.395307723457314 16.258024279057018 57.26366768663803 15.40067634695197 57 14.580000000000004 C 56.783326083053424 13.890129250052127 56.41421113834874 13.257849020696884 55.92 12.730000000000002 z M 54.33 18.62 C 54.24275356372221 19.028166938618934 54.08360877701403 19.417563757160224 53.86 19.77 C 53.65946826415673 20.094582637492664 53.37654092122443 20.360258313172988 53.04 20.54 C 52.67086092682152 20.735313294256606 52.25745936234211 20.8317736593018 51.839999999999996 20.82 C 51.06449757328078 20.862702875468216 50.31728457998101 20.52272096351682 49.839999999999996 19.91 C 49.30610571821806 19.115254490911116 49.052720150200166 18.16505861084402 49.12 17.210000000000004 C 49.11719206022877 16.739177332891654 49.167510263055604 16.26954077317453 49.269999999999996 15.810000000000002 C 49.35601782905349 15.40292355803007 49.51893189851771 15.016002643052548 49.74999999999999 14.670000000000002 C 49.96212316053722 14.348889716524864 50.24634586489874 14.081788861823672 50.57999999999999 13.89 C 50.960798569918104 13.697111893492727 51.3832313980332 13.6009483228649 51.80999999999999 13.610000000000001 C 52.585332893736286 13.5560586594499 53.33616983263233 13.89393528195312 53.80999999999999 14.510000000000002 C 54.313278941905054 15.309084326835473 54.54802997140541 16.248088444836906 54.47999999999999 17.19 C 54.48750166666484 17.670956087038977 54.43714014317631 18.15106927762968 54.32999999999999 18.620000000000005 z M 63.4 9.620000000000001 C 63.571924659033115 9.78634530942053 63.77612922763025 9.91567486953205 64 10.000000000000002 C 64.45847864395469 10.186221633108286 64.97152135604532 10.186221633108286 65.43 10.000000000000002 C 65.64402098592912 9.909155557238597 65.83779399241034 9.77657402648829 66 9.610000000000001 C 66.15432650977202 9.432387069279217 66.2701023294926 9.22467162801582 66.34 9.000000000000002 C 66.52611452669997 8.555356567951968 66.52611452669997 8.054643432048035 66.34 7.610000000000001 C 66.25880032197534 7.4116651437159655 66.14375593294488 7.228947584667601 66 7.070000000000001 C 65.83513558147308 6.906614884203061 65.64201172747332 6.774477510413747 65.43 6.6800000000000015 C 64.97152135604532 6.4937783668917195 64.45847864395469 6.493778366891719 64 6.680000000000002 C 63.78798827252668 6.774477510413747 63.59486441852692 6.906614884203061 63.43 7.070000000000002 C 63.26527267213801 7.2355317846199725 63.13597912585478 7.432874565789104 63.05 7.650000000000003 C 62.858695423196515 8.076442089102974 62.84076457657346 8.560574947925547 63 9 C 63.08425930708362 9.23158404593758 63.22119598687257 9.440412482615734 63.4 9.61 z M 66.25 11.490000000000002 L 60.25 11.490000000000002 L 60.25 13.630000000000003 L 63.49 13.630000000000003 L 63.49 20.800000000000004 L 59.8 20.800000000000004 L 59.8 22.940000000000005 L 69.56 22.940000000000005 L 69.56 20.8 L 66.25 20.8 z M 81.14 12.340000000000002 C 80.84485765177467 11.988636420681942 80.47156682443102 11.711236815041252 80.05 11.530000000000001 C 79.56197622499408 11.328779647718346 79.03778613184997 11.230068526282118 78.50999999999999 11.240000000000002 C 78.12554776710422 11.237225003438658 77.7423567913919 11.284283544315612 77.36999999999999 11.380000000000003 C 77.04094008437244 11.46827543883766 76.72490284835118 11.59939727080393 76.42999999999999 11.770000000000003 C 76.13206351404621 11.937981715267313 75.85654785513196 12.142938485923029 75.61 12.380000000000003 C 75.35168337850811 12.63259848453341 75.1079557675618 12.899697236255404 74.88 13.180000000000007 L 74.81 11.490000000000004 L 72.43 11.490000000000004 L 72.43 22.940000000000005 L 75.19000000000001 22.940000000000005 L 75.19000000000001 15.690000000000005 C 75.58246375177299 15.131907964423378 76.03151220766688 14.615837350933385 76.53000000000002 14.15000000000001 C 76.89071923399982 13.802024090207013 77.36894360411293 13.602169129562729 77.87000000000002 13.590000000000005 C 78.80000000000003 13.590000000000005 79.27000000000002 14.220000000000006 79.27000000000002 15.470000000000006 L 79.27000000000002 22.940000000000005 L 82 22.940000000000005 L 82 15.250000000000004 C 82.00806207038248 14.688895884651808 81.93394296818465 14.129633568068218 81.78 13.590000000000003 C 81.65200966333398 13.131840559178613 81.43448574482484 12.70359034461374 81.14 12.330000000000004 z M 94.34 12.800000000000002 C 93.99331286905401 12.31102228511193 93.5335996208359 11.91306156277387 93 11.64 C 92.43818156451411 11.360425827944622 91.8174535984132 11.219818940595795 91.19 11.23 C 90.80554776710423 11.227225003438656 90.4223567913919 11.27428354431561 90.05 11.370000000000001 C 89.7178916642316 11.45864155401826 89.39859424112282 11.589721548768178 89.1 11.760000000000002 C 88.80688659900554 11.930675322730947 88.53499665415788 12.135431947863133 88.28999999999999 12.370000000000001 C 88.02902748399887 12.620019567991159 87.78514510951483 12.887287923590108 87.55999999999999 13.170000000000002 L 87.49 11.480000000000002 L 85.13 11.480000000000002 L 85.13 27.410000000000004 L 87.88 27.410000000000004 L 87.88 22.940000000000005 C 88.13645079398192 23.004642764239332 88.39707610317447 23.051421665889276 88.66 23.080000000000005 C 88.9449339948663 23.119865803718174 89.23229067388951 23.139913944115143 89.52 23.140000000000004 C 90.3218220209956 23.14950321018734 91.11955803256083 23.02443442871313 91.88 22.770000000000003 C 92.57811546033275 22.538734166050972 93.21661961041359 22.15631456814159 93.75 21.65 C 94.30527792133584 21.111755008921886 94.73247324581345 20.45558299052427 95 19.73 C 95.31149987811277 18.854338571558117 95.46060838939322 17.929188035658964 95.44 17 C 95.45143193893806 16.191227688336397 95.35730434556494 15.384419745138253 95.16 14.6 C 94.99798640184412 13.952177371314031 94.72018535785057 13.338982383962406 94.34 12.789999999999997 z M 92.34 18.740000000000002 C 92.2246573484798 19.176284043977073 92.02786802333067 19.586827291270918 91.76 19.950000000000003 C 91.51795816531607 20.268809312537673 91.20683895617161 20.528645135559422 90.85000000000001 20.710000000000004 C 90.48232801132798 20.899592091414284 90.07363599127807 20.995754919661323 89.66000000000001 20.990000000000006 C 89.32508189171543 20.9896635179217 88.99071191327911 20.962913919646795 88.66000000000001 20.910000000000007 C 88.38380191185865 20.866562384410365 88.11251172060284 20.79622789038108 87.85000000000001 20.700000000000006 L 87.85000000000001 15.700000000000006 C 88.2485432616111 15.14374393624334 88.7007099000621 14.627939030158501 89.2 14.160000000000007 C 89.5607192339998 13.812024090207014 90.03894360411292 13.61216912956273 90.54 13.600000000000007 C 91.14226851067772 13.576521608448338 91.70662854848445 13.893490944750743 92 14.420000000000007 C 92.19013313241791 14.762487630359239 92.32193411198641 15.134233982988333 92.39 15.520000000000005 C 92.48595553895305 16.051114141266275 92.52949801624294 16.590370975394926 92.52 17.130000000000003 C 92.53833832276563 17.668655514178482 92.48111542680874 18.207223946713807 92.35 18.730000000000008 z M 106.21000000000001 12.21 C 105.76130138239833 11.866911405863629 105.247578862178 11.618555485492212 104.7 11.48 C 103.9830824759774 11.307733471877098 103.24721084161443 11.227090005097594 102.51 11.24 C 101.75777512736306 11.236549453865491 101.00718021690435 11.310268596856972 100.27000000000001 11.46 C 99.62146265254361 11.581419863896762 98.98545517083132 11.762179885014996 98.37 12.000000000000002 L 98.37 14.2 C 98.98658344697135 13.919495930025565 99.62982212484462 13.701732835953885 100.29 13.55 C 100.94495088975474 13.39295326352629 101.61649716141363 13.315725442285515 102.29 13.319999999999999 C 102.65443191693775 13.310034132939803 103.01834270848522 13.353838209700147 103.37 13.45 C 103.63537184904673 13.52642091804724 103.88101611352552 13.659478227973247 104.09 13.84 C 104.27076290988893 14.003961779781505 104.4081748609282 14.210079706340418 104.49000000000001 14.44 C 104.57261227043797 14.695074928145246 104.61314251356256 14.961899028715434 104.61000000000001 15.23 L 104.61000000000001 15.92 L 103.11000000000001 15.92 C 102.27492613207481 15.910238605459407 101.44187578687772 16.00429267669134 100.63000000000001 16.200000000000003 C 100.00585988541525 16.356584090925963 99.41370476543365 16.62051608726062 98.88000000000001 16.980000000000004 C 98.45392935555974 17.28845022532205 98.11046378093411 17.697174259126548 97.88000000000001 18.169999999999998 C 97.64592261419679 18.635130059633312 97.52594812405422 19.149306445958594 97.53000000000002 19.67 C 97.52677953725794 20.15939558607162 97.60449413342265 20.645956535972463 97.76000000000002 21.110000000000007 C 97.90750837191288 21.52826233527625 98.14277058679968 21.91013723480265 98.45000000000002 22.230000000000004 C 98.76811768582574 22.541827652164443 99.14556646010087 22.786659289532096 99.56000000000002 22.950000000000003 C 100.0565378837545 23.130274939403243 100.58181575404342 23.218386066032352 101.11000000000001 23.210000000000004 C 101.52012711481717 23.210072701761796 101.92909719759876 23.166493922449003 102.33000000000001 23.080000000000005 C 102.6764177451767 22.995418104269724 103.01195640891689 22.87126879868586 103.33000000000001 22.710000000000004 C 103.64138706585042 22.558860619091103 103.93348145815123 22.370845837840005 104.20000000000002 22.150000000000006 C 104.4676421118611 21.932696465500083 104.72146833111003 21.698909158297123 104.96000000000002 21.450000000000006 L 105.03000000000002 22.950000000000006 L 107.38000000000001 22.950000000000006 L 107.38000000000001 15.110000000000007 C 107.39314312675394 14.530855451288648 107.2981871801491 13.954337204044982 107.10000000000001 13.410000000000005 C 106.91356346293243 12.938819859168417 106.61081525499195 12.522541073250245 106.22000000000001 12.200000000000006 z M 104.61000000000001 19.42 C 104.20083248358934 19.8644739831962 103.74485485720474 20.263454406282726 103.25000000000001 20.610000000000003 C 102.90061586167987 20.86612122809567 102.48284582720972 21.012340740160223 102.05000000000001 21.030000000000005 C 101.60907192694165 21.056636034050726 101.1730566798008 20.9254769759677 100.82000000000001 20.660000000000004 C 100.51186457709619 20.396937894411106 100.34521884525685 20.004394614967335 100.37 19.600000000000005 C 100.37099522744242 19.372736009464248 100.4186459340181 19.1480969641789 100.51 18.940000000000005 C 100.60901283685335 18.72027744011808 100.76423488424511 18.530561604417034 100.96000000000001 18.390000000000004 C 101.19528270083579 18.21397801463261 101.46414956045602 18.088053029747186 101.75000000000001 18.020000000000003 C 102.13514749496892 17.919947419430926 102.5321332480784 17.87284741482472 102.93000000000002 17.880000000000003 L 104.61000000000003 17.880000000000003 z M 119.73000000000002 12.8 C 119.38639643659724 12.31456361138907 118.92996524017076 11.919905058087986 118.40000000000002 11.649999999999999 C 117.84172507495354 11.370504879363306 117.2242479799038 11.229857318824198 116.60000000000002 11.24 C 116.21554776710425 11.237225003438656 115.83235679139193 11.28428354431561 115.46000000000002 11.380000000000003 C 115.11065915508009 11.464483218188741 114.77429824893225 11.595663971586392 114.46000000000002 11.770000000000001 C 114.16535014829175 11.94298879021106 113.89039859855929 12.147525918670578 113.64000000000003 12.379999999999999 C 113.38231361202368 12.630201661953711 113.14176938000068 12.897473030868156 112.92000000000003 13.180000000000003 L 112.85000000000004 11.490000000000002 L 110.47000000000004 11.490000000000002 L 110.47000000000004 27.410000000000004 L 113.22000000000004 27.410000000000004 L 113.22000000000004 22.940000000000005 C 113.47606870018278 23.006401253397733 113.73682279552605 23.05320327051063 114.00000000000004 23.080000000000005 C 114.2848963848847 23.120223896356585 114.57227819513041 23.140273790094657 114.86000000000004 23.140000000000004 C 115.65855389102173 23.149520472234347 116.45300531252948 23.024436631401212 117.21000000000004 22.770000000000003 C 117.91167899523178 22.54006437721137 118.55372097314239 22.157571283988027 119.09000000000003 21.650000000000002 C 119.63881201926083 21.108417056381267 120.06209914292741 20.45300473586527 120.33000000000003 19.730000000000004 C 120.64883207932529 18.859466696740242 120.80147354040139 17.936833865346895 120.78000000000003 17.010000000000005 C 120.78643703005457 16.20149039668787 120.6923831078394 15.395313920557843 120.50000000000003 14.610000000000001 C 120.35338044138608 13.964089064010727 120.09626551270524 13.348366471643473 119.74000000000002 12.790000000000003 z M 117.73000000000002 18.740000000000002 C 117.61037441182043 19.17469515451903 117.41394687203156 19.584483642699265 117.15000000000002 19.950000000000003 C 116.904347764192 20.269255761998256 116.58988664224971 20.529027993167976 116.23000000000002 20.710000000000004 C 115.86321295302253 20.901978411826402 115.45390796010902 20.998285468982523 115.04000000000002 20.990000000000006 C 114.70505982898115 20.9902147107875 114.37064606537994 20.963461609699404 114.04000000000002 20.910000000000007 C 113.76380191185866 20.866562384410365 113.49251172060285 20.79622789038108 113.23000000000002 20.700000000000006 L 113.23000000000002 15.700000000000006 C 113.62560866789737 15.14142205854857 114.07802380462732 14.625333680352929 114.58000000000001 14.160000000000007 C 114.94071923399981 13.812024090207014 115.41894360411293 13.61216912956273 115.92000000000002 13.600000000000007 C 116.52226851067773 13.576521608448338 117.08662854848446 13.893490944750743 117.38000000000001 14.420000000000007 C 117.56665276061142 14.763117547124574 117.69506417034214 15.134834785818768 117.76 15.520000000000007 C 117.86475196429363 16.05002469744537 117.91169326283149 16.589849630630717 117.9 17.130000000000003 C 117.91996584647787 17.667591955560972 117.86953822811493 18.205486551432116 117.75 18.730000000000008 z M 132.48000000000002 12.430000000000003 C 132.18872486419005 12.042625612894497 131.80315957655438 11.736238911112562 131.36 11.540000000000003 C 130.8732980009758 11.333394539890511 130.34866539084936 11.231193382073672 129.82000000000002 11.240000000000002 C 129.42573616316176 11.238538962559826 129.0327883033349 11.285558364590388 128.65000000000003 11.380000000000003 C 128.29956585980668 11.460973993583394 127.96272703972315 11.592341133415966 127.65000000000003 11.770000000000003 C 127.36399320404855 11.938245193721142 127.09882820694895 12.139636330758814 126.86000000000003 12.370000000000003 C 126.61757150079964 12.608368318925551 126.40287426818135 12.873385215438761 126.22000000000003 13.160000000000002 L 126.12000000000003 11.490000000000004 L 123.63000000000004 11.490000000000004 L 123.63000000000004 22.940000000000005 L 126.45000000000003 22.940000000000005 L 126.45000000000003 15.690000000000005 C 126.85476972844097 15.051866275732488 127.35760854283372 14.481532318468226 127.94000000000003 14.000000000000007 C 128.29011201844432 13.70002236954243 128.72958948287996 13.524231383768168 129.19000000000003 13.500000000000005 C 129.4048636099498 13.496656533613194 129.6174212397403 13.544653417759436 129.81000000000003 13.640000000000006 C 130.0016261863238 13.735924929205506 130.16138884951192 13.88526828827267 130.27000000000004 14.070000000000006 C 130.40378665389005 14.298414256644493 130.4952525183666 14.549098477802445 130.54000000000005 14.810000000000006 C 130.60338385907917 15.16964195661963 130.62352690539015 15.535573964602259 130.60000000000005 15.900000000000006 L 133.37000000000006 15.900000000000006 C 133.39628354595317 15.227839354406072 133.3323816155336 14.555187455252709 133.18000000000006 13.900000000000002 C 133.0614735281868 13.363817662537464 132.82961929491537 12.8591937430643 132.50000000000006 12.420000000000005 z M 139.57000000000002 9.620000000000003 C 139.7322060075897 9.786574026488292 139.9259790140709 9.919155557238598 140.14000000000001 10.010000000000003 C 140.5984786439547 10.196221633108287 141.11152135604533 10.196221633108287 141.57000000000002 10.010000000000003 C 141.78402098592915 9.919155557238598 141.97779399241034 9.786574026488292 142.14000000000001 9.620000000000003 C 142.30043873427354 9.456838298026877 142.42628600292588 9.26296547875167 142.51000000000002 9.050000000000002 C 142.6961145267 8.605356567951969 142.6961145267 8.104643432048036 142.51000000000002 7.660000000000002 C 142.4240155649589 7.445233227873343 142.2985125793494 7.248498817998975 142.14000000000001 7.080000000000003 C 141.9751355814731 6.916614884203062 141.78201172747333 6.784477510413748 141.57000000000002 6.690000000000002 C 141.11152135604533 6.50377836689172 140.5984786439547 6.503778366891719 140.14000000000001 6.690000000000003 C 139.9279882725267 6.784477510413748 139.73486441852694 6.916614884203063 139.57000000000002 7.080000000000003 C 139.40527267213804 7.245531784619973 139.2759791258548 7.442874565789105 139.19000000000003 7.660000000000003 C 139.00388547330004 8.104643432048038 139.00388547330004 8.605356567951969 139.19000000000003 9.050000000000002 C 139.2808534960087 9.26362912460615 139.41738439434837 9.454772382281702 139.59000000000003 9.610000000000003 z M 142.42000000000002 11.490000000000002 L 136.37 11.490000000000002 L 136.37 13.630000000000003 L 139.6 13.630000000000003 L 139.6 20.800000000000004 L 136 20.800000000000004 L 136 22.940000000000005 L 145.76 22.940000000000005 L 145.76 20.8 L 142.45 20.8 z M 158.91000000000003 11.490000000000002 L 155.47000000000003 11.490000000000002 L 151.47000000000003 16.340000000000003 L 151.47000000000003 7 L 148.72000000000003 7 L 148.72000000000003 22.939999999999998 L 151.47000000000003 22.939999999999998 L 151.47000000000003 17.209999999999997 L 155.70000000000002 22.939999999999998 L 159.3 22.939999999999998 L 154.3 16.699999999999996 z M 170.56000000000003 13.420000000000002 C 170.3763925384065 12.94990925702095 170.0771597719177 12.533734949605499 169.69000000000003 12.21 C 169.24130138239835 11.86691140586363 168.72757886217804 11.618555485492212 168.18000000000004 11.48 C 167.46308247597742 11.307733471877098 166.72721084161446 11.227090005097594 165.99000000000004 11.24 C 165.2410525468143 11.23588379433207 164.49370499914605 11.30961314881055 163.76000000000005 11.46 C 163.11082983400527 11.578716471268994 162.47457158034683 11.759547764414023 161.86000000000004 12.000000000000004 L 161.86000000000004 14.2 C 162.4725556724065 13.918066288218423 163.11262738091 13.700240837680584 163.77000000000004 13.550000000000002 C 164.42495088975477 13.39295326352629 165.09649716141368 13.315725442285515 165.77000000000004 13.319999999999999 C 166.13443191693779 13.310034132939801 166.49834270848527 13.353838209700147 166.85000000000005 13.45 C 167.11537184904677 13.52642091804724 167.36101611352555 13.659478227973247 167.57000000000005 13.84 C 167.75076290988898 14.003961779781505 167.88817486092825 14.210079706340418 167.97000000000006 14.44 C 168.05261227043803 14.695074928145246 168.0931425135626 14.961899028715434 168.09000000000006 15.23 L 168.09000000000006 15.92 L 166.59000000000006 15.92 C 165.7581938491084 15.909609417739945 164.92837316368573 16.003678159407293 164.12000000000006 16.200000000000003 C 163.49210715959285 16.354705961041866 162.89634958040432 16.618734888182235 162.36000000000007 16.98 C 161.9339293555598 17.28845022532205 161.59046378093416 17.697174259126548 161.36000000000007 18.169999999999998 C 161.12592261419684 18.635130059633312 161.0059481240543 19.149306445958594 161.01000000000008 19.67 C 161.00491182912796 20.160362000041037 161.08615054105368 20.647794271595387 161.25000000000009 21.110000000000003 C 161.3913742559704 21.52887659127592 161.62357851054122 21.91133065762786 161.9300000000001 22.230000000000004 C 162.2481176858258 22.541827652164443 162.62556646010094 22.786659289532096 163.0400000000001 22.950000000000003 C 163.5365378837546 23.130274939403247 164.06181575404352 23.218386066032355 164.59000000000012 23.210000000000004 C 165.00012711481727 23.210072701761796 165.40909719759887 23.166493922449003 165.81000000000012 23.080000000000005 C 166.1564177451768 22.995418104269724 166.491956408917 22.87126879868586 166.81000000000012 22.710000000000004 C 167.1213870658505 22.558860619091103 167.41348145815132 22.370845837840005 167.68000000000012 22.150000000000006 C 167.94986068148447 21.935274058515517 168.20385519160976 21.701331746557994 168.4400000000001 21.45000000000001 L 168.5100000000001 22.950000000000006 L 170.8600000000001 22.950000000000006 L 170.8600000000001 15.110000000000007 C 170.87314312675403 14.530855451288648 170.7781871801492 13.954337204044982 170.5800000000001 13.410000000000005 z M 168.09000000000003 19.42 C 167.6830671485558 19.86675970929672 167.2268237186982 20.265972710422105 166.73000000000002 20.610000000000003 C 166.38061586167987 20.86612122809567 165.96284582720972 21.01234074016022 165.53000000000003 21.030000000000005 C 165.08907192694167 21.056636034050722 164.6530566798008 20.925476975967698 164.30000000000004 20.660000000000004 C 163.99186457709624 20.396937894411103 163.8252188452569 20.00439461496733 163.85000000000005 19.600000000000005 C 163.85099522744247 19.372736009464248 163.89864593401813 19.148096964178904 163.99000000000004 18.940000000000005 C 164.09568901734488 18.724488097632026 164.24968417834128 18.536271789747524 164.44000000000003 18.390000000000004 C 164.67528270083582 18.21397801463261 164.94414956045603 18.088053029747186 165.23000000000002 18.020000000000003 C 165.6151474949689 17.919947419430926 166.0121332480784 17.87284741482472 166.41000000000003 17.880000000000003 L 168.09000000000003 17.880000000000003 z" stroke-linecap="round" />
</g>
</g>
</g>
</svg>