<?xml version="1.0" encoding="UTF-8" standalone="no" ?>
<!DOCTYPE svg PUBLIC "-//W3C//DTD SVG 1.1//EN" "http://www.w3.org/Graphics/SVG/1.1/DTD/svg11.dtd">
<svg xmlns="http://www.w3.org/2000/svg" xmlns:xlink="http://www.w3.org/1999/xlink" version="1.1" width="200" height="75" viewBox="0 0 200 75" xml:space="preserve">
<desc>Created with Fabric.js 5.3.0</desc>
<defs>
</defs>
<g transform="matrix(0.6887201641 0 0 1.4904200612 100 37.5)" id="DwfLtajscEnUQyENfrLic"  >
<g style="" vector-effect="non-scaling-stroke"   >
		<g transform="matrix(1 0 0 1 -27.05 -0.05)" id="u0qpOgWu40QP1qSmC6r7r"  >
<path style="stroke: none; stroke-width: 1; stroke-dasharray: none; stroke-linecap: butt; stroke-dashoffset: 0; stroke-linejoin: miter; stroke-miterlimit: 4; fill: rgb(75,193,190); fill-rule: evenodd; opacity: 1;" vector-effect="non-scaling-stroke"  transform=" translate(-109.8, -9.95)" d="M 116.9 3 C 116 2.1 115 1.4 113.80000000000001 0.8999999999999999 C 112.60000000000001 0.3999999999999999 111.20000000000002 0.09999999999999987 109.80000000000001 0.09999999999999987 C 108.30000000000001 0.09999999999999987 107.00000000000001 0.39999999999999986 105.80000000000001 0.8999999999999999 C 104.60000000000001 1.4 103.50000000000001 2.0999999999999996 102.60000000000001 3 C 101.7 3.9 101.00000000000001 5 100.50000000000001 6.2 C 100.00000000000001 7.4 99.80000000000001 8.7 99.80000000000001 10 C 99.80000000000001 11.3 100.00000000000001 12.6 100.50000000000001 13.8 C 101.00000000000001 15 101.60000000000001 16 102.50000000000001 16.8 L 105.30000000000001 11.700000000000001 L 108.10000000000001 14.5 L 111.2 7.1 L 109.9 6.5 L 111.7 5.2 L 113.5 3.9000000000000004 L 113.8 6.1000000000000005 L 114.1 8.3 L 112.8 7.700000000000001 L 108.8 17.200000000000003 L 105.8 14.300000000000002 L 103.89999999999999 17.900000000000002 C 104.49999999999999 18.400000000000002 105.19999999999999 18.700000000000003 105.89999999999999 19.000000000000004 C 107.1 19.500000000000004 108.49999999999999 19.800000000000004 109.89999999999999 19.800000000000004 C 111.39999999999999 19.800000000000004 112.69999999999999 19.500000000000004 113.89999999999999 19.000000000000004 C 116.3 18.000000000000004 118.19999999999999 16.100000000000005 119.1 13.700000000000003 C 119.6 12.500000000000004 119.8 11.200000000000003 119.8 9.900000000000002 C 119.8 8.600000000000001 119.6 7.3000000000000025 119.1 6.100000000000002 C 118.39999999999999 4.900000000000002 117.69999999999999 3.900000000000002 116.89999999999999 3.000000000000002 z" stroke-linecap="round" />
</g>
		<g transform="matrix(1 0 0 1 0 0.05)" id="o1LYXIugifSrH-6lLMDFU"  >
<path style="stroke: none; stroke-width: 1; stroke-dasharray: none; stroke-linecap: butt; stroke-dashoffset: 0; stroke-linejoin: miter; stroke-miterlimit: 4; fill: rgb(252,247,239); fill-rule: nonzero; opacity: 1;" vector-effect="non-scaling-stroke"  transform=" translate(-136.85, -10.05)" d="M 0 19.7 L 13.6 19.7 L 13.6 16.599999999999998 L 3.4 16.599999999999998 L 3.4 0.3 L 0 0.3 L 0 19.7 z M 18.7 0.3 L 18.7 19.6 L 22.099999999999998 19.6 L 22.099999999999998 0.3 L 18.7 0.3 z M 36.7 15.200000000000001 L 30.8 0.3 L 27 0.3 L 35 19.8 L 38 19.8 L 46 0.3 L 42.3 0.3 L 36.699999999999996 15.200000000000001 z M 65.2 0.3 L 50.9 0.3 L 50.9 19.6 L 65.4 19.6 L 65.4 16.6 L 54.3 16.6 L 54.3 11.400000000000002 L 64 11.400000000000002 L 64 8.400000000000002 L 54.3 8.400000000000002 L 54.3 3.400000000000002 L 65.2 3.400000000000002 L 65.2 0.3 z M 149 13.7 L 138.6 0.3 L 135.5 0.3 L 135.5 19.6 L 138.8 19.6 L 138.8 5.9 L 149.5 19.700000000000003 L 152.3 19.700000000000003 L 152.3 0.3 L 149 0.3 L 149 13.700000000000001 z M 95.9 16.599999999999998 L 93.7 14.399999999999999 C 92.9 15.2 92 15.799999999999999 91.2 16.2 C 90.4 16.7 89.3 16.9 88.2 16.9 C 87.3 16.9 86.4 16.7 85.60000000000001 16.4 C 84.80000000000001 15.999999999999998 84.10000000000001 15.499999999999998 83.60000000000001 14.899999999999999 C 83.00000000000001 14.299999999999999 82.60000000000001 13.499999999999998 82.30000000000001 12.7 C 82.00000000000001 11.899999999999999 81.80000000000001 11 81.80000000000001 10 C 81.80000000000001 9 82.00000000000001 8.1 82.30000000000001 7.3 C 82.60000000000001 6.5 83.10000000000001 5.699999999999999 83.60000000000001 5.1 C 84.2 4.5 84.80000000000001 3.9999999999999996 85.60000000000001 3.5999999999999996 C 86.4 3.1999999999999997 87.2 3.0999999999999996 88.2 3.0999999999999996 C 89.3 3.0999999999999996 90.3 3.3 91.2 3.8 C 92.10000000000001 4.2 92.9 4.8 93.7 5.5 L 95.8 3 C 95.3 2.6 94.89999999999999 2.2 94.3 1.8 C 93.8 1.4 93.2 1.1 92.6 0.8 C 92 0.5 91.3 0.30000000000000004 90.6 0.20000000000000007 C 89.89999999999999 0.10000000000000006 89.1 5.551115123125783e-17 88.19999999999999 5.551115123125783e-17 C 86.69999999999999 5.551115123125783e-17 85.39999999999999 0.30000000000000004 84.19999999999999 0.8 C 83 1.3 81.9 2 81 2.9 C 80.1 3.8 79.4 4.9 78.9 6.1 C 78.4 7.3 78.2 8.6 78.2 10 C 78.2 11.4 78.4 12.7 78.9 13.9 C 79.4 15.1 80.10000000000001 16.2 81 17.1 C 81.9 18 82.9 18.700000000000003 84.1 19.200000000000003 C 85.3 19.700000000000003 86.6 20.000000000000004 88 20.000000000000004 C 88.9 20.000000000000004 89.7 19.900000000000002 90.5 19.800000000000004 C 91.2 19.600000000000005 91.9 19.400000000000006 92.6 19.100000000000005 C 93.19999999999999 18.800000000000004 93.8 18.400000000000006 94.39999999999999 18.000000000000004 C 94.89999999999999 17.600000000000005 95.39999999999999 17.100000000000005 95.89999999999999 16.600000000000005 z M 125.5 0.3 L 125.5 19.6 L 128.9 19.6 L 128.9 0.3 L 125.5 0.3 z M 173.8 14.700000000000001 L 169.2 0.4 L 165.5 0.4 L 172.2 19.9 L 175.1 19.9 L 180 5.899999999999999 L 184.8 19.799999999999997 L 187.70000000000002 19.799999999999997 L 194.4 0.3 L 190.8 0.3 L 186.20000000000002 14.600000000000001 L 181.4 0.2 L 178.5 0.2 L 173.8 14.7 z M 206.8 0.20000000000000107 L 203.70000000000002 0.20000000000000107 L 195.20000000000002 19.700000000000003 L 198.70000000000002 19.700000000000003 L 200.70000000000002 15.000000000000004 L 209.8 15.000000000000004 L 211.8 19.700000000000003 L 215.4 19.700000000000003 L 206.8 0.2 z M 208.5 12.000000000000002 L 201.8 12.000000000000002 L 205.10000000000002 4.300000000000002 L 208.50000000000003 12.000000000000002 z M 225.8 3.5000000000000018 L 231.9 3.5000000000000018 L 231.9 0.3 L 216.20000000000002 0.3 L 216.20000000000002 3.4 L 222.3 3.4 L 222.3 19.599999999999998 L 225.70000000000002 19.599999999999998 L 225.70000000000002 3.5 L 225.8 3.5 z M 252.70000000000002 16.6 L 250.50000000000003 14.400000000000002 C 249.70000000000002 15.200000000000003 248.80000000000004 15.800000000000002 248.00000000000003 16.200000000000003 C 247.20000000000002 16.700000000000003 246.10000000000002 16.900000000000002 245.00000000000003 16.900000000000002 C 244.10000000000002 16.900000000000002 243.20000000000002 16.700000000000003 242.40000000000003 16.400000000000002 C 241.60000000000002 16.000000000000004 240.90000000000003 15.500000000000002 240.40000000000003 14.900000000000002 C 239.80000000000004 14.300000000000002 239.40000000000003 13.500000000000002 239.10000000000002 12.700000000000003 C 238.8 11.900000000000002 238.60000000000002 11.000000000000004 238.60000000000002 10.000000000000004 C 238.60000000000002 9.000000000000004 238.8 8.100000000000003 239.10000000000002 7.300000000000003 C 239.40000000000003 6.5000000000000036 239.90000000000003 5.700000000000003 240.40000000000003 5.100000000000003 C 241.00000000000003 4.5000000000000036 241.60000000000002 4.0000000000000036 242.40000000000003 3.600000000000003 C 243.20000000000005 3.2000000000000033 244.00000000000003 3.100000000000003 245.00000000000003 3.100000000000003 C 246.10000000000002 3.100000000000003 247.10000000000002 3.3000000000000034 248.00000000000003 3.8000000000000034 C 248.90000000000003 4.200000000000004 249.70000000000002 4.800000000000003 250.50000000000003 5.5000000000000036 L 252.70000000000002 3.0000000000000036 C 252.20000000000002 2.6000000000000036 251.8 2.2000000000000037 251.20000000000002 1.8000000000000036 C 250.70000000000002 1.4000000000000035 250.10000000000002 1.1000000000000036 249.50000000000003 0.8000000000000036 C 248.90000000000003 0.5000000000000036 248.20000000000002 0.3000000000000036 247.50000000000003 0.20000000000000362 C 246.70000000000002 0.10000000000000361 245.90000000000003 3.608224830031759e-15 245.00000000000003 3.608224830031759e-15 C 243.50000000000003 3.608224830031759e-15 242.20000000000002 0.3000000000000036 241.00000000000003 0.8000000000000036 C 239.80000000000004 1.3000000000000036 238.70000000000002 2.0000000000000036 237.90000000000003 3.0000000000000036 C 237.00000000000003 3.9000000000000035 236.30000000000004 5.0000000000000036 235.80000000000004 6.200000000000004 C 235.30000000000004 7.400000000000004 235.10000000000005 8.700000000000003 235.10000000000005 10.100000000000003 C 235.10000000000005 11.500000000000004 235.30000000000004 12.800000000000004 235.80000000000004 14.000000000000004 C 236.30000000000004 15.200000000000003 237.00000000000003 16.300000000000004 237.90000000000003 17.200000000000003 C 238.80000000000004 18.1 239.80000000000004 18.800000000000004 241.00000000000003 19.300000000000004 C 242.20000000000002 19.800000000000004 243.50000000000003 20.100000000000005 244.90000000000003 20.100000000000005 C 245.80000000000004 20.100000000000005 246.60000000000002 20.000000000000004 247.40000000000003 19.900000000000006 C 248.10000000000002 19.700000000000006 248.80000000000004 19.500000000000007 249.50000000000003 19.200000000000006 C 250.10000000000002 18.900000000000006 250.70000000000002 18.500000000000007 251.30000000000004 18.100000000000005 C 251.70000000000005 17.600000000000005 252.20000000000005 17.100000000000005 252.70000000000005 16.600000000000005 z M 270.3 11.500000000000002 L 270.3 19.6 L 273.7 19.6 L 273.7 0.3 L 270.3 0.3 L 270.3 8.3 L 261.1 8.3 L 261.1 0.3000000000000007 L 257.70000000000005 0.3000000000000007 L 257.70000000000005 19.6 L 261.1 19.6 L 261.1 11.500000000000002 L 270.3 11.500000000000002 z" stroke-linecap="round" />
</g>
</g>
</g>
</svg>