<?xml version="1.0" encoding="UTF-8" standalone="no" ?>
<!DOCTYPE svg PUBLIC "-//W3C//DTD SVG 1.1//EN" "http://www.w3.org/Graphics/SVG/1.1/DTD/svg11.dtd">
<svg xmlns="http://www.w3.org/2000/svg" xmlns:xlink="http://www.w3.org/1999/xlink" version="1.1" width="200" height="75" viewBox="0 0 200 75" xml:space="preserve">
<desc>Created with Fabric.js 5.3.0</desc>
<defs>
</defs>
<g transform="matrix(0.7558789627 0 0 1.1214486457 100 37.5)" id="QmkSD9VY_-Pwkc5nPra0Q"  >
<g style="" vector-effect="non-scaling-stroke"   >
		<g transform="matrix(1 0 0 1 -107.04 -8.6)" id="XOH04dQ_JGQ3nlcZFLz3M" clip-path="url(#CLIPPATH_102)"  >
<linearGradient id="SVGID_12" gradientUnits="userSpaceOnUse" gradientTransform="matrix(1 0 0 1 0 0)"  x1="2.16" y1="23.65" x2="23.6598" y2="2.05023">
<stop offset="0%" style="stop-color:rgb(255,255,255);stop-opacity: 1"/>
<stop offset="100%" style="stop-color:rgb(255,255,255);stop-opacity: 0"/>
</linearGradient>
<clipPath id="CLIPPATH_102" >
	<rect transform="matrix(1 0 0 1 107.04 8.6)" id="clip0_429_5499" x="-120" y="-21.5" rx="0" ry="0" width="240" height="43" />
</clipPath>
<path style="stroke: none; stroke-width: 1; stroke-dasharray: none; stroke-linecap: butt; stroke-dashoffset: 0; stroke-linejoin: miter; stroke-miterlimit: 4; fill: url(#SVGID_12); fill-rule: nonzero; opacity: 1;" vector-effect="non-scaling-stroke"  transform=" translate(-12.96, -12.9)" d="M 4.32 25.8 L 0 21.5 L 21.6 0 L 25.92 4.3 L 4.32 25.8 Z" stroke-linecap="round" />
</g>
		<g transform="matrix(1 0 0 1 -89.7597 -8.6)" id="0k16_rgze9ZaiZDSaOM-U" clip-path="url(#CLIPPATH_103)"  >
<linearGradient id="SVGID_13" gradientUnits="userSpaceOnUse" gradientTransform="matrix(1 0 0 1 0 0)"  x1="17.2803" y1="12.9" x2="43.2003" y2="12.9">
<stop offset="0%" style="stop-color:rgb(255,255,255);stop-opacity: 1"/>
<stop offset="100%" style="stop-color:rgb(255,255,255);stop-opacity: 0"/>
</linearGradient>
<clipPath id="CLIPPATH_103" >
	<rect transform="matrix(1 0 0 1 89.7597 8.6)" id="clip0_429_5499" x="-120" y="-21.5" rx="0" ry="0" width="240" height="43" />
</clipPath>
<path style="stroke: none; stroke-width: 1; stroke-dasharray: none; stroke-linecap: butt; stroke-dashoffset: 0; stroke-linejoin: miter; stroke-miterlimit: 4; fill: url(#SVGID_13); fill-rule: nonzero; opacity: 1;" vector-effect="non-scaling-stroke"  transform=" translate(-30.2403, -12.9)" d="M 38.8803 25.8 L 17.2803 4.3 L 21.6003 0 L 43.2003 21.5 L 38.8803 25.8 Z" stroke-linecap="round" />
</g>
		<g transform="matrix(1 0 0 1 -102.720375 12.8998)" id="CWL5tjsiEHbklUPBMtfRA" clip-path="url(#CLIPPATH_104)"  >
<linearGradient id="SVGID_14" gradientUnits="userSpaceOnUse" gradientTransform="matrix(1 0 0 1 0 0)"  x1="17.2796" y1="42.9998" x2="17.2796" y2="25.7998">
<stop offset="0%" style="stop-color:rgb(255,255,255);stop-opacity: 1"/>
<stop offset="100%" style="stop-color:rgb(255,255,255);stop-opacity: 0"/>
</linearGradient>
<clipPath id="CLIPPATH_104" >
	<rect transform="matrix(1 0 0 1 102.720375 -12.8998)" id="clip0_429_5499" x="-120" y="-21.5" rx="0" ry="0" width="240" height="43" />
</clipPath>
<path style="stroke: none; stroke-width: 1; stroke-dasharray: none; stroke-linecap: butt; stroke-dashoffset: 0; stroke-linejoin: miter; stroke-miterlimit: 4; fill: url(#SVGID_14); fill-rule: nonzero; opacity: 1;" vector-effect="non-scaling-stroke"  transform=" translate(-17.279625, -34.3998)" d="M 21.5996 42.9998 L 8.63965 30.0998 L 12.9596 25.7998 L 25.9196 38.6998 L 21.5996 42.9998 Z" stroke-linecap="round" />
</g>
		<g transform="matrix(1 0 0 1 -102.720375 4.3002)" id="1F63BvoFZKQrq9qr7K8n4" clip-path="url(#CLIPPATH_105)"  >
<linearGradient id="SVGID_15" gradientUnits="userSpaceOnUse" gradientTransform="matrix(1 0 0 1 0 0)"  x1="17.2796" y1="34.4002" x2="17.2796" y2="17.2002">
<stop offset="0%" style="stop-color:rgb(255,255,255);stop-opacity: 1"/>
<stop offset="100%" style="stop-color:rgb(255,255,255);stop-opacity: 0.46"/>
</linearGradient>
<clipPath id="CLIPPATH_105" >
	<rect transform="matrix(1 0 0 1 102.720375 -4.3002)" id="clip0_429_5499" x="-120" y="-21.5" rx="0" ry="0" width="240" height="43" />
</clipPath>
<path style="stroke: none; stroke-width: 1; stroke-dasharray: none; stroke-linecap: butt; stroke-dashoffset: 0; stroke-linejoin: miter; stroke-miterlimit: 4; fill: url(#SVGID_15); fill-rule: nonzero; opacity: 1;" vector-effect="non-scaling-stroke"  transform=" translate(-17.279625, -25.8002)" d="M 12.9596 34.4002 L 8.63965 30.1002 L 21.5996 17.2002 L 25.9196 21.5002 L 12.9596 34.4002 Z" stroke-linecap="round" />
</g>
		<g transform="matrix(1 0 0 1 -89.7597 8.6002)" id="_IQz4mNZjGhCndxaObUQO" clip-path="url(#CLIPPATH_106)"  >
<linearGradient id="SVGID_16" gradientUnits="userSpaceOnUse" gradientTransform="matrix(1 0 0 1 0 0)"  x1="30.2403" y1="17.2002" x2="30.2403" y2="43.0002">
<stop offset="0%" style="stop-color:rgb(255,255,255);stop-opacity: 1"/>
<stop offset="100%" style="stop-color:rgb(255,255,255);stop-opacity: 0"/>
</linearGradient>
<clipPath id="CLIPPATH_106" >
	<rect transform="matrix(1 0 0 1 89.7597 -8.6002)" id="clip0_429_5499" x="-120" y="-21.5" rx="0" ry="0" width="240" height="43" />
</clipPath>
<path style="stroke: none; stroke-width: 1; stroke-dasharray: none; stroke-linecap: butt; stroke-dashoffset: 0; stroke-linejoin: miter; stroke-miterlimit: 4; fill: url(#SVGID_16); fill-rule: nonzero; opacity: 1;" vector-effect="non-scaling-stroke"  transform=" translate(-30.2403, -30.1002)" d="M 21.6003 43.0002 L 17.2803 38.7002 L 38.8803 17.2002 L 43.2003 21.5002 L 21.6003 43.0002 Z" stroke-linecap="round" />
</g>
		<g transform="matrix(1 0 0 1 -60.8851 -0.65195)" id="AhJI8H2jeq9f67CQJ9b7U" clip-path="url(#CLIPPATH_107)"  >
<clipPath id="CLIPPATH_107" >
	<rect transform="matrix(1 0 0 1 60.8851 0.65195)" id="clip0_429_5499" x="-120" y="-21.5" rx="0" ry="0" width="240" height="43" />
</clipPath>
<path style="stroke: none; stroke-width: 1; stroke-dasharray: none; stroke-linecap: butt; stroke-dashoffset: 0; stroke-linejoin: miter; stroke-miterlimit: 4; fill: rgb(255,255,255); fill-rule: nonzero; opacity: 1;" vector-effect="non-scaling-stroke"  transform=" translate(-59.1149, -20.84805)" d="M 61.5899 30.4285 L 56.6499 30.4285 L 56.6499 15.0998 L 50.8799 15.0998 L 50.8799 11.2676 L 67.3499 11.2676 L 67.3499 15.0998 L 61.5799 15.0998 L 61.5799 30.4285 L 61.5899 30.4285 Z" stroke-linecap="round" />
</g>
		<g transform="matrix(1 0 0 1 -44.4352 1.66765)" id="_xKl1ONDy21cqUIOoW3hv" clip-path="url(#CLIPPATH_108)"  >
<clipPath id="CLIPPATH_108" >
	<rect transform="matrix(1 0 0 1 44.4352 -1.66765)" id="clip0_429_5499" x="-120" y="-21.5" rx="0" ry="0" width="240" height="43" />
</clipPath>
<path style="stroke: none; stroke-width: 1; stroke-dasharray: none; stroke-linecap: butt; stroke-dashoffset: 0; stroke-linejoin: miter; stroke-miterlimit: 4; fill: rgb(255,255,255); fill-rule: nonzero; opacity: 1;" vector-effect="non-scaling-stroke"  transform=" translate(-75.5648, -23.16765)" d="M 83.1198 26.318 C 83.1198 27.6916 82.7298 28.7567 81.9498 29.5331 C 81.1698 30.3095 80.0998 30.6976 78.7198 30.6976 L 72.4098 30.6976 C 71.0398 30.6976 69.9598 30.3095 69.1798 29.5331 C 68.3998 28.7567 68.0098 27.6817 68.0098 26.318 L 68.0098 20.0173 C 68.0098 18.6437 68.3998 17.5787 69.1798 16.8023 C 69.9598 16.0259 71.0298 15.6377 72.4098 15.6377 L 78.7198 15.6377 C 80.0898 15.6377 81.1698 16.0259 81.9498 16.8023 C 82.7298 17.5787 83.1198 18.6537 83.1198 20.0173 L 83.1198 26.318 Z M 78.3198 20.4354 C 78.3198 19.7088 77.9498 19.3405 77.2198 19.3405 L 73.9298 19.3405 C 73.1998 19.3405 72.8298 19.7088 72.8298 20.4354 L 72.8298 25.9099 C 72.8298 26.6365 73.1998 27.0048 73.9298 27.0048 L 77.2198 27.0048 C 77.9498 27.0048 78.3198 26.6365 78.3198 25.9099 L 78.3198 20.4354 Z" stroke-linecap="round" />
</g>
		<g transform="matrix(1 0 0 1 -26.18025 -0.6568)" id="IIHbE3dlj6sX3utBHiF4G" clip-path="url(#CLIPPATH_109)"  >
<clipPath id="CLIPPATH_109" >
	<rect transform="matrix(1 0 0 1 26.18025 0.6568)" id="clip0_429_5499" x="-120" y="-21.5" rx="0" ry="0" width="240" height="43" />
</clipPath>
<path style="stroke: none; stroke-width: 1; stroke-dasharray: none; stroke-linecap: butt; stroke-dashoffset: 0; stroke-linejoin: miter; stroke-miterlimit: 4; fill: rgb(255,255,255); fill-rule: nonzero; opacity: 1;" vector-effect="non-scaling-stroke"  transform=" translate(-93.81975, -20.8432)" d="M 91.0695 24.6754 L 91.0695 30.4286 L 86.2695 30.4286 L 86.2695 11.2578 L 91.0695 11.2578 L 91.0695 20.9726 L 93.2695 20.9726 L 96.2895 15.9062 L 101.37 15.9062 L 97.2495 22.8937 L 101.37 30.4187 L 96.2895 30.4187 L 93.1295 24.6655 L 91.0695 24.6655 L 91.0695 24.6754 Z" stroke-linecap="round" />
</g>
		<g transform="matrix(1 0 0 1 -9.995 1.66765)" id="Ur0aPHxmfeEZuWAd8EzsC" clip-path="url(#CLIPPATH_110)"  >
<clipPath id="CLIPPATH_110" >
	<rect transform="matrix(1 0 0 1 9.995 -1.66765)" id="clip0_429_5499" x="-120" y="-21.5" rx="0" ry="0" width="240" height="43" />
</clipPath>
<path style="stroke: none; stroke-width: 1; stroke-dasharray: none; stroke-linecap: butt; stroke-dashoffset: 0; stroke-linejoin: miter; stroke-miterlimit: 4; fill: rgb(255,255,255); fill-rule: nonzero; opacity: 1;" vector-effect="non-scaling-stroke"  transform=" translate(-110.005, -23.16765)" d="M 116.59 30.1502 C 113.06 30.5185 109.85 30.6976 106.98 30.6976 C 105.74 30.6976 104.74 30.3194 103.99 29.5729 C 103.24 28.8264 102.86 27.831 102.86 26.5868 L 102.86 20.0173 C 102.86 18.6437 103.25 17.5787 104.03 16.8023 C 104.81 16.0259 105.88 15.6377 107.26 15.6377 L 112.75 15.6377 C 114.12 15.6377 115.2 16.0259 115.98 16.8023 C 116.76 17.5787 117.15 18.6537 117.15 20.0173 L 117.15 25.0838 L 107.68 25.0838 L 107.68 26.1787 C 107.68 26.4474 107.77 26.6764 107.95 26.8655 C 108.13 27.0446 108.36 27.1342 108.64 27.1342 C 110.45 27.1342 113.11 26.9949 116.6 26.7261 L 116.6 30.1502 L 116.59 30.1502 Z M 108.76 19.0618 C 108.03 19.0618 107.66 19.4301 107.66 20.1567 L 107.66 21.6597 L 112.33 21.6597 L 112.33 20.1567 C 112.33 19.4301 111.96 19.0618 111.23 19.0618 L 108.76 19.0618 Z" stroke-linecap="round" />
</g>
		<g transform="matrix(1 0 0 1 7.695 1.5431)" id="CHs6EMzkA4D1QeV8h_ahS" clip-path="url(#CLIPPATH_111)"  >
<clipPath id="CLIPPATH_111" >
	<rect transform="matrix(1 0 0 1 -7.695 -1.5431)" id="clip0_429_5499" x="-120" y="-21.5" rx="0" ry="0" width="240" height="43" />
</clipPath>
<path style="stroke: none; stroke-width: 1; stroke-dasharray: none; stroke-linecap: butt; stroke-dashoffset: 0; stroke-linejoin: miter; stroke-miterlimit: 4; fill: rgb(255,255,255); fill-rule: nonzero; opacity: 1;" vector-effect="non-scaling-stroke"  transform=" translate(-127.695, -23.0431)" d="M 128.37 19.609 C 127.4 19.609 126.3 19.7882 125.08 20.1565 L 125.08 30.4188 L 120.28 30.4188 L 120.28 15.9162 L 124.54 15.9162 L 124.81 17.2898 C 125.67 16.7225 126.55 16.3044 127.46 16.0456 C 128.37 15.7769 129.13 15.6475 129.75 15.6475 L 130.99 15.6475 C 132.23 15.6475 133.23 16.0257 133.98 16.7722 C 134.73 17.5188 135.11 18.5141 135.11 19.7583 L 135.11 30.4387 L 130.31 30.4387 L 130.31 20.5845 C 130.31 20.3058 130.22 20.0868 130.04 19.8977 C 129.86 19.7185 129.63 19.619 129.35 19.619 L 128.37 19.619 L 128.37 19.609 Z" stroke-linecap="round" />
</g>
		<g transform="matrix(1 0 0 1 22.64 -0.65195)" id="RjQbzDo6_XYJ5o-ON86ws" clip-path="url(#CLIPPATH_112)"  >
<clipPath id="CLIPPATH_112" >
	<rect transform="matrix(1 0 0 1 -22.64 0.65195)" id="clip0_429_5499" x="-120" y="-21.5" rx="0" ry="0" width="240" height="43" />
</clipPath>
<path style="stroke: none; stroke-width: 1; stroke-dasharray: none; stroke-linecap: butt; stroke-dashoffset: 0; stroke-linejoin: miter; stroke-miterlimit: 4; fill: rgb(255,255,255); fill-rule: nonzero; opacity: 1;" vector-effect="non-scaling-stroke"  transform=" translate(-142.64, -20.84805)" d="M 147.58 30.4285 L 137.7 30.4285 L 137.7 26.5963 L 140.17 26.5963 L 140.17 15.0998 L 137.7 15.0998 L 137.7 11.2676 L 147.58 11.2676 L 147.58 15.0998 L 145.11 15.0998 L 145.11 26.5963 L 147.58 26.5963 L 147.58 30.4285 Z" stroke-linecap="round" />
</g>
		<g transform="matrix(1 0 0 1 37.865 1.5431)" id="nWQWx-MLONH-8wkQcCJZj" clip-path="url(#CLIPPATH_113)"  >
<clipPath id="CLIPPATH_113" >
	<rect transform="matrix(1 0 0 1 -37.865 -1.5431)" id="clip0_429_5499" x="-120" y="-21.5" rx="0" ry="0" width="240" height="43" />
</clipPath>
<path style="stroke: none; stroke-width: 1; stroke-dasharray: none; stroke-linecap: butt; stroke-dashoffset: 0; stroke-linejoin: miter; stroke-miterlimit: 4; fill: rgb(255,255,255); fill-rule: nonzero; opacity: 1;" vector-effect="non-scaling-stroke"  transform=" translate(-157.865, -23.0431)" d="M 158.54 19.609 C 157.57 19.609 156.47 19.7882 155.25 20.1565 L 155.25 30.4188 L 150.45 30.4188 L 150.45 15.9162 L 154.71 15.9162 L 154.98 17.2898 C 155.84 16.7225 156.72 16.3044 157.63 16.0456 C 158.54 15.7769 159.3 15.6475 159.92 15.6475 L 161.16 15.6475 C 162.4 15.6475 163.4 16.0257 164.15 16.7722 C 164.9 17.5188 165.28 18.5141 165.28 19.7583 L 165.28 30.4387 L 160.48 30.4387 L 160.48 20.5845 C 160.48 20.3058 160.39 20.0868 160.21 19.8977 C 160.03 19.7185 159.8 19.619 159.52 19.619 L 158.54 19.619 L 158.54 19.609 Z" stroke-linecap="round" />
</g>
		<g transform="matrix(1 0 0 1 55 1.8166)" id="e3ItiJdEsYL_vGZBDa1wH" clip-path="url(#CLIPPATH_114)"  >
<clipPath id="CLIPPATH_114" >
	<rect transform="matrix(1 0 0 1 -55 -1.8166)" id="clip0_429_5499" x="-120" y="-21.5" rx="0" ry="0" width="240" height="43" />
</clipPath>
<path style="stroke: none; stroke-width: 1; stroke-dasharray: none; stroke-linecap: butt; stroke-dashoffset: 0; stroke-linejoin: miter; stroke-miterlimit: 4; fill: rgb(255,255,255); fill-rule: nonzero; opacity: 1;" vector-effect="non-scaling-stroke"  transform=" translate(-175, -23.3166)" d="M 167.86 26.5963 C 171.58 26.875 174.5 27.0044 176.65 27.0044 C 176.92 27.0044 177.15 26.9149 177.34 26.7357 C 177.52 26.5565 177.61 26.3276 177.61 26.0489 L 177.61 25.0933 L 171.71 25.0933 C 170.46 25.0933 169.47 24.7151 168.72 23.9686 C 167.97 23.222 167.59 22.2267 167.59 20.9825 L 167.59 20.0269 C 167.59 18.7827 167.96 17.7873 168.72 17.0408 C 169.47 16.2943 170.47 15.916 171.71 15.916 L 181.04 15.916 L 181.04 19.4794 L 173.35 19.4794 C 173.08 19.4794 172.85 19.569 172.66 19.7482 C 172.48 19.9274 172.39 20.1563 172.39 20.435 C 172.39 20.7137 172.48 20.9327 172.66 21.1218 C 172.84 21.301 173.07 21.4005 173.35 21.4005 L 178.29 21.4005 C 179.53 21.4005 180.53 21.7787 181.28 22.5253 C 182.03 23.2718 182.41 24.2672 182.41 25.5114 L 182.41 26.6063 C 182.41 27.8505 182.03 28.8459 181.28 29.5924 C 180.53 30.3389 179.53 30.7172 178.29 30.7172 C 175.05 30.7172 171.57 30.538 167.86 30.1697 L 167.86 26.5963 Z" stroke-linecap="round" />
</g>
		<g transform="matrix(1 0 0 1 67.34 -0.79095)" id="o74sAqEFZ_oIIrOh2wJL0" clip-path="url(#CLIPPATH_115)"  >
<clipPath id="CLIPPATH_115" >
	<rect transform="matrix(1 0 0 1 -67.34 0.79095)" id="clip0_429_5499" x="-120" y="-21.5" rx="0" ry="0" width="240" height="43" />
</clipPath>
<path style="stroke: none; stroke-width: 1; stroke-dasharray: none; stroke-linecap: butt; stroke-dashoffset: 0; stroke-linejoin: miter; stroke-miterlimit: 4; fill: rgb(255,255,255); fill-rule: nonzero; opacity: 1;" vector-effect="non-scaling-stroke"  transform=" translate(-187.34, -20.70905)" d="M 190.77 16.4638 L 190.77 30.4288 L 185.97 30.4288 L 185.97 20.1566 L 183.91 20.1566 L 183.91 16.4638 L 190.77 16.4638 Z M 185.96 10.9893 L 190.76 10.9893 L 190.76 14.8214 L 185.96 14.8214 L 185.96 10.9893 Z" stroke-linecap="round" />
</g>
		<g transform="matrix(1 0 0 1 81.19 4.1358)" id="-qicBaNm6zfk6vs1CwSRX" clip-path="url(#CLIPPATH_116)"  >
<clipPath id="CLIPPATH_116" >
	<rect transform="matrix(1 0 0 1 -81.19 -4.1358)" id="clip0_429_5499" x="-120" y="-21.5" rx="0" ry="0" width="240" height="43" />
</clipPath>
<path style="stroke: none; stroke-width: 1; stroke-dasharray: none; stroke-linecap: butt; stroke-dashoffset: 0; stroke-linejoin: miter; stroke-miterlimit: 4; fill: rgb(255,255,255); fill-rule: nonzero; opacity: 1;" vector-effect="non-scaling-stroke"  transform=" translate(-201.19, -25.6358)" d="M 203.66 29.3336 C 201.88 29.7019 200.33 29.8811 198.99 29.8811 L 198.03 29.8811 C 196.79 29.8811 195.79 29.5028 195.04 28.7563 C 194.29 28.0098 193.91 27.0144 193.91 25.7702 L 193.91 20.2956 C 193.91 18.922 194.3 17.857 195.08 17.0806 C 195.86 16.3042 196.93 15.916 198.31 15.916 L 208.47 15.916 L 208.47 31.2447 C 208.47 32.4889 208.09 33.4843 207.34 34.2308 C 206.59 34.9774 205.59 35.3556 204.35 35.3556 C 201.48 35.3556 198.27 35.1764 194.74 34.8081 L 194.74 31.2447 C 198.24 31.5234 200.89 31.6528 202.7 31.6528 C 202.97 31.6528 203.2 31.5632 203.39 31.3741 C 203.57 31.195 203.66 30.966 203.66 30.6873 L 203.66 29.3336 Z M 200.36 26.1882 C 201.51 26.1882 202.61 26.0987 203.65 25.9095 L 203.65 19.6088 L 199.81 19.6088 C 199.08 19.6088 198.71 19.9771 198.71 20.7037 L 198.71 25.2227 C 198.71 25.5014 198.8 25.7204 198.98 25.9095 C 199.16 26.0887 199.39 26.1882 199.67 26.1882 L 200.36 26.1882 Z" stroke-linecap="round" />
</g>
		<g transform="matrix(1 0 0 1 99.3 -0.6518)" id="GpTcERKY3ZBj6298dfSJY" clip-path="url(#CLIPPATH_117)"  >
<clipPath id="CLIPPATH_117" >
	<rect transform="matrix(1 0 0 1 -99.3 0.6518)" id="clip0_429_5499" x="-120" y="-21.5" rx="0" ry="0" width="240" height="43" />
</clipPath>
<path style="stroke: none; stroke-width: 1; stroke-dasharray: none; stroke-linecap: butt; stroke-dashoffset: 0; stroke-linejoin: miter; stroke-miterlimit: 4; fill: rgb(255,255,255); fill-rule: nonzero; opacity: 1;" vector-effect="non-scaling-stroke"  transform=" translate(-219.3, -20.8482)" d="M 216.68 16.1948 C 218.46 15.8266 220.01 15.6474 221.35 15.6474 L 222.59 15.6474 C 223.83 15.6474 224.83 16.0256 225.58 16.7722 C 226.33 17.5187 226.71 18.5141 226.71 19.7583 L 226.71 30.4386 L 221.91 30.4386 L 221.91 20.2958 C 221.91 20.027 221.82 19.7981 221.64 19.609 C 221.46 19.4298 221.23 19.3402 220.95 19.3402 L 219.99 19.3402 C 219.29 19.3402 218.66 19.38 218.08 19.4497 C 217.5 19.5194 217.04 19.5791 216.69 19.6189 L 216.69 30.4286 L 211.89 30.4286 L 211.89 11.2578 L 216.69 11.2578 L 216.69 16.1948 L 216.68 16.1948 Z" stroke-linecap="round" />
</g>
		<g transform="matrix(1 0 0 1 114.505 0.1648)" id="SFj1PRQu5PsvFIXjwtRLh" clip-path="url(#CLIPPATH_118)"  >
<clipPath id="CLIPPATH_118" >
	<rect transform="matrix(1 0 0 1 -114.505 -0.1648)" id="clip0_429_5499" x="-120" y="-21.5" rx="0" ry="0" width="240" height="43" />
</clipPath>
<path style="stroke: none; stroke-width: 1; stroke-dasharray: none; stroke-linecap: butt; stroke-dashoffset: 0; stroke-linejoin: miter; stroke-miterlimit: 4; fill: rgb(255,255,255); fill-rule: nonzero; opacity: 1;" vector-effect="non-scaling-stroke"  transform=" translate(-234.505, -21.6648)" d="M 240 30.4291 C 238.22 30.6082 236.49 30.6978 234.78 30.6978 C 233.54 30.6978 232.54 30.3196 231.79 29.573 C 231.04 28.8265 230.66 27.8311 230.66 26.5869 L 230.66 19.6094 L 229.01 19.6094 L 229.01 15.9166 L 230.66 15.9166 L 231.21 12.6318 L 235.47 12.6318 L 235.47 15.9166 L 238.9 15.9166 L 238.9 19.6094 L 235.47 19.6094 L 235.47 25.9101 C 235.47 26.1888 235.56 26.4078 235.74 26.5969 C 235.92 26.776 236.15 26.8756 236.43 26.8756 L 240 26.8756 L 240 30.4291 Z" stroke-linecap="round" />
</g>
</g>
</g>
</svg>